<svg xmlns="http://www.w3.org/2000/svg" width="186.9987" height="172.694" viewBox="0 0 186.9987 172.694">
  <g id="Layer_2" data-name="Layer 2">
    <g id="Layer_3" data-name="Layer 3">
      <g>
        <g>
          <path d="M174.61,85.659v.31a82.7856,82.7856,0,0,1-40.62,71.26,81.6844,81.6844,0,0,1-22.61,9.2c-1.08.27-2.18.51-3.29.73a82.8692,82.8692,0,0,1-16.26,1.6q-3.33,0-6.58-.26a82.8144,82.8144,0,0,1-68.15-46.84,80.4372,80.4372,0,0,1-3.99-10,82.7091,82.7091,0,0,1,16.74-80.57,83.3415,83.3415,0,0,1,17.26-14.79A82.252,82.252,0,0,1,89.18,3.239c.88-.04,1.76-.05,2.65-.05a82.7191,82.7191,0,0,1,82.78,82.47Z" fill="#ffb18a"/>
          <path d="M169.63,57.639c-9.79,6.14-29.9,13.99-36.45,5.11-8.16-11.05-34.4-39.61-41.92-1.33s-42.08,9.24-48.8,0c-4.43-6.08-18.63-4.62-29.33-1.2a82.5026,82.5026,0,0,1,16.72-29.13c3.88-1.66,7.46-1.3,10.21,2.37,12.96,17.28,26.88,26.1,35.04,15.93s18.24-28.89,26.88-27.93,23.52,8.69,31.68,16.1c6.52,5.93,13.97.68,21.11-5.35A82.6722,82.6722,0,0,1,169.63,57.639Z" fill="#ff834d"/>
          <path d="M89.18,3.239q-.645,2.28-1.19,4.99c-5.86,29.84-28.16,18.77-40.88,8.07A82.252,82.252,0,0,1,89.18,3.239Z" fill="#ff834d"/>
          <path d="M174.61,85.659v.31a82.3518,82.3518,0,0,1-8.69,36.94c-10.44,5.06-24.96,9.05-30.34,1.76-8.16-11.05-34.4-39.61-41.92-1.33s-42.08,9.24-48.8,0c-4.21-5.79-17.29-4.75-27.76-1.68a80.4372,80.4372,0,0,1-3.99-10c9.09-12.58,22.09-25.97,29.35-16.28,12.96,17.28,26.88,26.1,35.04,15.93s18.24-28.89,26.88-27.93,23.52,8.69,31.68,16.1c8.16,7.42,17.76-2.66,26.4-9.86C167.0905,85.769,171.1605,84.659,174.61,85.659Z" fill="#ff834d"/>
          <path d="M133.99,157.229a81.6844,81.6844,0,0,1-22.61,9.2,9.8756,9.8756,0,0,0-3.29.73,82.8692,82.8692,0,0,1-16.26,1.6q-3.33,0-6.58-.26c7.34-10.26,15.68-23.53,22.99-22.72C115.06,146.539,125.77,151.509,133.99,157.229Z" fill="#ff834d"/>
        </g>
        <g opacity="0.53">
          <path d="M174.8248,85.2028v.31a82.7868,82.7868,0,0,1-40.62,71.26,81.6844,81.6844,0,0,1-22.61,9.2c-1.08.27-2.18.51-3.29.73a82.8687,82.8687,0,0,1-16.26,1.6q-3.33,0-6.58-.26a82.8145,82.8145,0,0,1-68.15-46.84l-.06-.12a82.5663,82.5663,0,0,0,55.61,27.88q3.2552.255,6.58.26a82.8616,82.8616,0,0,0,16.26-1.6c1.11-.22,2.21-.46,3.29-.73a81.6851,81.6851,0,0,0,22.61-9.2,82.7862,82.7862,0,0,0,40.62-71.26v-.31a82.5663,82.5663,0,0,0-4.98-28.02c-.9-2.47-1.92-4.89-3.04-7.25l.78.9a82.4711,82.4711,0,0,1,19.84,53.45Z" fill="#ff8650"/>
        </g>
        <g>
          <g>
            <g>
              <path d="M119.4864,24.3226c-1.5379,4.3572-4.6136,7.433-7.4329,8.4581s-7.9456-1.2281-7.9456-1.2281l-7.433,1.4951-6.4077-1.4951s-15.1757-4.731-22.1815-9.2378c-.363-3.1077-.0213-4.731,2.8408-8.031,0,0,4.9874-5.8951,10.37-11.5339s12.8155-1.0252,16.9164,0,8.3194,3.8447,14.15,2.8194a6.32,6.32,0,0,1,4.9447.9291C118.4184,9.809,120.96,20.1362,119.4864,24.3226Z" fill="#a57568"/>
              <path d="M119.4864,24.3226c-1.5379,4.3572-4.6136,7.433-7.4329,8.4581s-7.9456-1.2281-7.9456-1.2281l-7.433,1.4951-6.4077-1.4951s-15.1757-4.731-22.1815-9.2378c-.363-3.1077-.0213-4.731,2.8408-8.031,0,0,4.9874-5.8951,10.37-11.5339s12.8155-1.0252,16.9164,0,8.3194,3.8447,14.15,2.8194a6.32,6.32,0,0,1,4.9447.9291C118.4184,9.809,120.96,20.1362,119.4864,24.3226Z" fill="#a57568"/>
              <path d="M121.0242,12.49c-.6514-1.7941-1.6126-4.5067-3.7164-5.9912,1.1106,3.3106,3.6524,13.6378,2.1786,17.8242-1.5379,4.3572-4.6136,7.433-7.4329,8.4581s-7.9456-1.2281-7.9456-1.2281l-7.433,1.4951-.98-.2286-1.0339-6.6027L92.3971,32.05l-2.13-.497s-15.1757-4.731-22.1815-9.2378c.0962.801.2457,1.6874.3952,2.734.7689,5.1261,25.6309,12.8688,25.6309,12.8688l6.4077,1.4952,7.433-1.4952s5.1261,2.2534,7.9456,1.2282,5.8951-4.101,7.4329-8.4582S122.05,15.309,121.0242,12.49Z" fill="#8e5a4f"/>
            </g>
            <ellipse cx="88.691" cy="6.4023" rx="4.1392" ry="1.7301" fill="#e8c1b8"/>
            <circle cx="95.6176" cy="6.178" r="0.7369" fill="#e8c1b8"/>
          </g>
          <g>
            <g>
              <path d="M175.618,52.4738l-4.6135,7.433s-23.0678-5.8951-28.194-12.5591c-3.5136-4.56-5.9378-19.3514-3.332-26.9018-.7049,7.8495,1.4417,18.3154,4.2931,22.0319,5.1263,6.664,28.1941,12.5591,28.1941,12.5591l4.6135-7.4329c.2349-.3845.4485-.7583.62-1.1107C177.487,48.0632,177.1452,50.0175,175.618,52.4738Z" fill="#8e5a4f"/>
              <path d="M177.1987,46.4933c-.171.3524-.3846.7262-.62,1.1107l-4.6135,7.4329s-23.0678-5.8951-28.1941-12.5591c-2.8514-3.7165-4.998-14.1824-4.2931-22.0319,1.1961-3.46,3.46-5.4039,7.1766-4.1116,11.79,4.1009,11.79,10.5086,14.8659,12.3028S169.9793,39.6584,172.03,40.94C173.4074,41.805,176.6112,43.3428,177.1987,46.4933Z" fill="#a57568"/>
              <path d="M177.1987,46.4933c-.171.3524-.3846.7262-.62,1.1107l-4.6135,7.4329s-23.0678-5.8951-28.1941-12.5591c-2.8514-3.7165-4.998-14.1824-4.2931-22.0319,1.1961-3.46,3.46-5.4039,7.1766-4.1116,11.79,4.1009,11.79,10.5086,14.8659,12.3028S169.9793,39.6584,172.03,40.94C173.4074,41.805,176.6112,43.3428,177.1987,46.4933Z" fill="#a57568"/>
            </g>
            <ellipse cx="147.1678" cy="20.9907" rx="3.332" ry="1.9651" fill="#e8c1b8"/>
            <ellipse cx="143.5154" cy="25.4333" rx="0.3204" ry="1.1534" fill="#e8c1b8"/>
          </g>
          <g>
            <g>
              <path d="M52.5184,46.2214c-.7262,2.9155-5.4679,5.895-5.4679,5.895l-2.9262,6.9951-4.8272,4.4641S18.9526,79.83,14.275,77.5872c-4.6777-2.2321-6.1408-2.7554-7.55-8.0524,0,0-2.0825-7.433-3.7378-15.0582a8.49,8.49,0,0,1,.63-5.6815c1.6447,7.5291,3.6845,14.8018,3.6845,14.8018,1.41,5.2971,2.8728,5.82,7.55,8.0524,4.6777,2.2427,25.0222-14.0115,25.0222-14.0115l4.8272-4.4747,2.9262-6.9845a17.986,17.986,0,0,0,4.8912-4.5815A10.52,10.52,0,0,1,52.5184,46.2214Z" fill="#8e5a4f"/>
              <path d="M52.5184,41.5971a17.986,17.986,0,0,1-4.8912,4.5815L44.701,53.1631l-4.8272,4.4747S19.5293,73.892,14.8516,71.6493c-4.6776-2.232-6.1407-2.7553-7.55-8.0524,0,0-2.04-7.2727-3.6845-14.8018,1.933-3.93,6.6107-6.3116,8.8534-8.33,3.14-2.8194,7.8388-4.7311,10.263-10.1349,2.4243-5.4145,7.6786-4.0262,10.5834-3.2893,2.9156.7262,13.6165,4.5708,16.3611,8.2873A15.7756,15.7756,0,0,1,52.5184,41.5971Z" fill="#a57568"/>
              <path d="M52.5184,41.5971a17.986,17.986,0,0,1-4.8912,4.5815L44.701,53.1631l-4.8272,4.4747S19.5293,73.892,14.8516,71.6493c-4.6776-2.232-6.1407-2.7553-7.55-8.0524,0,0-2.04-7.2727-3.6845-14.8018,1.933-3.93,6.6107-6.3116,8.8534-8.33,3.14-2.8194,7.8388-4.7311,10.263-10.1349,2.4243-5.4145,7.6786-4.0262,10.5834-3.2893,2.9156.7262,13.6165,4.5708,16.3611,8.2873A15.7756,15.7756,0,0,1,52.5184,41.5971Z" fill="#a57568"/>
            </g>
            <ellipse cx="32.3956" cy="32.2632" rx="4.6268" ry="2.1786" fill="#e8c1b8"/>
            <circle cx="37.4389" cy="36.268" r="1.0573" fill="#e8c1b8"/>
          </g>
          <g>
            <g>
              <path d="M118.1194,68.6427c-6.0446,3.7164-19.4688,8.9174-21.9144,9.8465a2.9412,2.9412,0,0,1-.801.2029L70.9372,81.9387a3.6257,3.6257,0,0,1-.4806.032H55.7829a3.5793,3.5793,0,0,1-3.5776-3.631H66.2809a3.3525,3.3525,0,0,0,.47-.0321l24.4775-3.2465a3.5367,3.5367,0,0,0,.801-.2029c2.4456-.94,15.87-6.13,21.9037-9.8466,5.4573-3.3533,1.9864-6.5465.5447-7.5931a3.5223,3.5223,0,0,1-.9505-1.0359l-2.9368-4.902a3.6859,3.6859,0,0,0-1.335-1.2921l-.78-.4273a3.6647,3.6647,0,0,1-1.1534-1.0252l-1.2708-1.7408.4592.0962a3.573,3.573,0,0,1,2.1679,1.3883l2.8194,3.8874a3.6515,3.6515,0,0,0,1.1534,1.0252l.78.4378a3.4977,3.4977,0,0,1,1.3349,1.2816l2.9369,4.9019a3.4336,3.4336,0,0,0,.9505,1.0466C120.0951,62.1068,123.566,65.2893,118.1194,68.6427Z" fill="#8e5a4f"/>
              <path d="M113.933,65.0116c-6.0339,3.7165-19.4581,8.9068-21.9037,9.8466a3.5367,3.5367,0,0,1-.801.2029L66.7508,78.3076a3.3525,3.3525,0,0,1-.47.0321H52.2053a3.7713,3.7713,0,0,1,.32-1.4418l3.567-7.7426,5.4786-11.9184a3.5805,3.5805,0,0,1,1.2175-1.4524l9.0456-6.2476a3.6156,3.6156,0,0,1,2.0291-.63H89.1458a3.7794,3.7794,0,0,0,1.0252-.15l9.1311-2.734a3.5217,3.5217,0,0,1,1.7621-.0748l4.9874,1.0466,1.2708,1.7408a3.6647,3.6647,0,0,0,1.1534,1.0252l.78.4273a3.6859,3.6859,0,0,1,1.335,1.2921l2.9368,4.902a3.5223,3.5223,0,0,0,.9505,1.0359C115.9194,58.4651,119.39,61.6583,113.933,65.0116Z" fill="#a57568"/>
              <path d="M113.933,65.0116c-6.0339,3.7165-19.4581,8.9068-21.9037,9.8466a3.5367,3.5367,0,0,1-.801.2029L66.7508,78.3076a3.3525,3.3525,0,0,1-.47.0321H52.2053a3.7713,3.7713,0,0,1,.32-1.4418l3.567-7.7426,5.4786-11.9184a3.5805,3.5805,0,0,1,1.2175-1.4524l9.0456-6.2476a3.6156,3.6156,0,0,1,2.0291-.63H89.1458a3.7794,3.7794,0,0,0,1.0252-.15l9.1311-2.734a3.5217,3.5217,0,0,1,1.7621-.0748l4.9874,1.0466,1.2708,1.7408a3.6647,3.6647,0,0,0,1.1534,1.0252l.78.4273a3.6859,3.6859,0,0,1,1.335,1.2921l2.9368,4.902a3.5223,3.5223,0,0,0,.9505,1.0359C115.9194,58.4651,119.39,61.6583,113.933,65.0116Z" fill="#a57568"/>
            </g>
            <ellipse cx="102.9545" cy="51.1923" rx="3.4602" ry="2.0505" fill="#e8c1b8"/>
            <circle cx="104.9088" cy="55.5816" r="0.801" fill="#e8c1b8"/>
          </g>
          <g>
            <g>
              <path d="M59.2873,136.28c-1.793,3.6276-9.8666,16.74-15.4058,19.5907s-11.2027,3.1118-14.6829,1.625c-3.47-1.4831-5.8462-8.1673-5.8462-8.1673l-8.0043-5.0871-4.2373-7.0739S-3.4589,107.8474.77,102.2244C1.7184,100.9717,2.5044,99.9091,3.2442,99c1.2156,10.2068,10.9774,29.8668,10.9774,29.8668l4.2374,7.0739,8,5.0971s2.38,6.6743,5.85,8.1573c3.48,1.4868,9.1435,1.2258,14.6828-1.625,5.0331-2.5958,12.1733-13.6741,14.77-18.3807A21.3467,21.3467,0,0,1,59.2873,136.28Z" fill="#8e5a4f"/>
              <path d="M61.7621,129.19c-2.5965,4.7066-9.7367,15.7849-14.77,18.3807-5.5393,2.8508-11.2026,3.1118-14.6828,1.625-3.47-1.483-5.85-8.1573-5.85-8.1573l-8-5.0971-4.2374-7.0739S4.46,109.2071,3.2442,99c2.5593-3.1465,4.4565-4.3743,10.0087-5.0078,0,0,10.0681-1.3018,20.2263-2.0223,10.1644-.7068,12.3213,10.2748,14.967,14.87s3.6693,11.0238,9.816,15.1639A7.28,7.28,0,0,1,61.7621,129.19Z" fill="#a57568"/>
              <path d="M61.7621,129.19c-2.5965,4.7066-9.7367,15.7849-14.77,18.3807-5.5393,2.8508-11.2026,3.1118-14.6828,1.625-3.47-1.483-5.85-8.1573-5.85-8.1573l-8-5.0971-4.2374-7.0739S4.46,109.2071,3.2442,99c2.5593-3.1465,4.4565-4.3743,10.0087-5.0078,0,0,10.0681-1.3018,20.2263-2.0223,10.1644-.7068,12.3213,10.2748,14.967,14.87s3.6693,11.0238,9.816,15.1639A7.28,7.28,0,0,1,61.7621,129.19Z" fill="#a57568"/>
            </g>
            <ellipse cx="37.2781" cy="101.1266" rx="3.2679" ry="6.0873" transform="translate(-70.499 100.5427) rotate(-69.4543)" fill="#e8c1b8"/>
            <ellipse cx="34.0663" cy="105.5426" rx="0.825" ry="1.5379" transform="translate(-76.7188 100.4013) rotate(-69.4543)" fill="#e8c1b8"/>
          </g>
          <g>
            <g>
              <path d="M141.4522,88.753a33.3229,33.3229,0,0,0-1.3883-6.4825c-.2884-.31-.5981-.6621-.9185-1.0573-4.6135-5.6388-4.87,1.5379-8.2019,4.6135s-6.92,5.3826-18.1979,8.202-5.6388.2563-11.5339.2563-2.8194-2.8194-7.433-4.3573-7.6892,0-17.9416,3.5883c-8.896,3.1078-8.7252,21.0708-8.5223,25.7911a40.4038,40.4038,0,0,0,13.9048,7.38c11.0213,3.0757,12.8155,3.5883,20.2484,3.5883s10.765-1.5378,15.3785-4.1009a35.3992,35.3992,0,0,0,11.2776-9.4835,50.822,50.822,0,0,0,5.2543-8.5543c1.7729-.79,3.7059-1.698,5.767-2.7233C150.423,99.7742,142.99,99.2616,141.4522,88.753Zm-16.66,30.65a1.9682,1.9682,0,0,1,.5874-.4271Z" fill="#a57568"/>
              <path d="M144.0153,110.945c-2.0611,1.036-3.9941,1.933-5.767,2.7233a50.4011,50.4011,0,0,1-5.2543,8.5543,35.4005,35.4005,0,0,1-11.2776,9.4835c-4.6136,2.5631-7.9456,4.1009-15.3786,4.1009s-9.227-.5126-20.2483-3.5883-18.7106-11.78-18.7106-11.78-.0321-.4166-.0641-1.1321a40.4038,40.4038,0,0,0,13.9048,7.38c11.0213,3.0757,12.8155,3.5883,20.2484,3.5883s10.765-1.5378,15.3785-4.1009a35.3992,35.3992,0,0,0,11.2776-9.4835,50.822,50.822,0,0,0,5.2543-8.5543c1.7729-.79,3.7059-1.698,5.767-2.7233,11.2776-5.6388,3.8446-6.1514,2.3068-16.66a33.3229,33.3229,0,0,0-1.3883-6.4825c3.8446,4.2184,4.8271,2.2427,6.2581,12.0145C147.86,104.7936,155.2929,105.3063,144.0153,110.945Z" fill="#8e5a4f"/>
              <path d="M141.4522,88.753a33.3229,33.3229,0,0,0-1.3883-6.4825c-.2884-.31-.5981-.6621-.9185-1.0573-4.6135-5.6388-4.87,1.5379-8.2019,4.6135s-6.92,5.3826-18.1979,8.202-5.6388.2563-11.5339.2563-2.8194-2.8194-7.433-4.3573-7.6892,0-17.9416,3.5883c-8.896,3.1078-8.7252,21.0708-8.5223,25.7911a40.4038,40.4038,0,0,0,13.9048,7.38c11.0213,3.0757,12.8155,3.5883,20.2484,3.5883s10.765-1.5378,15.3785-4.1009a35.3992,35.3992,0,0,0,11.2776-9.4835,50.822,50.822,0,0,0,5.2543-8.5543c1.7729-.79,3.7059-1.698,5.767-2.7233C150.423,99.7742,142.99,99.2616,141.4522,88.753Zm-21.53,25.1182a1.9661,1.9661,0,0,1,.5873-.4271Z" fill="#a57568"/>
            </g>
            <ellipse cx="87.7555" cy="98.1296" rx="8.2019" ry="2.4349" fill="#e8c1b8"/>
            <circle cx="84.0796" cy="103.591" r="1.1042" fill="#e8c1b8"/>
          </g>
          <g>
            <g>
              <path d="M186.4654,103.6366c-.1922,3.7271-.7048,6.8669-3.4387,8.8-4.3573,3.0757-9.2272,6.1514-11.79,6.4077s-10.5193-4.4747-11.2776-8.4581c0,0-2.6485-10.8077-.8543-19.5009a58.4034,58.4034,0,0,0,1.41,15.165c.7582,3.9834,8.7145,8.7144,11.2776,8.4581s7.4329-3.332,11.79-6.4077A7.34,7.34,0,0,0,186.4654,103.6366Z" fill="#8e5a4f"/>
              <path d="M186.8713,96.5454c-.2883,2.4776-.2883,4.8912-.4059,7.0912a7.34,7.34,0,0,1-2.8834,4.464c-4.3573,3.0757-9.2271,6.1514-11.79,6.4077s-10.5194-4.4747-11.2776-8.4581a58.4034,58.4034,0,0,1-1.41-15.165,20.1057,20.1057,0,0,1,.8543-3.0543c3.3321-8.9709,2.5631-13.5844,8.7145-13.5844s9.1737,3.5883,12.666,7.6892C184.8208,86.0367,187.64,89.8813,186.8713,96.5454Z" fill="#a57568"/>
              <path d="M186.8713,96.5454c-.2883,2.4776-.2883,4.8912-.4059,7.0912a7.34,7.34,0,0,1-2.8834,4.464c-4.3573,3.0757-9.2271,6.1514-11.79,6.4077s-10.5194-4.4747-11.2776-8.4581a58.4034,58.4034,0,0,1-1.41-15.165,20.1057,20.1057,0,0,1,.8543-3.0543c3.3321-8.9709,2.5631-13.5844,8.7145-13.5844s9.1737,3.5883,12.666,7.6892C184.8208,86.0367,187.64,89.8813,186.8713,96.5454Z" fill="#a57568"/>
            </g>
            <ellipse cx="180.7839" cy="96.5602" rx="3.6524" ry="6.5507" fill="#e8c1b8"/>
            <circle cx="176.4948" cy="105.7845" r="1.67" fill="#e8c1b8"/>
          </g>
          <g>
            <g>
              <path d="M147.6484,153.8441C146.8794,165.7624,107.28,168.08,107.28,168.08l-10.9251,2.68s-26.3678,1.5379-32.9037,1.9224-6.4611-9.2271-6.4611-9.2271c.16-.1816.31-.3632.4592-.534.6408,2.6805,2.2107,5.82,6.0019,5.596,6.5359-.3844,32.9037-1.9223,32.9037-1.9223l10.9251-2.6912s39.6-2.3068,40.3688-14.2252c.0213-.2563.032-.5126.0427-.7689A42.741,42.741,0,0,1,147.6484,153.8441Z" fill="#8e5a4f"/>
              <path d="M147.6911,148.91c-.0107.2563-.0214.5126-.0427.7689-.769,11.9184-40.3688,14.2252-40.3688,14.2252l-10.9251,2.6912s-26.3678,1.5379-32.9037,1.9223c-3.7912.2243-5.3611-2.9155-6.0019-5.596,9.5582-11.0106,8.1485-11.4058,22.1494-12.5378,14.2252-1.1534,7.6893,2.6912,16.7562,6.7388s20.5367-5.97,23.6125-7.8922,14.61-4.6136,16.1474-9.2271,8.0737-3.8447,8.0737-3.8447S147.2532,140.3344,147.6911,148.91Z" fill="#a57568"/>
            </g>
            <ellipse cx="75.6255" cy="164.545" rx="10.5087" ry="1.2175" fill="#e8c1b8"/>
            <ellipse cx="139.3238" cy="154.1674" rx="5.1935" ry="0.9868" transform="translate(-39.1791 47.7934) rotate(-17.1036)" fill="#e8c1b8"/>
          </g>
        </g>
      </g>
    </g>
  </g>
</svg>
