<svg xmlns="http://www.w3.org/2000/svg" width="175.5341" height="193.8054" viewBox="0 0 175.5341 193.8054">
  <g id="Layer_2" data-name="Layer 2">
    <g id="Layer_3" data-name="Layer 3">
      <g>
        <g>
          <path d="M165.58,94.7831a82.7793,82.7793,0,1,1-34.86-67.51c.02.01.02.01.02.02A82.6819,82.6819,0,0,1,165.58,94.7831Z" fill="#bad5dd"/>
          <path d="M151.82,82.4831a82.7986,82.7986,0,0,1-130.71,67.52,82.7912,82.7912,0,0,1,109.61-122.73c.02.01.02.01.02.02A82.4344,82.4344,0,0,1,151.82,82.4831Z" fill="#d5e6ed"/>
        </g>
        <g>
          <path d="M129.9942,30.2551a8.7835,8.7835,0,0,0-2.4981-5.0821,1.7115,1.7115,0,0,1-.5035-1.13c-.0028-.1939-.0129-.388-.034-.5823-.39-3.599-3.2213-6.5934-7.523-8.5709a1.8265,1.8265,0,0,1-.9049-.9552C115.8861,7.78,105.56,4.0245,93.754,5.338A39.1807,39.1807,0,0,0,82.5667,8.24a1.6882,1.6882,0,0,1-2.0451-.6152c-1.8322-2.5674-6.5684-4.0486-11.91-3.4543-6.6063.735-11.6332,4.3653-11.2279,8.1084l.0068.0588a1.7527,1.7527,0,0,1-1.6848,2.0272c-1.3085.0173-2.6453.0967-4.0043.2479C38.489,16.083,28.4352,23.3435,29.2458,30.83a7.8392,7.8392,0,0,0,.1989.9976c-3.2917,1.5733-5.349,3.9624-5.0845,6.4052.2666,2.4624,2.8183,4.3592,6.4137,5.16a1.6985,1.6985,0,0,1,1.3772,1.6166,3.8869,3.8869,0,0,0,.0224.4529c.4053,3.7431,6.0893,6.1817,12.6956,5.4466A19.4828,19.4828,0,0,0,50.5919,49.4l2.7628.82c3.5785,5.2347,13.1285,8.2748,23.9234,7.0738,9.4508-1.0515,17.28-5.0667,20.6775-10.007a1.6725,1.6725,0,0,1,1.5386-.7066,40.76,40.76,0,0,0,8.0444-.1083C120.7512,45.0019,130.8049,37.7414,129.9942,30.2551Z" fill="#dce1e2"/>
          <path d="M130.2762,26.2151a8.7383,8.7383,0,0,0-2.5321-5.0821,1.7006,1.7006,0,0,1-.5105-1.13c-.0028-.1939-.0131-.388-.0344-.5823-.395-3.599-3.2653-6.5934-7.6257-8.5709a1.837,1.837,0,0,1-.9172-.9552C115.9755,3.74,105.5081-.0155,93.5414,1.298A40.1492,40.1492,0,0,0,82.2014,4.2a1.7245,1.7245,0,0,1-2.073-.6152C78.2712,1.0176,73.47-.4636,68.056.1307,61.36.8657,56.2641,4.496,56.6749,8.2391l.0069.0588a1.76,1.76,0,0,1-1.7078,2.0272c-1.3263.0173-2.6814.0967-4.059.2479C37.5221,12.043,27.3312,19.3035,28.1528,26.79a7.743,7.743,0,0,0,.2016.9976c-3.3366,1.5733-5.422,3.9624-5.1539,6.4052.27,2.4624,2.8568,4.3592,6.5013,5.16a1.7056,1.7056,0,0,1,1.396,1.6166,3.8225,3.8225,0,0,0,.0227.4529c.4108,3.7431,6.1723,6.1817,12.8688,5.4466A19.963,19.963,0,0,0,49.79,45.36l2.8.82c3.6273,5.2347,13.3076,8.2748,24.25,7.0738,9.58-1.0515,17.5155-5.0667,20.96-10.007a1.7045,1.7045,0,0,1,1.56-.7066,41.877,41.877,0,0,0,8.1542-.1083C120.907,40.9619,131.098,33.7014,130.2762,26.2151Z" fill="#fff"/>
        </g>
        <g>
          <path d="M171.09,125.0232a6.7285,6.7285,0,0,1-4.84.6c-1.2,8.68-4.9,15.01-9.68,15.45-6.22.57-11.99-9.09-13.12-21.77-.04-.38-.07-.76-.1-1.14a47.1724,47.1724,0,0,1,.23-9.04,46.93,46.93,0,0,1-1.45-8.88c-.77-11.52,2.51-21.5,7.6-24.29a29.136,29.136,0,0,1,2.02-2.95c6.16-7.88,14.93-10.72,19.59-6.34a7.6772,7.6772,0,0,1,1.27,1.56,25.5837,25.5837,0,0,1-5.42,12.57c-.43.56-.88,1.08-1.34,1.59a42.0378,42.0378,0,0,1,3.44,5.59v.01c-.21.3-.43.59-.66.88-.43.56-.88,1.08-1.34,1.58a43.0606,43.0606,0,0,1,4.29,7.34,45.633,45.633,0,0,1,2.47,6.61C176.76,113.8332,175.75,122.3832,171.09,125.0232Z" fill="#ebf1f2"/>
          <path d="M169.65,116.9532a6.21,6.21,0,0,1-2.7394.7878,2.7516,2.7516,0,0,0-2.5131,2.2391c-1.5064,7.4119-4.9455,12.6252-9.2675,13.0231-4.7665.4351-9.2495-5.1148-11.6017-13.42l-.1189-.6522a47.48,47.48,0,0,1,.113-9.3222,2.64,2.64,0,0,0-.0664-.9591,47.275,47.275,0,0,1-1.326-8.4069c-.7418-11.0986,2.2754-20.7678,7.0487-23.9552a2.9805,2.9805,0,0,0,.8883-.8836,28.8,28.8,0,0,1,1.683-2.4012c6.16-7.88,14.93-10.72,19.59-6.34a7.416,7.416,0,0,1,.5191.5393,2.7169,2.7169,0,0,1,.5719,2.2639,26.1982,26.1982,0,0,1-5.241,11.3268l-.016.0208a2.7974,2.7974,0,0,0-.1556,3.2557,43.059,43.059,0,0,1,2.2716,3.9035v.01c-.21.3-.43.59-.66.88l-.0129.0168a2.7923,2.7923,0,0,0-.1621,3.2478,43.9474,43.9474,0,0,1,3.125,5.6554,45.9007,45.9007,0,0,1,2.3722,6.2717,2.9462,2.9462,0,0,1,.1161.6956C174.33,110.524,172.8542,115.14,169.65,116.9532Z" fill="#fff"/>
        </g>
        <g>
          <path d="M129.39,164.3932c-.15.68-.33,1.36-.54,2.03-3.47,11.28-13.71,18.72-25.32,19.65-3.27,6.14-10.83,9.24-18.11,7.01a15.8431,15.8431,0,0,1-10.1-9.18,32.9481,32.9481,0,0,1-4.38-1.01,31.7214,31.7214,0,0,1-6.46-2.81,37.5479,37.5479,0,0,1-20.67-.45c-16.01-4.92-26.31-19.33-25.98-34.49-.4-.09-.8-.19-1.2-.31-8.19-2.51-12.9-10.83-10.52-18.57a13.9684,13.9684,0,0,1,3-5.27,15.5516,15.5516,0,0,1,16.13-4.19,16.1274,16.1274,0,0,1,5.59,3.01,36.7507,36.7507,0,0,1,33.06-5.57,38.2038,38.2038,0,0,1,10.15,4.85,15.5048,15.5048,0,0,1,16.73-4.91,15.9609,15.9609,0,0,1,8.74,6.56,15.7268,15.7268,0,0,1,14.86-2.96c8.19,2.52,12.9,10.83,10.52,18.57a13.6772,13.6772,0,0,1-1.77,3.69A28.15,28.15,0,0,1,129.39,164.3932Z" fill="#ebf1f2"/>
          <path d="M129.39,164.3932a29.0258,29.0258,0,0,1-22.26,13.04c-3.27,6.14-10.83,9.24-18.11,7.01a15.8427,15.8427,0,0,1-10.1-9.18,32.9642,32.9642,0,0,1-4.38-1.01,31.7269,31.7269,0,0,1-6.46-2.81,37.5479,37.5479,0,0,1-20.67-.45c-16.01-4.92-26.31-19.33-25.98-34.49-.4-.09-.8-.19-1.2-.31a15.3557,15.3557,0,0,1-11.12-15.2,15.5516,15.5516,0,0,1,16.13-4.19,16.1274,16.1274,0,0,1,5.59,3.01,36.7507,36.7507,0,0,1,33.06-5.57,38.2038,38.2038,0,0,1,10.15,4.85,15.5048,15.5048,0,0,1,16.73-4.91,15.9609,15.9609,0,0,1,8.74,6.56,15.7268,15.7268,0,0,1,14.86-2.96c8.19,2.52,12.9,10.83,10.52,18.57a13.6772,13.6772,0,0,1-1.77,3.69A28.15,28.15,0,0,1,129.39,164.3932Z" fill="#fff"/>
        </g>
        <ellipse cx="106.44" cy="15.3232" rx="6.36" ry="3.33" fill="#ebf1f2"/>
        <ellipse cx="77.4" cy="27.8653" rx="2.28" ry="1.1078" fill="#ebf1f2"/>
        <ellipse cx="150.13" cy="114.1732" rx="2.53" ry="6" fill="#ebf1f2"/>
        <ellipse cx="108.36" cy="172.2532" rx="3" ry="1.68" fill="#ebf1f2"/>
        <ellipse cx="114.24" cy="166.0132" rx="5.64" ry="3.83" fill="#ebf1f2"/>
        <g>
          <ellipse cx="115.68" cy="75.9513" rx="3.64" ry="3.12" fill="#fff"/>
          <ellipse cx="112.04" cy="77.9332" rx="3.64" ry="3.12" fill="#fff"/>
        </g>
        <g>
          <ellipse cx="45.72" cy="72.2932" rx="7.32" ry="5.4" fill="#fff"/>
          <ellipse cx="53.52" cy="66.6532" rx="5.04" ry="4.32" fill="#fff"/>
          <ellipse cx="52.08" cy="73.6132" rx="5.04" ry="4.32" fill="#fff"/>
        </g>
      </g>
    </g>
  </g>
</svg>
