<svg xmlns="http://www.w3.org/2000/svg" width="165.58" height="165.58" viewBox="0 0 165.58 165.58">
  <g style="isolation: isolate">
    <g id="Layer_2" data-name="Layer 2">
      <g id="Layer_3" data-name="Layer 3">
        <g>
          <g>
            <path d="M165.58,82.79A82.79,82.79,0,0,1,.61,92.82,81.1168,81.1168,0,0,1,0,82.79,82.7818,82.7818,0,0,1,78.28.13c1.49-.09,3-.13,4.51-.13a82.7251,82.7251,0,0,1,82.79,82.79Z" fill="#93d0f9"/>
            <path d="M159.97,52.78a31.6681,31.6681,0,0,1-5.29,5.32c-10.78,8.55-24.9,8.7-31.55.32a16.9869,16.9869,0,0,1-3.12-13.56,21.5667,21.5667,0,0,1-14.37-1.16c-13.78,8.99-30.46,8.41-38.63-1.89C58.19,30.7,62.63,12.49,76.94,1.14c.44-.35.89-.69,1.34-1.01,1.49-.09,3-.13,4.51-.13A82.8135,82.8135,0,0,1,159.97,52.78Z" fill="#6cea87"/>
            <path d="M106.76,156.21a34.8315,34.8315,0,0,1-2.54,6.56A82.8325,82.8325,0,0,1,.61,92.82c2.61-2.5,5.48-3.66,8.08-2.95,2.61.72,4.48,3.23,5.44,6.73,7.12-11.92,16.8-18.76,25.17-16.45,8.82,2.43,13.69,14.35,13.13,29.32a12.3342,12.3342,0,0,1,3.19.44c9.73,2.68,14.65,16.89,12.79,34.02,3.82-2.13,7.72-2.87,11.37-1.86.04.01.08.03.13.04,2.63-2.55,5.54-3.77,8.17-3.04a6.3138,6.3138,0,0,1,2.93,1.86c3.21-4.62,7.26-7.15,10.8-6.18C107.39,136.29,109.6,145.9,106.76,156.21Z" fill="#6cea87"/>
          </g>
          <path d="M165.58,82.79A82.796,82.796,0,0,1,9.33,120.99,82.8071,82.8071,0,0,0,142.21,29.74a81.6509,81.6509,0,0,0-3.71-8.19,82.5755,82.5755,0,0,1,27.08,61.24Z" fill="#5fb0dd" opacity="0.72" style="mix-blend-mode: darken"/>
        </g>
      </g>
    </g>
  </g>
</svg>
