<svg xmlns="http://www.w3.org/2000/svg" width="165.58" height="171.1047" viewBox="0 0 165.58 171.1047">
  <g style="isolation: isolate">
    <g id="Layer_2" data-name="Layer 2">
      <g id="Layer_3" data-name="Layer 3">
        <g>
          <g>
            <g>
              <path d="M165.58,82.79A82.79,82.79,0,0,1,.61,92.82,81.1168,81.1168,0,0,1,0,82.79,82.7818,82.7818,0,0,1,78.28.13c1.49-.09,3-.13,4.51-.13a82.7251,82.7251,0,0,1,82.79,82.79Z" fill="#93d0f9"/>
              <path d="M159.97,52.78a31.6681,31.6681,0,0,1-5.29,5.32c-10.78,8.55-24.9,8.7-31.55.32a16.9869,16.9869,0,0,1-3.12-13.56,21.5667,21.5667,0,0,1-14.37-1.16c-13.78,8.99-30.46,8.41-38.63-1.89C58.19,30.7,62.63,12.49,76.94,1.14c.44-.35.89-.69,1.34-1.01,1.49-.09,3-.13,4.51-.13A82.8135,82.8135,0,0,1,159.97,52.78Z" fill="#6cea87"/>
              <path d="M106.76,156.21a34.8315,34.8315,0,0,1-2.54,6.56A82.8325,82.8325,0,0,1,.61,92.82c2.61-2.5,5.48-3.66,8.08-2.95,2.61.72,4.48,3.23,5.44,6.73,7.12-11.92,16.8-18.76,25.17-16.45,8.82,2.43,13.69,14.35,13.13,29.32a12.3342,12.3342,0,0,1,3.19.44c9.73,2.68,14.65,16.89,12.79,34.02,3.82-2.13,7.72-2.87,11.37-1.86.04.01.08.03.13.04,2.63-2.55,5.54-3.77,8.17-3.04a6.3138,6.3138,0,0,1,2.93,1.86c3.21-4.62,7.26-7.15,10.8-6.18C107.39,136.29,109.6,145.9,106.76,156.21Z" fill="#6cea87"/>
            </g>
            <path d="M165.58,82.79A82.796,82.796,0,0,1,9.33,120.99,82.8071,82.8071,0,0,0,142.21,29.74a81.6509,81.6509,0,0,0-3.71-8.19,82.5755,82.5755,0,0,1,27.08,61.24Z" fill="#5fb0dd" opacity="0.72" style="mix-blend-mode: darken"/>
          </g>
          <path d="M148.0919,45.5182a15.6571,15.6571,0,0,1-29.63,3.01,9.2029,9.2029,0,0,1-17.39-4.21,9.0459,9.0459,0,0,1,.41-2.72c-.44-.24-.87-.49-1.28-.76a15.6066,15.6066,0,0,1-17.79,4.57,19.8079,19.8079,0,0,1-26.59-28.49,19.4513,19.4513,0,0,0-.68,5.15,19.8,19.8,0,0,0,30.5,16.68,15.6066,15.6066,0,0,0,17.79-4.57c.41.27.84.52,1.28.76a9.3727,9.3727,0,0,0-.41,2.72,9.2029,9.2029,0,0,0,17.39,4.21,15.6562,15.6562,0,0,0,26.4,3.65Z" fill="#dde7ed"/>
          <path d="M148.4419,42.2082a15.59,15.59,0,0,1-.35,3.3v.01a15.6562,15.6562,0,0,1-26.4-3.65,9.2029,9.2029,0,0,1-17.39-4.21,9.3727,9.3727,0,0,1,.41-2.72c-.44-.24-.87-.49-1.28-.76a15.6066,15.6066,0,0,1-17.79,4.57,19.8,19.8,0,0,1-30.5-16.68,19.4513,19.4513,0,0,1,.68-5.15,19.7678,19.7678,0,0,1,30.47-1.61,16.1149,16.1149,0,0,1,1.85-.12,15.5807,15.5807,0,0,1,8.58,2.57,15.66,15.66,0,0,1,27.72,9.99c0,.42-.03.84-.07,1.26a15.6477,15.6477,0,0,1,24.07,13.2Z" fill="#fff"/>
          <path d="M148.4419,42.2082a15.59,15.59,0,0,1-.35,3.3v.01a15.6562,15.6562,0,0,1-26.4-3.65,9.2029,9.2029,0,0,1-17.39-4.21,9.3727,9.3727,0,0,1,.41-2.72c-.44-.24-.87-.49-1.28-.76a15.6066,15.6066,0,0,1-17.79,4.57,19.8,19.8,0,0,1-30.5-16.68,19.4513,19.4513,0,0,1,.68-5.15,19.7678,19.7678,0,0,1,30.47-1.61,16.1149,16.1149,0,0,1,1.85-.12,15.5807,15.5807,0,0,1,8.58,2.57,15.66,15.66,0,0,1,27.72,9.99c0,.42-.03.84-.07,1.26a15.6477,15.6477,0,0,1,24.07,13.2Z" fill="#fff"/>
          <path d="M30.8519,105.2582a13.3148,13.3148,0,0,0-.63,4.06,10.3982,10.3982,0,0,1-3.09.49c-7.84,0-14.19-8.81-14.19-19.68,0-.65.02-1.29.07-1.92.69,9.97,6.75,17.76,14.12,17.76A10.4621,10.4621,0,0,0,30.8519,105.2582Z" fill="#dde7ed"/>
          <path d="M67.8819,122.6382a10.7749,10.7749,0,0,1-20.95,3.55,13.3832,13.3832,0,0,1-16.71-13.02,13.3118,13.3118,0,0,1,.14-1.91,13.3747,13.3747,0,0,0,16.57,11.09,10.7759,10.7759,0,0,0,20.78-1.63A11.0564,11.0564,0,0,1,67.8819,122.6382Z" fill="#dde7ed"/>
          <path d="M67.7119,120.7182a10.7759,10.7759,0,0,1-20.78,1.63,13.3747,13.3747,0,0,1-16.57-11.09,13.0142,13.0142,0,0,1,.49-2.16c-.21.08-.42.15-.63.22a13.3148,13.3148,0,0,1,.63-4.06,10.4621,10.4621,0,0,1-3.72.71c-7.37,0-13.43-7.79-14.12-17.76.69-9.97,6.75-17.76,14.12-17.76,6.05,0,11.2,5.27,13.24,12.67a7.3034,7.3034,0,0,1,2.14-.33c4.68,0,8.56,4.39,9.28,10.13a15.5063,15.5063,0,0,1-.3,5.51,14.0432,14.0432,0,0,1-1.14,3.09,13.4276,13.4276,0,0,1,6.68,10.35h.07A10.7924,10.7924,0,0,1,67.7119,120.7182Z" fill="#fff"/>
          <path d="M67.8819,118.7982a10.97,10.97,0,0,1-.17,1.92,10.7924,10.7924,0,0,0-10.61-8.85h-.07a13.4276,13.4276,0,0,0-6.68-10.35,14.0432,14.0432,0,0,0,1.14-3.09,13.34,13.34,0,0,1,5.54,9.6h.07A10.7761,10.7761,0,0,1,67.8819,118.7982Z" fill="#fff"/>
          <path d="M67.7119,120.7182a10.7759,10.7759,0,0,1-20.78,1.63,13.3747,13.3747,0,0,1-16.57-11.09,13.7011,13.7011,0,0,1-.14-1.93v-.01a13.3148,13.3148,0,0,1,.63-4.06,10.4621,10.4621,0,0,1-3.72.71c-7.37,0-13.43-7.79-14.12-17.76.69-9.97,6.75-17.76,14.12-17.76,6.05,0,11.2,5.27,13.24,12.67a7.3034,7.3034,0,0,1,2.14-.33c4.68,0,8.56,4.39,9.28,10.13a14.2236,14.2236,0,0,1-1.44,4.76,12.4469,12.4469,0,0,1,1.14.75,14.0432,14.0432,0,0,1-1.14,3.09,13.4276,13.4276,0,0,1,6.68,10.35h.07A10.7924,10.7924,0,0,1,67.7119,120.7182Z" fill="#fff"/>
          <path d="M31.8519,152.1582c-2.13,1.23-5.3-.27-7.08-3.35-.01-.01-.01-.02-.02-.03a5.7,5.7,0,0,1-.7.47c-4.13,2.39-10.27-.52-13.72-6.49a15.41,15.41,0,0,1-2.18-9.23,16.4639,16.4639,0,0,0,2.18,6.55c3.45,5.97,9.59,8.87,13.72,6.49a7.1819,7.1819,0,0,0,.7-.48c.01.01.01.02.02.03,1.78,3.08,4.95,4.58,7.08,3.35a3.67,3.67,0,0,0,1.67-2.45C33.9519,149.2382,33.3719,151.2682,31.8519,152.1582Z" fill="#dde7ed"/>
          <path d="M33.5219,147.0182a3.67,3.67,0,0,1-1.67,2.45c-2.13,1.23-5.3-.27-7.08-3.35-.01-.01-.01-.02-.02-.03a7.1819,7.1819,0,0,1-.7.48c-4.13,2.38-10.27-.52-13.72-6.49a16.4639,16.4639,0,0,1-2.18-6.55,7.4342,7.4342,0,0,1,3.42-5.89c4.13-2.39,10.28.52,13.72,6.48a16.648,16.648,0,0,1,2.18,6.48,7.0985,7.0985,0,0,1,5.02,3.75A9.1916,9.1916,0,0,1,33.5219,147.0182Z" fill="#fff"/>
          <path d="M33.5219,147.0182a3.67,3.67,0,0,1-1.67,2.45c-2.13,1.23-5.3-.27-7.08-3.35-.01-.01-.01-.02-.02-.03a7.1819,7.1819,0,0,1-.7.48c-4.13,2.38-10.27-.52-13.72-6.49a16.4639,16.4639,0,0,1-2.18-6.55,7.4342,7.4342,0,0,1,3.42-5.89c4.13-2.39,10.28.52,13.72,6.48a16.648,16.648,0,0,1,2.18,6.48,7.0985,7.0985,0,0,1,5.02,3.75A9.1916,9.1916,0,0,1,33.5219,147.0182Z" fill="#fff"/>
          <path d="M130.3036,152.95c-.6686-2.7343-5.7782-3.8342-11.4126-2.4565a16.937,16.937,0,0,0-7.1692,3.4913,29.2756,29.2756,0,0,0-9.581.81c-8.7553,2.1408-15.0108,7.3206-13.9719,11.57s8.9787,5.9579,17.7341,3.8172c7.36-1.7995,12.9341-5.7457,13.9131-9.482.4934-.0842.9913-.1808,1.4959-.3042C126.9465,159.0177,130.9721,155.6843,130.3036,152.95Z" fill="#fff"/>
          <path d="M116.8042,150.9323c-.4392-1.7963-3.7959-2.5188-7.4974-1.6138a11.1279,11.1279,0,0,0-4.71,2.2935,19.2329,19.2329,0,0,0-6.294.5323c-5.7517,1.4063-9.8612,4.8091-9.1787,7.6s5.8985,3.914,11.65,2.5076c4.8349-1.1821,8.4968-3.7744,9.14-6.229.3242-.0553.6512-.1188.9827-.2C114.5988,154.9184,117.2434,152.7286,116.8042,150.9323Z" fill="#fff"/>
        </g>
      </g>
    </g>
  </g>
</svg>
