<svg xmlns="http://www.w3.org/2000/svg" width="190.62" height="165.58" viewBox="0 0 190.62 165.58">
  <g style="isolation: isolate">
    <g id="Layer_2" data-name="Layer 2">
      <g id="Layer_3" data-name="Layer 3">
        <g>
          <g>
            <path d="M174.35,82.79A82.7117,82.7117,0,1,1,117.96,4.3,82.81,82.81,0,0,1,174.35,82.79Z" fill="#64c8f4"/>
            <path d="M174.35,82.79a82.81,82.81,0,0,1-60.86,79.85c9.42-8.24,23.87-22.12,22.89-28.95-1.44-10.08-18.72-19.68-20.64-17.28s-8.64,1.44-10.08-2.4-1.92-14.4,0-16.8,12.23-7.68,12.23-7.68-37.06,6.24-28.49-2.4c8.58-8.64,15.78-9.12,20.1-15.36S89.29,61.21,88.12,55.45c-1.18-5.76-7.77-23.52,3.44-21.12,11.22,2.4,23.2,12.48,26.33,13.92s15.13-2.88,15.61-5.28,6.24-7.2-1.92-14.4-13.94-13.92-13.69-21.6c.03-.85.05-1.75.07-2.67A82.8245,82.8245,0,0,1,174.35,82.79Z" fill="#40b24b"/>
            <path d="M69.18,21.85S62.94,37.69,59.1,41.53,18.78,68.41,18.78,68.41l-4.32,32.64L9.55,94.14A82.9895,82.9895,0,0,1,31.51,25.8Z" fill="#40b24b"/>
            <path d="M74.78,163.88a82.8027,82.8027,0,0,1-53.93-38.04l3.69-10.39,19.89,14.4v11.52l24.75,9.12Z" fill="#40b24b"/>
            <path d="M174.35,82.79A82.7667,82.7667,0,0,1,23.68,130.16,82.3177,82.3177,0,0,0,58,146.12a83.5564,83.5564,0,0,0,16.78,1.7A82.8121,82.8121,0,0,0,142.71,17.69,82.6417,82.6417,0,0,1,174.35,82.79Z" fill="#52accc" opacity="0.78" style="mix-blend-mode: darken"/>
          </g>
          <path d="M172.38,39.37a21.7079,21.7079,0,0,0-2.3416.1405A20.1564,20.1564,0,0,0,132.06,48.93c0,.3384.0342.6682.0506,1.0025-.0171,0-.0335-.0025-.0506-.0025a10.08,10.08,0,1,0,0,20.16h40.32c10.0737,0,18.24-6.8769,18.24-15.36S182.4537,39.37,172.38,39.37Z" fill="#fff"/>
          <path d="M50.4,125.6554a21.71,21.71,0,0,0-2.3417.1405A20.1563,20.1563,0,0,0,10.08,135.2154c0,.3384.0341.6682.0506,1.0025-.0171,0-.0335-.0025-.0506-.0025a10.08,10.08,0,1,0,0,20.16H50.4c10.0737,0,18.24-6.8768,18.24-15.36S60.4737,125.6554,50.4,125.6554Z" fill="#fff"/>
        </g>
      </g>
    </g>
  </g>
</svg>
