<svg xmlns="http://www.w3.org/2000/svg" xmlns:xlink="http://www.w3.org/1999/xlink" width="1259.8929" height="846.544" viewBox="0 0 1259.8929 846.544">
  <defs>
    <linearGradient id="linear-gradient" x1="688.815" y1="639.3725" x2="715.0381" y2="639.3725" gradientTransform="translate(-68.6737 68.2024) rotate(-5.3186)" gradientUnits="userSpaceOnUse">
      <stop offset="0.2553" stop-color="#009848"/>
      <stop offset="0.7252" stop-color="#005c27"/>
    </linearGradient>
    <linearGradient id="linear-gradient-2" x1="724.4284" y1="674.2487" x2="799.1483" y2="717.9528" gradientTransform="matrix(-0.9957, 0.0927, 0.0927, 0.9957, 1499.9743, -77.8314)" gradientUnits="userSpaceOnUse">
      <stop offset="0" stop-color="#74584b"/>
      <stop offset="0.1373" stop-color="#674e42"/>
      <stop offset="0.3665" stop-color="#574137"/>
      <stop offset="0.548" stop-color="#523d33"/>
      <stop offset="0.8577" stop-color="#2a1f10"/>
    </linearGradient>
    <linearGradient id="linear-gradient-3" x1="772.5848" y1="647.8435" x2="799.9885" y2="663.872" gradientTransform="matrix(-0.9957, 0.0927, 0.0927, 0.9957, 1499.9743, -77.8314)" gradientUnits="userSpaceOnUse">
      <stop offset="0" stop-color="#74584b"/>
      <stop offset="0.2709" stop-color="#725649"/>
      <stop offset="0.3569" stop-color="#6e5347"/>
      <stop offset="0.6038" stop-color="#674e42"/>
      <stop offset="0.9497" stop-color="#554035"/>
      <stop offset="1" stop-color="#523d33"/>
    </linearGradient>
    <linearGradient id="linear-gradient-4" x1="811.5896" y1="734.886" x2="823.475" y2="741.8378" xlink:href="#linear-gradient-3"/>
    <linearGradient id="linear-gradient-5" x1="807.7065" y1="782.9374" x2="814.6789" y2="787.0155" xlink:href="#linear-gradient-3"/>
    <linearGradient id="linear-gradient-6" x1="721.7645" y1="653.7133" x2="740.5297" y2="664.6891" xlink:href="#linear-gradient-3"/>
    <linearGradient id="linear-gradient-7" x1="693.7625" y1="602.8231" x2="717.9537" y2="602.8231" gradientTransform="translate(-68.6737 68.2024) rotate(-5.3186)" gradientUnits="userSpaceOnUse">
      <stop offset="0" stop-color="#005c27"/>
      <stop offset="1" stop-color="#bf4d66"/>
    </linearGradient>
    <linearGradient id="linear-gradient-8" x1="689.5859" y1="640.16" x2="715.0445" y2="640.16" xlink:href="#linear-gradient-7"/>
    <linearGradient id="linear-gradient-9" x1="395.0233" y1="684.0942" x2="461.0138" y2="722.6924" gradientTransform="matrix(1, 0, 0, 1, 0, 0)" xlink:href="#linear-gradient-2"/>
    <linearGradient id="linear-gradient-10" x1="435.068" y1="656.4192" x2="460.3247" y2="671.1919" gradientTransform="matrix(1, 0, 0, 1, 0, 0)" xlink:href="#linear-gradient-3"/>
    <linearGradient id="linear-gradient-11" x1="472.3805" y1="739.4755" x2="481.6802" y2="744.915" gradientTransform="matrix(1, 0, 0, 1, 0, 0)" xlink:href="#linear-gradient-3"/>
    <linearGradient id="linear-gradient-12" x1="468.7697" y1="784.1676" x2="474.0887" y2="787.2787" gradientTransform="matrix(1, 0, 0, 1, 0, 0)" xlink:href="#linear-gradient-3"/>
    <linearGradient id="linear-gradient-13" x1="399.5603" y1="663.6434" x2="414.3396" y2="672.2879" gradientTransform="matrix(1, 0, 0, 1, 0, 0)" xlink:href="#linear-gradient-3"/>
    <linearGradient id="linear-gradient-14" x1="420.6059" y1="581.6503" x2="455.2923" y2="631.2024" gradientUnits="userSpaceOnUse">
      <stop offset="0.113" stop-color="#efdb83"/>
      <stop offset="0.613" stop-color="#009848"/>
      <stop offset="0.9171" stop-color="#005c27"/>
    </linearGradient>
    <linearGradient id="linear-gradient-15" x1="517.0369" y1="598.2743" x2="442.7846" y2="625.881" gradientTransform="matrix(-0.9935, 0.1135, 0.1135, 0.9935, 899.6395, -52.5591)" gradientUnits="userSpaceOnUse">
      <stop offset="0" stop-color="#009416"/>
      <stop offset="0.1458" stop-color="#22a025"/>
      <stop offset="0.3513" stop-color="#4bae37"/>
      <stop offset="0.5134" stop-color="#65b743"/>
      <stop offset="0.6106" stop-color="#6eba47"/>
      <stop offset="0.6479" stop-color="#6aa744"/>
      <stop offset="0.7635" stop-color="#60703d"/>
      <stop offset="0.8633" stop-color="#584838"/>
      <stop offset="0.9421" stop-color="#542f34"/>
      <stop offset="0.9902" stop-color="#522633"/>
    </linearGradient>
    <linearGradient id="linear-gradient-16" x1="730.0123" y1="272.0777" x2="770.1747" y2="272.0777" gradientUnits="userSpaceOnUse">
      <stop offset="0" stop-color="#45842e"/>
      <stop offset="1"/>
    </linearGradient>
    <linearGradient id="linear-gradient-17" x1="254.9287" y1="645.7824" x2="280.9311" y2="668.6998" gradientTransform="matrix(-1, 0, 0, 1, 592.1731, 0)" xlink:href="#linear-gradient-2"/>
    <clipPath id="clip-path" transform="translate(-33.6595)">
      <path d="M946.7686,453.86c-2.614.6407-7.6036,4.8345-7.6036,4.8345,1.4258,18.2273,19.9587,64.772,39.9168,69.6859s28.0365,52.0332,28.0365,71.3933S987.4772,643.05,994.4468,660.132c0,0,5.0684-18.2207,15.8395-31.8873s20.2752-54.5273,17.1071-68.8316-12.1968-35.5144-22.6509-44.4831c-5.4793-4.7-12.3274-4.1967-18.6243-3.6938-5.7176.4572-10.9817.9138-14.3536-2.5249-7.0869-7.2265-19.294-47.1644-17.8688-53.1431,0,0-3.4959-1.8193-6.1159-1.8193a4.289,4.289,0,0,0-1.0113.1107" fill="none"/>
    </clipPath>
    <linearGradient id="linear-gradient-18" x1="-441.4083" y1="961.9247" x2="-440.8067" y2="961.9247" gradientTransform="matrix(147.6833, 0, 0, -147.6833, 66094.129, 142617.1449)" gradientUnits="userSpaceOnUse">
      <stop offset="0" stop-color="#cda088"/>
      <stop offset="0.2302" stop-color="#a37e6c"/>
      <stop offset="0.4755" stop-color="#7d5f51"/>
      <stop offset="0.6041" stop-color="#6e5347"/>
      <stop offset="0.7561" stop-color="#674e42"/>
      <stop offset="0.9691" stop-color="#554035"/>
      <stop offset="1" stop-color="#523d33"/>
    </linearGradient>
    <clipPath id="clip-path-2" transform="translate(-33.6595)">
      <rect y="127.2442" width="1178.3688" height="662.8325" fill="none"/>
    </clipPath>
    <clipPath id="clip-path-6" transform="translate(-33.6595)">
      <rect x="365.1716" y="168.3644" width="46.03" height="27.2983" fill="none"/>
    </clipPath>
    <clipPath id="clip-path-16" transform="translate(-33.6595)">
      <rect x="513.8787" y="130.7732" width="43.5432" height="25.8197" fill="none"/>
    </clipPath>
    <clipPath id="clip-path-18" transform="translate(-33.6595)">
      <rect x="233.8326" y="477.6862" width="108.0171" height="179.2103" fill="none"/>
    </clipPath>
    <clipPath id="clip-path-19" transform="translate(-33.6595)">
      <rect x="788.6479" y="472.1626" width="120.9056" height="171.8455" fill="none"/>
    </clipPath>
    <linearGradient id="linear-gradient-19" x1="33.6595" y1="457.6978" x2="470.2578" y2="457.6978" gradientTransform="matrix(1, 0, 0, 1, 0, 0)" xlink:href="#linear-gradient-7"/>
    <radialGradient id="radial-gradient" cx="471.5524" cy="436" r="102.4196" gradientUnits="userSpaceOnUse">
      <stop offset="0" stop-color="#523d33"/>
      <stop offset="0.2224" stop-color="#454231"/>
      <stop offset="0.6302" stop-color="#244e2c"/>
      <stop offset="1" stop-color="#005c27"/>
    </radialGradient>
    <radialGradient id="radial-gradient-2" cx="761.0138" cy="436.9523" r="87.9657" xlink:href="#radial-gradient"/>
    <linearGradient id="linear-gradient-20" x1="238.0112" y1="178.5521" x2="284.2071" y2="178.5521" gradientTransform="translate(518.3082 -65.1139) rotate(58.7165)" gradientUnits="userSpaceOnUse">
      <stop offset="0" stop-color="#76ad5c"/>
      <stop offset="0.4223" stop-color="#75ab5c"/>
      <stop offset="0.6581" stop-color="#72a35c"/>
      <stop offset="0.8474" stop-color="#6d955b"/>
      <stop offset="1" stop-color="#67835a"/>
    </linearGradient>
    <linearGradient id="linear-gradient-21" x1="518.1348" y1="224.4546" x2="496.0532" y2="214.3327" gradientTransform="translate(102.212 -71.9396) rotate(12.7294)" xlink:href="#linear-gradient-20"/>
    <linearGradient id="linear-gradient-22" x1="531.2954" y1="266.6387" x2="567.1193" y2="266.6387" gradientTransform="translate(-48.8886 47.8633) rotate(-7.1721)" xlink:href="#linear-gradient-20"/>
    <clipPath id="clip-path-20" transform="translate(-33.6595)">
      <rect x="388.5696" y="333.4566" width="48.3441" height="44.5046" transform="translate(-130.2703 310.7364) rotate(-36.0209)" fill="none"/>
    </clipPath>
    <linearGradient id="linear-gradient-23" x1="448.0019" y1="246.9325" x2="494.7435" y2="246.9325" gradientTransform="translate(62.6445 -38.6468) rotate(7.7968)" xlink:href="#linear-gradient-20"/>
    <linearGradient id="linear-gradient-24" x1="39.2493" y1="243.5642" x2="64.2516" y2="243.5642" gradientTransform="matrix(-0.909, -0.4167, -0.4167, 0.909, 701.3137, 75.7441)" xlink:href="#linear-gradient-20"/>
    <linearGradient id="linear-gradient-25" x1="832.5158" y1="407.4208" x2="777.8306" y2="503.0186" gradientTransform="translate(-224.8021 352.0606) rotate(-29.837)" gradientUnits="userSpaceOnUse">
      <stop offset="0" stop-color="#d5a8a2"/>
      <stop offset="0.0463" stop-color="#d5a8a2"/>
      <stop offset="0.0763" stop-color="#d9afaa"/>
      <stop offset="0.1984" stop-color="#e6c7c3"/>
      <stop offset="0.3338" stop-color="#f0d9d7"/>
      <stop offset="0.4878" stop-color="#f7e6e5"/>
      <stop offset="0.6766" stop-color="#fbeeee"/>
      <stop offset="1" stop-color="#fcf0f0"/>
    </linearGradient>
    <linearGradient id="linear-gradient-26" x1="858.4778" y1="422.27" x2="807.922" y2="510.649" gradientTransform="translate(-224.8021 352.0606) rotate(-29.837)" gradientUnits="userSpaceOnUse">
      <stop offset="0" stop-color="#ba7e74"/>
      <stop offset="0.0179" stop-color="#bc8279"/>
      <stop offset="0.1217" stop-color="#c49690"/>
      <stop offset="0.2414" stop-color="#cba6a2"/>
      <stop offset="0.3845" stop-color="#d0b1af"/>
      <stop offset="0.5744" stop-color="#d2b7b6"/>
      <stop offset="1" stop-color="#d3b9b8"/>
    </linearGradient>
    <linearGradient id="linear-gradient-27" x1="548.0665" y1="377.1772" x2="593.3201" y2="377.1772" gradientTransform="matrix(1, 0, 0, 1, 0, 0)" xlink:href="#linear-gradient"/>
    <linearGradient id="linear-gradient-28" x1="590.8391" y1="377.4175" x2="647.4973" y2="377.4175" gradientTransform="matrix(1, 0, 0, 1, 0, 0)" xlink:href="#linear-gradient"/>
    <linearGradient id="linear-gradient-29" x1="1004.9225" y1="595.9169" x2="830.077" y2="371.4962" gradientTransform="matrix(1, 0, 0, 1, 0, 0)" xlink:href="#linear-gradient-7"/>
    <linearGradient id="linear-gradient-30" x1="870.0251" y1="774.0629" x2="918.688" y2="687.2332" gradientTransform="matrix(1, 0, 0, 1, 0, 0)" xlink:href="#linear-gradient-2"/>
    <linearGradient id="linear-gradient-31" x1="920.1369" y1="644.4368" x2="956.3071" y2="644.4368" gradientTransform="matrix(1, 0, 0, 1, 0, 0)" xlink:href="#linear-gradient-3"/>
    <linearGradient id="linear-gradient-32" x1="854.36" y1="707.6037" x2="892.4469" y2="707.6037" gradientTransform="matrix(1, 0, 0, 1, 0, 0)" xlink:href="#linear-gradient-3"/>
    <linearGradient id="linear-gradient-33" x1="199.4154" y1="543.2709" x2="228.9154" y2="569.2709" gradientTransform="matrix(1, 0, 0, 1, 0, 0)" xlink:href="#linear-gradient-2"/>
    <linearGradient id="linear-gradient-34" x1="145.8985" y1="628.2336" x2="235.3985" y2="657.2336" gradientTransform="matrix(1, 0, 0, 1, 0, 0)" xlink:href="#linear-gradient-2"/>
    <linearGradient id="linear-gradient-35" x1="203.0228" y1="517.9715" x2="279.0228" y2="501.3048" xlink:href="#linear-gradient-14"/>
    <linearGradient id="linear-gradient-36" x1="232.7572" y1="533.6973" x2="308.7572" y2="517.0306" gradientTransform="translate(760.8364 196.4946) rotate(84.834)" xlink:href="#linear-gradient-14"/>
    <linearGradient id="linear-gradient-37" x1="323.6611" y1="864.6655" x2="366.6458" y2="855.2391" gradientTransform="matrix(-0.2512, -0.9679, -0.9679, 0.2512, 1393.844, 886.6075)" xlink:href="#linear-gradient-14"/>
    <radialGradient id="radial-gradient-3" cx="261.5597" cy="512.1175" r="11.5845" xlink:href="#radial-gradient"/>
    <radialGradient id="radial-gradient-4" cx="239.792" cy="509.9456" r="11.6466" xlink:href="#radial-gradient"/>
    <linearGradient id="linear-gradient-38" x1="1067.4717" y1="553.7693" x2="1094.1135" y2="553.7693" gradientTransform="matrix(1, 0, 0, 1, 0, 0)" xlink:href="#linear-gradient-2"/>
    <linearGradient id="linear-gradient-39" x1="1105.2169" y1="559.837" x2="1074.4672" y2="553.6307" gradientTransform="matrix(1, 0, 0, 1, 0, 0)" xlink:href="#linear-gradient-2"/>
    <linearGradient id="linear-gradient-40" x1="1134.1823" y1="534.7367" x2="1052.3211" y2="507.2736" gradientUnits="userSpaceOnUse">
      <stop offset="0" stop-color="#74504b"/>
      <stop offset="0.0974" stop-color="#726e4a"/>
      <stop offset="0.2525" stop-color="#709748"/>
      <stop offset="0.3747" stop-color="#6fb147"/>
      <stop offset="0.448" stop-color="#6eba47"/>
      <stop offset="0.5012" stop-color="#6aa744"/>
      <stop offset="0.6664" stop-color="#60703d"/>
      <stop offset="0.8089" stop-color="#584838"/>
      <stop offset="0.9215" stop-color="#542f34"/>
      <stop offset="0.9902" stop-color="#522633"/>
    </linearGradient>
    <linearGradient id="linear-gradient-41" x1="1086.4297" y1="509.2058" x2="1053.423" y2="521.4775" gradientTransform="matrix(1, 0, 0, 1, 0, 0)" xlink:href="#linear-gradient-15"/>
    <linearGradient id="linear-gradient-42" x1="1074.1581" y1="512.0945" x2="1080.6721" y2="512.0945" gradientTransform="matrix(1, 0, 0, 1, 0, 0)" xlink:href="#linear-gradient-7"/>
    <linearGradient id="linear-gradient-43" x1="1080.6721" y1="521.4417" x2="1099.8502" y2="521.4417" gradientTransform="matrix(1, 0, 0, 1, 0, 0)" xlink:href="#linear-gradient-7"/>
    <linearGradient id="linear-gradient-44" x1="1058.7362" y1="562.7246" x2="1008.9155" y2="546.0106" xlink:href="#linear-gradient-40"/>
    <linearGradient id="linear-gradient-45" x1="1029.674" y1="547.1865" x2="1009.5862" y2="554.655" gradientTransform="matrix(1, 0, 0, 1, 0, 0)" xlink:href="#linear-gradient-15"/>
    <linearGradient id="linear-gradient-46" x1="1022.2056" y1="548.9445" x2="1026.17" y2="548.9445" gradientTransform="matrix(1, 0, 0, 1, 0, 0)" xlink:href="#linear-gradient-7"/>
    <linearGradient id="linear-gradient-47" x1="1026.17" y1="554.6333" x2="1037.8417" y2="554.6333" gradientTransform="matrix(1, 0, 0, 1, 0, 0)" xlink:href="#linear-gradient-7"/>
    <linearGradient id="linear-gradient-48" x1="125.7986" y1="206.6449" x2="206.2986" y2="244.1449" gradientUnits="userSpaceOnUse">
      <stop offset="0.113" stop-color="#efdb83"/>
      <stop offset="0.1554" stop-color="#d7cf77"/>
      <stop offset="0.3039" stop-color="#89a750"/>
      <stop offset="0.4096" stop-color="#588e37"/>
      <stop offset="0.4618" stop-color="#45842e"/>
      <stop offset="0.5915" stop-color="#36884d"/>
      <stop offset="0.8729" stop-color="#12919a"/>
      <stop offset="1" stop-color="#0095bf"/>
    </linearGradient>
    <linearGradient id="linear-gradient-49" x1="-12.2163" y1="173.7386" x2="191.7837" y2="277.7386" xlink:href="#linear-gradient-48"/>
    <linearGradient id="linear-gradient-50" x1="102.3768" y1="321.4663" x2="270.3768" y2="395.4663" xlink:href="#linear-gradient-48"/>
    <linearGradient id="linear-gradient-51" x1="120.3312" y1="362.2624" x2="166.5919" y2="362.2624" xlink:href="#linear-gradient-16"/>
    <linearGradient id="linear-gradient-52" x1="318.5556" y1="156.3894" x2="367.3933" y2="156.3894" xlink:href="#linear-gradient-16"/>
    <linearGradient id="linear-gradient-53" x1="193.8656" y1="113.762" x2="361.8656" y2="187.762" xlink:href="#linear-gradient-48"/>
    <linearGradient id="linear-gradient-54" x1="287.267" y1="219.6445" x2="437.767" y2="278.1445" xlink:href="#linear-gradient-48"/>
    <linearGradient id="linear-gradient-55" x1="213.8024" y1="309.4362" x2="267.1525" y2="309.4362" xlink:href="#linear-gradient-16"/>
    <linearGradient id="linear-gradient-56" x1="309.2518" y1="328.8286" x2="346.5018" y2="352.8286" xlink:href="#linear-gradient-16"/>
    <linearGradient id="linear-gradient-57" x1="952.0145" y1="266.6334" x2="990.6771" y2="266.6334" xlink:href="#linear-gradient-16"/>
    <linearGradient id="linear-gradient-58" x1="884.4653" y1="318.4281" x2="952.4653" y2="282.4281" gradientUnits="userSpaceOnUse">
      <stop offset="0" stop-color="#45842e"/>
      <stop offset="0.3559" stop-color="#448430"/>
      <stop offset="0.5134" stop-color="#418537"/>
      <stop offset="0.6318" stop-color="#3b8744"/>
      <stop offset="0.7307" stop-color="#328956"/>
      <stop offset="0.8173" stop-color="#278b6d"/>
      <stop offset="0.8954" stop-color="#198f8a"/>
      <stop offset="0.9654" stop-color="#0993ab"/>
      <stop offset="1" stop-color="#0095bf"/>
    </linearGradient>
    <linearGradient id="linear-gradient-59" x1="957.9366" y1="332.3355" x2="1003.9366" y2="329.3355" xlink:href="#linear-gradient-58"/>
    <linearGradient id="linear-gradient-60" x1="986.426" y1="392.0351" x2="1011.3816" y2="392.0351" xlink:href="#linear-gradient-16"/>
    <linearGradient id="linear-gradient-61" x1="948.5524" y1="388.289" x2="981.3037" y2="388.289" xlink:href="#linear-gradient-16"/>
    <linearGradient id="linear-gradient-62" x1="743.1974" y1="175.6179" x2="769.0756" y2="175.6179" xlink:href="#linear-gradient-58"/>
    <linearGradient id="linear-gradient-63" x1="741.0181" y1="210.3887" x2="886.0181" y2="381.3887" xlink:href="#linear-gradient-48"/>
    <linearGradient id="linear-gradient-64" x1="971.0524" y1="458.478" x2="1016.0524" y2="458.478" gradientUnits="userSpaceOnUse">
      <stop offset="0" stop-color="#51342d"/>
      <stop offset="1"/>
    </linearGradient>
    <linearGradient id="linear-gradient-65" x1="146.2756" y1="445.5327" x2="213.8387" y2="445.5327" xlink:href="#linear-gradient-64"/>
    <linearGradient id="linear-gradient-66" x1="266.0628" y1="457.6842" x2="345.0463" y2="457.6842" xlink:href="#linear-gradient-64"/>
    <linearGradient id="linear-gradient-67" x1="493.3521" y1="669.6425" x2="564.3521" y2="646.6425" gradientUnits="userSpaceOnUse">
      <stop offset="0" stop-color="#fdb740"/>
      <stop offset="0.1036" stop-color="#fbbc49"/>
      <stop offset="0.2761" stop-color="#f6ca63"/>
      <stop offset="0.4488" stop-color="#efdb83"/>
      <stop offset="0.5359" stop-color="#ebd37e"/>
      <stop offset="0.6742" stop-color="#e1bc71"/>
      <stop offset="0.8452" stop-color="#d1975b"/>
      <stop offset="0.9585" stop-color="#c47a4a"/>
    </linearGradient>
    <linearGradient id="linear-gradient-68" x1="514.2773" y1="629.473" x2="604.5286" y2="629.473" gradientTransform="matrix(1, 0, 0, 1, 0, 0)" xlink:href="#linear-gradient-2"/>
    <linearGradient id="linear-gradient-69" x1="559.9192" y1="652.3257" x2="660.5811" y2="652.3257" gradientTransform="matrix(1, 0, 0, 1, 0, 0)" xlink:href="#linear-gradient-2"/>
    <linearGradient id="linear-gradient-70" x1="554.4164" y1="646.7616" x2="642.4164" y2="554.7616" xlink:href="#linear-gradient-67"/>
    <linearGradient id="linear-gradient-71" x1="303.4826" y1="612.8657" x2="364.4826" y2="582.8657" xlink:href="#linear-gradient-67"/>
    <linearGradient id="linear-gradient-72" x1="403.1253" y1="641.8922" x2="437.1253" y2="436.8922" xlink:href="#linear-gradient-67"/>
    <linearGradient id="linear-gradient-73" x1="326.4368" y1="645.8622" x2="332.9735" y2="645.8622" gradientTransform="matrix(1, 0, 0, 1, 0, 0)" xlink:href="#linear-gradient-2"/>
    <linearGradient id="linear-gradient-74" x1="326.4368" y1="562.2731" x2="332.4873" y2="562.2731" gradientTransform="matrix(1, 0, 0, 1, 0, 0)" xlink:href="#linear-gradient-2"/>
    <linearGradient id="linear-gradient-75" x1="420.8147" y1="600.5911" x2="429.0802" y2="600.5911" gradientTransform="matrix(1, 0, 0, 1, 0, 0)" xlink:href="#linear-gradient-2"/>
    <linearGradient id="linear-gradient-76" x1="663.506" y1="616.8527" x2="706.1693" y2="616.8527" gradientTransform="matrix(1, 0, 0, 1, 0, 0)" xlink:href="#linear-gradient-2"/>
    <linearGradient id="linear-gradient-77" x1="705.5271" y1="673.3193" x2="776.5271" y2="616.3193" xlink:href="#linear-gradient-67"/>
    <linearGradient id="linear-gradient-78" x1="653.7999" y1="530.6383" x2="709.7999" y2="593.6383" xlink:href="#linear-gradient-67"/>
    <linearGradient id="linear-gradient-79" x1="663.506" y1="592.2242" x2="697.9271" y2="592.2242" gradientTransform="matrix(1, 0, 0, 1, 0, 0)" xlink:href="#linear-gradient-2"/>
    <linearGradient id="linear-gradient-80" x1="768.929" y1="564.8785" x2="765.929" y2="530.8785" xlink:href="#linear-gradient-67"/>
    <linearGradient id="linear-gradient-81" x1="687.9912" y1="655.8736" x2="738.1204" y2="655.8736" gradientTransform="matrix(0.9883, -0.1524, 0.1524, 0.9883, -82.3266, 123.5542)" xlink:href="#linear-gradient-3"/>
    <linearGradient id="linear-gradient-82" x1="122.4007" y1="527.0741" x2="108.7821" y2="567.9299" gradientTransform="matrix(1, 0, 0, 1, 0, 0)" xlink:href="#linear-gradient-3"/>
    <linearGradient id="linear-gradient-83" x1="91.8994" y1="556.6026" x2="132.2507" y2="540.9665" gradientTransform="matrix(1, 0, 0, 1, 0, 0)" xlink:href="#linear-gradient-2"/>
    <linearGradient id="linear-gradient-84" x1="288.7838" y1="210.3916" x2="331.7684" y2="200.9651" gradientTransform="matrix(-0.09, 0.9959, 0.9959, 0.09, -67.3983, 196.4946)" xlink:href="#linear-gradient-14"/>
    <linearGradient id="linear-gradient-85" x1="102.8623" y1="523.0491" x2="116.8273" y2="523.0491" xlink:href="#linear-gradient-14"/>
    <linearGradient id="linear-gradient-86" x1="111.3723" y1="534.8712" x2="135.3723" y2="514.5379" gradientUnits="userSpaceOnUse">
      <stop offset="0.2" stop-color="#009848"/>
      <stop offset="0.5041" stop-color="#005c27"/>
      <stop offset="0.9585" stop-color="#483735"/>
    </linearGradient>
    <linearGradient id="linear-gradient-87" x1="116.6336" y1="520.3268" x2="143.2721" y2="520.3268" xlink:href="#linear-gradient-14"/>
    <radialGradient id="radial-gradient-5" cx="603.4346" cy="470.618" r="14.5666" xlink:href="#radial-gradient"/>
    <radialGradient id="radial-gradient-6" cx="821.2971" cy="443.8734" r="10.2425" xlink:href="#radial-gradient"/>
    <radialGradient id="radial-gradient-7" cx="485.0074" cy="467.9776" r="9.2847" xlink:href="#radial-gradient"/>
    <linearGradient id="linear-gradient-88" x1="480.429" y1="568.0459" x2="556.3041" y2="658.0708" gradientTransform="matrix(1, 0, 0, 1, 0, 0)" xlink:href="#linear-gradient-2"/>
    <linearGradient id="linear-gradient-89" x1="469.8939" y1="640.525" x2="513.3283" y2="615.8906" gradientTransform="matrix(1, 0, 0, 1, 0, 0)" xlink:href="#linear-gradient-3"/>
    <linearGradient id="linear-gradient-90" x1="515.7271" y1="730.2739" x2="569.0649" y2="700.0226" gradientTransform="translate(-181.4759 238.1929) rotate(-20.069)" xlink:href="#linear-gradient-3"/>
    <linearGradient id="linear-gradient-91" x1="560.828" y1="738.7628" x2="594.8945" y2="698.6931" gradientTransform="matrix(1, 0, 0, 1, 0, 0)" xlink:href="#linear-gradient-2"/>
    <linearGradient id="linear-gradient-92" x1="420.7868" y1="675.7692" x2="476.5185" y2="663.5474" gradientTransform="matrix(-0.749, -0.6625, -0.6625, 0.749, 1300.8042, 352.5036)" xlink:href="#linear-gradient-14"/>
    <linearGradient id="linear-gradient-93" x1="320.6667" y1="579.702" x2="376.3984" y2="567.4801" gradientTransform="translate(30.4599 74.6542) rotate(-13.3401)" xlink:href="#linear-gradient-14"/>
    <linearGradient id="linear-gradient-94" x1="251.6589" y1="712.1064" x2="307.3906" y2="699.8845" gradientTransform="matrix(-0.749, -0.6625, -0.6625, 0.749, 1300.8042, 352.5036)" xlink:href="#linear-gradient-86"/>
    <linearGradient id="linear-gradient-95" x1="334.8298" y1="562.1674" x2="400.846" y2="562.1674" gradientTransform="matrix(0.951, 0.3091, -0.3638, 1.1191, 219.5992, -196.3853)" xlink:href="#linear-gradient-2"/>
    <linearGradient id="linear-gradient-96" x1="312.3992" y1="604.5685" x2="393.8185" y2="535.5881" gradientTransform="matrix(1, 0, 0, 1, 0, 0)" xlink:href="#linear-gradient-3"/>
    <linearGradient id="linear-gradient-97" x1="378.2842" y1="439.9246" x2="405.5892" y2="478.9317" gradientTransform="matrix(-0.2568, 0.9665, 0.9665, 0.2568, 32.2115, -9.8592)" xlink:href="#linear-gradient-14"/>
    <linearGradient id="linear-gradient-98" x1="549.571" y1="447.8624" x2="491.1201" y2="469.5942" gradientTransform="matrix(0.3649, -0.931, 0.931, 0.3649, -249.6533, 846.0998)" xlink:href="#linear-gradient-15"/>
    <linearGradient id="linear-gradient-99" x1="778.8916" y1="546.019" x2="838.4134" y2="546.019" gradientTransform="matrix(0.9883, -0.1524, 0.1524, 0.9883, -82.3266, 123.5542)" xlink:href="#linear-gradient-3"/>
    <linearGradient id="linear-gradient-100" x1="778.6044" y1="550.762" x2="820.779" y2="550.762" gradientTransform="matrix(0.9883, -0.1524, 0.1524, 0.9883, -82.3266, 123.5542)" xlink:href="#linear-gradient-2"/>
    <linearGradient id="linear-gradient-101" x1="909.8776" y1="538.482" x2="770.7104" y2="491.7937" gradientTransform="matrix(0.6185, 0.7858, -0.7858, 0.6185, 729.2831, -405.3364)" xlink:href="#linear-gradient-40"/>
    <linearGradient id="linear-gradient-102" x1="828.6963" y1="495.0785" x2="772.5838" y2="515.9408" gradientTransform="matrix(0.6185, 0.7858, -0.7858, 0.6185, 729.2831, -405.3364)" xlink:href="#linear-gradient-15"/>
    <linearGradient id="linear-gradient-103" x1="818.9083" y1="515.88" x2="851.5117" y2="515.88" gradientTransform="matrix(0.6185, 0.7858, -0.7858, 0.6185, 729.2831, -405.3364)" xlink:href="#linear-gradient-7"/>
    <linearGradient id="linear-gradient-104" x1="677.593" y1="651.697" x2="730.7515" y2="662.9338" gradientTransform="matrix(0.9883, -0.1524, 0.1524, 0.9883, -82.3266, 123.5542)" xlink:href="#linear-gradient-2"/>
    <linearGradient id="linear-gradient-105" x1="208.965" y1="564.9258" x2="264.6967" y2="552.7039" gradientTransform="matrix(-0.4078, -0.9131, -0.9131, 0.4078, 1361.5514, 638.2835)" xlink:href="#linear-gradient-14"/>
    <linearGradient id="linear-gradient-106" x1="527.3848" y1="640.8074" x2="583.1165" y2="628.5856" gradientTransform="translate(396.8398 -131.5053) rotate(17.0222)" xlink:href="#linear-gradient-14"/>
    <linearGradient id="linear-gradient-107" x1="376.5929" y1="762.5646" x2="327.7556" y2="780.7221" gradientTransform="matrix(0.0187, 0.9998, 0.9998, -0.0187, -84.8576, 307.4717)" xlink:href="#linear-gradient-15"/>
    <linearGradient id="linear-gradient-108" x1="874.1094" y1="667.7521" x2="818.1094" y2="640.7521" xlink:href="#linear-gradient-67"/>
  </defs>
  <g id="Layer_2" data-name="Layer 2">
    <g id="Layer_4" data-name="Layer 4">
      <g>
        <path d="M675.7666,580.3446s-13.489,41.1242,25.2642,45.6152C701.0308,625.96,709.6742,592.2091,675.7666,580.3446Z" transform="translate(-33.6595)" fill="#006837"/>
        <path d="M678.5226,655.006s-9.7966-23.3359,22.136-30.5146C700.6586,624.4914,709.7308,650.3518,678.5226,655.006Z" transform="translate(-33.6595)" fill="url(#linear-gradient)"/>
        <path d="M746.2132,597.2143s-39.564-7.9174-45.9914,27.4376c-1.5157,8.3378,40.2933,38.484,46.9629,44.838,19.0889,18.1858,42.3526,31.9954,39.2956,58.3363a10.083,10.083,0,0,1-1.7169,5.1465c-1.7308,2.2751-4.926,3.5083-7.8905,4.696-2.3568.9442-4.7615,1.9746-7.1867,3.0852-32.2093,14.75-68.0436,43.6448-43.42,72.618,36.9891,43.5236,75.4169,25.041,75.4169,25.041s-56.75,6.7863-67.3182-37.4138c-3.0914-12.9289,1.3124-25.7014,14.321-34.6354,13.0061-8.9322,29.1154-11.9542,45.129-14.9139,14.416-2.6644,23.0158-15.9684,25.6019-26.7572,4.3653-18.2115-3.2058-37.0224-12.1636-53.106C792.0889,644.36,769.6617,619.9841,746.2132,597.2143Z" transform="translate(-33.6595)" fill="url(#linear-gradient-2)"/>
        <path d="M746.2132,597.2143s-43.8021,29.3956,31.5946,88.2191c0,0,38.61,27.65,4.6194,49.62,0,0,17.7243-20.0993-20.73-52.5776,0,0-61.5989-48.7816-61.0427-55.4217C700.6544,627.0538,697.4609,596.2309,746.2132,597.2143Z" transform="translate(-33.6595)" fill="url(#linear-gradient-3)"/>
        <path d="M728.247,734.66s20.5787-8.5144,26.0575-2.4258a109.89,109.89,0,0,1,9.64,11.2859l-5.8525,3.1084L749.3,733.56S744.361,730.5774,728.247,734.66Z" transform="translate(-33.6595)" fill="url(#linear-gradient-4)"/>
        <path d="M748.6854,766.3637s29.2324,10.7227,20.5424,33.91c0,0,.7507-30.256-26.0142-29.4547Z" transform="translate(-33.6595)" fill="url(#linear-gradient-5)"/>
        <path d="M783.3492,636.9557,797.21,655.4119s24.5536-23.56,57.6773,20.2637c0,0-9.7168-27.4981-37.6073-39.103C817.28,636.5726,793.475,631.9463,783.3492,636.9557Z" transform="translate(-33.6595)" fill="url(#linear-gradient-6)"/>
        <path d="M774.7027,626.79s-43.7845,1.7562-46.7866,27.2826l10.1372,9.1444s21.9852-30.31,45.2959-26.2614Z" transform="translate(-33.6595)" fill="#b97362"/>
        <path d="M797.21,655.4119s-28.0515-4.7131-43.4138,20.7269l4.189,3.3737s-1.8985-17.4172,41.8724-20.1425Z" transform="translate(-33.6595)" fill="#ac604f"/>
        <path d="M791.6643,751.85s1.4784-15.7155-17.729-12.9687l-4.2491,1.8726s14.6745,4.1725,11.6741,12.0554Z" transform="translate(-33.6595)" fill="#ac604f"/>
        <path d="M675.7666,580.3446s35.4364,5.3031,25.2642,45.6152Z" transform="translate(-33.6595)" fill="url(#linear-gradient-7)"/>
        <path d="M678.5226,655.006s29.1136.2189,22.5082-29.0462Z" transform="translate(-33.6595)" fill="url(#linear-gradient-8)"/>
      </g>
      <g>
        <g>
          <path d="M473.2288,612.9969s31.3565-10.8977,39.2053,21.7531c1.851,7.7-29.6473,39.6762-34.5559,46.2285-14.0489,18.7534-31.7983,33.7609-27.3491,58.2385a10.3344,10.3344,0,0,0,1.7735,4.6846c1.5688,1.9858,4.242,2.8649,6.7254,3.7213,1.9743.6809,3.9938,1.4386,6.0359,2.27,27.121,11.0391,58.2331,35.05,40.5259,64.421-26.6,44.1215-59.0237,30.1194-59.0237,30.1194s46.3409,1.4121,51.553-41.0343c1.5246-12.4159-2.9922-24.0294-14.17-31.2845-11.1753-7.2536-24.4122-8.6837-37.5673-10.0636-11.8427-1.2422-19.788-12.988-22.6877-22.897-4.8946-16.7263-.1945-35.06,5.8306-50.9522C439.7243,661.2985,456.0038,636.4379,473.2288,612.9969Z" transform="translate(-33.6595)" fill="url(#linear-gradient-9)"/>
          <path d="M473.2288,612.9969s37.5844,23.7839-18.8831,85.6373c0,0-29.1025,29.3514,0,47.0174,0,0-15.8252-17.3315,12.7886-51.2051,0,0,46.0795-51.2132,45.1311-57.4023C512.2654,637.0442,512.527,607.81,473.2288,612.9969Z" transform="translate(-33.6595)" fill="url(#linear-gradient-10)"/>
          <path d="M498.0719,740.5436s-17.26-6.1988-21.2264,0a104.9083,104.9083,0,0,0-6.9365,11.4453l4.96,2.4082,6.1177-13.0449S484.7513,738.118,498.0719,740.5436Z" transform="translate(-33.6595)" fill="url(#linear-gradient-11)"/>
          <path d="M483.95,772.1143s-22.8018,12.63-14.0405,33.6517c0,0-2.881-28.3573,18.7944-29.9452Z" transform="translate(-33.6595)" fill="url(#linear-gradient-12)"/>
          <path d="M446.2258,653.5783l-9.8066,18.55s-21.6008-19.9853-45.0565,24.08c0,0,5.78-26.6819,27.4316-40.0228C418.7943,656.1858,437.6716,649.7579,446.2258,653.5783Z" transform="translate(-33.6595)" fill="url(#linear-gradient-13)"/>
          <path d="M452.4444,643.2724S487.9367,641.093,492.28,664.81l-7.4992,9.477s-20.034-26.5506-38.5553-20.7089Z" transform="translate(-33.6595)" fill="#b97362"/>
          <path d="M483.4645,652.3657s-1.1524,12.5208-5.7244,14.1l7.041,7.8218,7.4992-9.477S490.865,653.9359,483.4645,652.3657Z" transform="translate(-33.6595)" fill="#ac604f"/>
          <path d="M448.1487,762.2387s-2.3755-14.6341,13.3429-13.7335l3.5723,1.3875s-11.5373,5.2031-8.5216,12.346Z" transform="translate(-33.6595)" fill="#ac604f"/>
        </g>
        <path d="M441.38,664.1414s20.3459-5.6786,33.41,12.9361l-2.8551,2.9179s.2041-13.64-32.2347-12.5941Z" transform="translate(-33.6595)" fill="#ac604f"/>
        <path d="M425.2163,620.2877s28.7937-18.7211,45.63,1.0835C470.8462,621.3712,454.2409,645.8776,425.2163,620.2877Z" transform="translate(-33.6595)" fill="url(#linear-gradient-14)"/>
        <path d="M474.2135,587.4539S453.448,602.133,469.71,622.5748C469.71,622.5748,494.3476,610.2929,474.2135,587.4539Z" transform="translate(-33.6595)" fill="url(#linear-gradient-15)"/>
      </g>
      <g opacity="0.33">
        <image width="1013" height="351" transform="translate(0.8929 91)" xlink:href="idea1.png"/>
      </g>
      <path d="M770.1747,288.1864s-1.5341-27.6738-40.1624-33.653C730.0123,254.5334,733.084,297.9707,770.1747,288.1864Z" transform="translate(-33.6595)" fill="url(#linear-gradient-16)"/>
      <path d="M749.5416,190.3333s45.181,115.7872,23.3312,248.7486" transform="translate(-33.6595)" fill="none" stroke="#2b723b" stroke-miterlimit="10" stroke-width="7"/>
      <path d="M291.9185,625.4076s-12.4907-1.5438-12.5674,10.061c-.0083,1.2557,4.0035,4.7295,4.7758,5.6452q5.6031,6.6437,11.1323,13.35c6.5617,7.9793,15.7136,15.0785,18.0773,25.6484.7708,3.45-2.8578,3.7477-5.5323,4.0118L292.1,685.675c-5.6178.5548-11.3873,1.1527-16.4129,3.7238-13.8469,7.0842-11.7655,29.272-5.5407,40.9176,4.9392,9.2395,13.6811,15.4805,17.0333,25.8064.4851-9.2955-4.3027-16.1347-7.8512-24.1743a43.3844,43.3844,0,0,1-2.8767-25.8575c1.2434-6.19,4.9568-9.2444,11.0527-10.3327,10.41-1.8584,20.8148-3.7232,31.241-5.4882a14.5348,14.5348,0,0,0,4.3366-1.2078c5.1459-2.677,3.9906-9.3089,2.4591-13.9192a67.9812,67.9812,0,0,0-6.3887-12.8828C319.1513,662.2584,299.5228,629.1705,291.9185,625.4076Z" transform="translate(-33.6595)" fill="url(#linear-gradient-17)"/>
      <path d="M282.3353,627.9626s-4.9569,5.1936-2.9843,7.5148l32.169,40.4112s7.219,9.9546-15.274,9.6052c-7.5191-.1168-15.2858.0733-21.8413,4.3469-12.73,8.2989-10.18,31.4476-3.2478,42.76,4.9119,8.0158,12.7635,13.5371,16.0474,22.6634a11.9609,11.9609,0,0,0-1.12-4.954c-4.5427-11.4764-15.6029-19.0862-16.7373-31.71-.7714-8.5844.7674-18.3334,7.6438-23.53,8.5684-6.4751,20.9633-2.9672,31.2033-6.2053,12.8173-4.0531,8.968-14.9393,2.2136-22.5887Z" transform="translate(-33.6595)" fill="#483735"/>
      <g clip-path="url(#clip-path)">
        <rect x="905.5055" y="453.7489" width="91.3965" height="206.3831" fill="url(#linear-gradient-18)"/>
      </g>
      <g clip-path="url(#clip-path-2)">
        <polygon points="1100.996 464.918 978.665 479.618 904.586 484.202 752.152 471.901 497.381 484.382 384.773 484.774 120.417 470.787 80.971 465.933 20.559 458.5 2.735 452.17 0 449.012 0.278 448.986 2.171 448.818 137.358 436.791 319.522 430.078 315.057 425.798 841.046 429.456 1106.951 459.125 1100.996 464.918" fill="#48a061"/>
        <polygon points="177.619 526.356 379.241 526.353 501.578 518.947 587.82 528.291 495.584 536.879 382.989 539.53 177.619 526.356" fill="#eab5c3"/>
        <g clip-path="url(#clip-path-2)">
          <polygon points="0.257 453.977 29.141 505.954 60.314 522.199 92.392 527.628 120.728 521.651 125.82 502.907 23.161 470.813 5.27 454.472 0.257 453.977" fill="#bd6076"/>
          <polygon points="120.728 521.651 132.03 543.753 131.742 549.446 225.457 583.916 383.221 590.104 406.957 598.688 428.344 618.663 587.599 600.705 551.967 532.983 503.319 540.289 427.23 533.39 393.477 534.773 125.82 502.907 120.728 521.651" fill="#7a4643"/>
          <polygon points="131.742 549.446 130.757 569.201 195.207 607.966 380.463 613.132 406.957 598.687 383.22 590.104 225.456 583.916 131.742 549.446" fill="#b65069"/>
          <polygon points="130.757 569.201 244.43 664.919 277.501 646.782 380.463 613.131 195.208 607.965 130.757 569.201" fill="#7a4643"/>
          <polygon points="244.431 664.919 277.502 646.782 380.463 613.131 406.957 598.688 387.645 615.697 307.709 648.186 283.382 664.214 244.431 664.919" fill="#b65069"/>
          <polygon points="427.229 533.39 503.319 540.289 551.967 532.983 758.273 486.518 506.082 530.157 427.229 533.39" fill="#7b486f"/>
          <polygon points="551.967 532.983 587.599 600.705 697.48 587.242 758.273 486.518 551.967 532.983" fill="#542940"/>
          <polygon points="587.599 600.704 508.34 612.202 428.344 618.663 344.232 681.293 349.808 684.931 407.407 682.251 427.155 685.228 527.767 657.736 697.48 587.242 587.599 600.704" fill="#c46f80"/>
          <polygon points="349.808 684.932 393.262 715.596 488.514 759.006 514.608 759.755 535.215 736.234 527.768 657.736 427.155 685.227 407.407 682.251 349.808 684.932" fill="#7a4643"/>
          <polygon points="527.768 657.736 697.48 587.242 704.045 695.185 535.215 736.234 527.768 657.736" fill="#5e3150"/>
          <polygon points="704.045 695.185 529.065 762.064 488.514 759.006 514.608 759.755 535.215 736.234 704.045 695.185" fill="#492036"/>
          <polygon points="758.273 486.518 697.479 587.242 702.587 671.205 764.59 654.359 875.959 587.511 913.551 517.022 758.273 486.518" fill="#c46f80"/>
          <polygon points="702.587 671.205 764.59 654.359 877.407 584.797 968.832 550.069 1012.199 545.84 982.226 557.63 903.578 641.553 832.14 646.744 757.211 668.233 702.587 671.205" fill="#50263a"/>
          <polygon points="913.551 517.022 877.406 584.797 968.832 550.069 1012.198 545.84 1107.352 459.378 1107.768 458.66 1099.199 458.26 986.668 501.601 913.551 517.022" fill="#492036"/>
          <polygon points="903.578 641.552 832.14 646.744 757.212 668.233 702.587 671.205 704.045 695.185 529.065 762.064 567.127 765.403 832.774 679.081 903.578 641.552" fill="#542a40"/>
          <polygon points="367.394 697.342 529.993 681.188 532.851 711.32 435.926 736.042 367.394 697.342" fill="#cf8996"/>
          <polygon points="529.993 681.187 700.287 633.387 700.758 641.149 532.851 711.321 529.993 681.187" fill="#b65069"/>
          <polygon points="700.286 633.387 808.657 574.341 898.74 544.794 880.193 579.572 836.061 588.88 700.759 641.148 700.286 633.387" fill="#cf8996"/>
          <polygon points="880.192 579.573 940.206 556.107 1037.282 523.048 1068.182 494.971 898.74 544.795 880.192 579.573" fill="#af3e5e"/>
          <polygon points="459.892 746.678 534.37 727.321 535.215 736.234 493.636 745.004 474.42 752.982 459.892 746.678" fill="#cf8996"/>
          <polygon points="534.369 727.321 701.703 656.675 702.088 663.012 535.215 736.234 534.369 727.321" fill="#b65069"/>
          <polygon points="701.703 656.675 822.005 619.897 813.703 624.88 702.088 663.012 701.703 656.675" fill="#cf8996"/>
          <polygon points="822.005 619.897 971.82 568.734 960.049 579.304 813.703 624.88 822.005 619.897" fill="#af3e5e"/>
          <polygon points="125.82 502.907 120.729 521.651 92.391 527.628 60.314 522.2 86.01 522.365 85.268 490.23 125.82 502.907" fill="#50273b"/>
          <polygon points="587.599 600.704 428.344 618.663 508.34 612.202 587.599 600.704" fill="#955182"/>
          <polygon points="85.268 490.23 85.268 466.462 20.558 458.5 2.735 452.171 0 449.011 0.257 453.977 30.695 484.875 85.268 490.23" fill="#bd6076"/>
          <polygon points="85.268 466.462 85.268 490.23 125.82 502.908 132.493 471.426 85.268 466.462" fill="#50273b"/>
          <polygon points="132.493 471.426 125.82 502.907 393.477 534.773 503.319 540.289 551.967 532.983 524.952 483.03 497.381 484.381 384.773 484.775 209.308 475.491 132.493 471.426" fill="#7a4643"/>
          <polygon points="758.273 486.518 765.406 472.97 752.151 471.901 524.952 483.03 551.967 532.983 758.273 486.518" fill="#542940"/>
          <polygon points="765.406 472.97 904.586 484.202 937.677 482.154 913.551 517.022 758.273 486.517 765.406 472.97" fill="#c46f80"/>
          <polygon points="937.677 482.154 913.551 517.022 986.667 501.602 1073.26 468.251 978.664 479.618 937.677 482.154" fill="#492036"/>
        </g>
      </g>
      <path d="M568.8625,447.3608s-5.1-11.6848,9.0159-11.6729c0,0,4.1846-12.9581,13.0982-1.5223,0,0,7.4619-11.0473,16.361-.6138,0,0,10.1156-4.7365,11.8089,4.5363,0,0,8.7512-1.6117,8.4443,5.6717,0,0-.3068,1.76-3.9892,3.601S568.8625,447.3608,568.8625,447.3608Z" transform="translate(-33.6595)" fill="#523d33"/>
      <path d="M591.8387,438.6239l-.43,7.5133,3.9074,1.0434,6.48-.4091.5829-17.0954s-3.0461-1.6209-7.6662.8987S591.8387,438.6239,591.8387,438.6239Z" transform="translate(-33.6595)" fill="#523d33"/>
      <path d="M333.5328,430.802l-162.515,5.9895L33.66,449.011s2.5569,9.3223,20.5582,9.489l111.9345,12.926,230.9222,12.7759,73.1834.3917S392.5023,480.8115,333.5328,430.802Z" transform="translate(-33.6595)" fill="url(#linear-gradient-19)"/>
      <image width="80" height="137" transform="translate(520.8929 343)" xlink:href="idea2.png"/>
      <image width="130" height="105" transform="translate(520.8929 322)" xlink:href="idea3.png"/>
      <path d="M506.7,466.3623s-166.4636,24.575-173.1673-35.56l19.6491-.7242-4.4655-4.28H520.9483S569.8478,442.0579,506.7,466.3623Z" transform="translate(-33.6595)" fill="url(#radial-gradient)"/>
      <image width="119" height="96" transform="translate(477.8929 327)" xlink:href="idea4.png"/>
      <path d="M647.2677,437.4418s-10.117,22.7641,67.3968,32.51c0,0,116.4726,11.3375,100.6772-38.4853C815.3417,431.4661,658.7894,418.4249,647.2677,437.4418Z" transform="translate(-33.6595)" fill="url(#radial-gradient-2)"/>
      <g>
        <path d="M759.33,416.0211l23.0271,11.4507s-.0885,8.3287-20.1873,34.1967c-9.61,12.3689-19.6718.7324-19.6718.7324s-7.3335-15.4638,10.15-22.8223l-10.0324-5.088,15.4224-19.2755" transform="translate(-33.6595)" fill="#fff"/>
        <path d="M784.6419,427.1244c-7.6081-5.1536-17.4492-6.4909-23.9408-13.4114-4.6327-4.939-4.4,4.2735-16.018,15.1958l9.8989,8.9057s-15.62,10.9136-6.6539,20.4383c0,0,6.42,9.7974,11.4753,5.6081,5.2188-4.3249,8.6365-11.0133,12.3434-16.5985q6.6117-9.9618,12.9294-20.1148Z" transform="translate(-33.6595)" fill="#ccb4c5"/>
        <path d="M643.3544,441.2784s-29.6987,12.4015-27.6641-13.08c0,0-.3782-6.0925,8.7754-6.0427-.73-.004-1.8689-4.1371-1.9451-4.6529-.4334-2.9331.3011-5.2383,2.9861-6.9083,8.0544-5.01,13.0712,2.9831,16.3044,9.5053C649.7687,436.1524,643.3544,441.2784,643.3544,441.2784Z" transform="translate(-33.6595)" fill="#fff"/>
        <path d="M546.3141,431.7611s24.8683,26.0407,34.281-1.1386c0,0,3.1375-6.1125-6.2748-10.1465.7507.3217,3.7842-3.4312,4.0952-3.929,1.7682-2.8306,2.0551-5.5351.0545-8.4552-6.0013-8.76-14.7548-2.7583-21.0148,2.523C542.0476,423.6134,546.3141,431.7611,546.3141,431.7611Z" transform="translate(-33.6595)" fill="#fff"/>
        <path d="M491.7589,225.4492c-.2435,5.5329,1.8432,11.2754,7.083,13.8421,0,0,9.0218,2.594,17.4065,12.2928,7.4829,8.6556,1.0151,21.8445-10.72,19.9622a11.8735,11.8735,0,0,1-3.429-1.1754c-5.7371-2.8867-9.5673-8.6923-11.4932-14.82C487.9741,247.1784,485.3835,232.983,491.7589,225.4492Z" transform="translate(-33.6595)" fill="url(#linear-gradient-20)"/>
        <path d="M554.6338,236.6026s-11.5451-1.3826-14.0472,9.6933-5.8118,15.3644-3.4194,20.1265,14.5235,5.3053,14.5235,5.3053,11.5545-7.753,1.9463-22.1773S550.26,239.2908,554.6338,236.6026Z" transform="translate(-33.6595)" fill="url(#linear-gradient-21)"/>
        <path d="M543.5953,269.19s12.902-12.482-1.8239-26.5912-21.6607-9.9237-20.521-25.7282c0,0-20.1751,33.1761-7.3371,46.3594S543.5953,269.19,543.5953,269.19Z" transform="translate(-33.6595)" fill="url(#linear-gradient-22)"/>
        <path d="M454.75,325.8282s28.4276-62.3493,69.46-62.4281a28.2657,28.2657,0,0,1,16.0356,4.4574s10.5975,5.3563,16.03,20.9173c6.4684,18.5267-1.4062,56.4765-10.1246,73.8079-5.2881,10.5126-28.1664,5.8535-45.35.56-11.1462-3.4335-19.8965-7.134-19.8965-7.134Z" transform="translate(-33.6595)" fill="#fdf47f"/>
        <polygon points="417.717 320.128 413.851 313.651 381.68 326.307 369.225 383.251 387.08 396.443 418.87 334.488 417.717 320.128" fill="#f4f4f4"/>
        <polygon points="416.32 317.788 389.448 328.862 374.094 386.849 387.081 396.443 418.87 334.488 417.717 320.128 416.32 317.788" fill="#c6acc7"/>
        <g opacity="0.22">
          <g clip-path="url(#clip-path-20)">
            <polygon points="381.68 326.307 389.448 328.861 374.094 386.848 369.225 383.25 381.68 326.307" fill="#ddd"/>
          </g>
        </g>
        <polygon points="389.448 328.862 418.87 334.488 387.08 396.443 374.094 386.848 389.448 328.862" fill="#b5a1b7"/>
        <path d="M491.6969,304.0863s-33.619,45.9427,7.3947,58.8295-20.3649,2.1293-20.3649,2.1293l-30.3584-25.6983,1.7929-13.7456s8.3775-19.96,31.68-42.9991c0,0,10.929-9.8362,17.8686-12.9856,0,0,11.0308-5.7439,18.5581-6.0747,0,0,7.9128-1.5385,14.2512.7373,0,0-15.1239,1.8574-22.2955,11.7184S496.1165,297.0479,491.6969,304.0863Z" transform="translate(-33.6595)" fill="#d3b871"/>
        <path d="M470.2578,260.8958c.0005.0006,7.0558,7.7883,15.7264,3.7777,0,0,7.7011-5.3679,20.5158-5.7625,11.4362-.3521,17.5969,12.983,8.7377,20.9061a11.8731,11.8731,0,0,1-3.0741,1.9208c-5.8576,2.6338-12.7792,1.947-18.7495-.4207-6.6659-2.6435-14.8433-7.5-19.6192-12.9618C471.9815,266.2814,471.8656,262.6706,470.2578,260.8958Z" transform="translate(-33.6595)" fill="url(#linear-gradient-23)"/>
        <path d="M567.07,278.9317s-5.4195,1.493-8.1843-2.8046a21.6606,21.6606,0,0,0-7.6106-8.4857c-5.0627-3.4389-11.6688.8153-9.941,6.9335a6.3482,6.3482,0,0,0,.8371,1.7489,13.0486,13.0486,0,0,0,8.5864,5.1874c3.768.7182,8.853.8707,12.5759-.2258C564.7474,280.8691,565.8353,279.2719,567.07,278.9317Z" transform="translate(-33.6595)" fill="url(#linear-gradient-24)"/>
        <path d="M528.0353,296.992c2.3116.0818,2.3771,5.2071.76,9.541s-6.2906,1.9728-6.1612-1.6819,3.574-7.9238,5.4013-7.8591" transform="translate(-33.6595)" fill="#080415"/>
        <path d="M549.6957,301.773c2.3117.0819,2.3772,5.2072.76,9.541s-6.2906,1.9729-6.1612-1.6818,3.5739-7.9239,5.4012-7.8592" transform="translate(-33.6595)" fill="#080415"/>
        <path d="M531.6045,293.1163l-2.3578,1.2936s-3.2966-2.2814-4.59-4.6393,6.8716,1.3426,6.948,3.3457" transform="translate(-33.6595)" fill="#080415"/>
        <path d="M546.3141,297.3333l4.9064.63s2.321-.6059,1.66-2.4983-6.5665,1.8683-6.5665,1.8683" transform="translate(-33.6595)" fill="#080415"/>
        <path d="M452.8506,317.8319s35.998,52.06,95.99,39.2819c0,0,13.669,32.9276,20.9186,37.2126,0,0-15.3715,36.66-30.73,41.8974,0,0-20.2893-12.3788-24.7716-16.6638l-1.9291,16.6638L499.4661,450.507H399.96l-2.8854-48.5629,25.2968-7.1416,1.3446-19.0443Z" transform="translate(-33.6595)" fill="#fff"/>
        <path d="M483.9731,370.9828a19.1419,19.1419,0,0,0,1.8537,4.03q14.23,22.265,28.4308,44.5475l24.7716,16.6638s11.2391-4.375,20.18-21.33l-28.3046-11.1969A88.096,88.096,0,0,1,499.1261,382.14a60.8279,60.8279,0,0,1-11.0843-16.1758c-2.5508-5.6345-2.407-12.6125-5.4314-17.8867C480.8564,353.6459,481.6182,364.1286,483.9731,370.9828Z" transform="translate(-33.6595)" fill="#c8acc5"/>
        <path d="M452.8506,317.8319s2.8794,6.3928,13.9137,15.219l-21.0854,44.3952,2.6894,30.4794s3.1376,17.0326,9.861,25.5489c0,0,9.1543,13.4468,36.6253,17.0326H399.96l-2.8854-48.5629,25.2968-7.1416,1.3446-19.0443Z" transform="translate(-33.6595)" fill="#c8acc5"/>
        <path d="M494.81,410.6148l-7.0266,11.6539s.8093,14.0151,9.3257,13.9551,13.9573-12.8044,13.9573-12.8044S498.7866,411.96,494.81,410.6148Z" transform="translate(-33.6595)" fill="#c8acc5"/>
        <path d="M423.4324,437.0117s-11.7822-1.6341-13.8174-.7624,3.1968,4.6521-.2937,13.3727-7.9976,13.6619-22.387,9.5887,7.13-32.5584,7.13-32.5584l8.8694-11.6266,5.6688.5826Z" transform="translate(-33.6595)" fill="#f2fdff"/>
        <path d="M423.4324,437.0117l-11.4152-1.0176-5.3055-17.77A109.4,109.4,0,0,0,393.61,440.8039c-5.075,12.3022-4.9682,18.8565-4.9682,18.8565s-8.3881-1.0606-12.9684-5.1906c0,0-4.101.39-5.94-2.0882,0,0,5.165-27.4984,15.3325-42.8211l30.17-7.3166,9.1795,20.951Z" transform="translate(-33.6595)" fill="#c7a8c7"/>
        <path d="M764.191,350.86s-22.2434-46.7545-51.5567-56.84a26.2855,26.2855,0,0,0-10.3839-1.3766c-26.0614,1.7212-52.057,40.1131-66.1647,66.7373C636.0857,359.38,691.5669,401.825,764.191,350.86Z" transform="translate(-33.6595)" fill="url(#linear-gradient-25)"/>
        <path d="M708.9108,298.1611s33.3222,43.7865,22.6012,71.35c0,0,23.0819-6.499,26.7886-12.4308-9.8392-22.4708-23.9384-48.3663-44.61-62.5471-3.9769-2.7283-7.4943-2.1174-11.967-1.638Z" transform="translate(-33.6595)" fill="url(#linear-gradient-26)"/>
        <path d="M636.9686,359.25a4.4014,4.4014,0,0,1,1.2471.3647c3.1785,1.26,6.1765,3.87,9.3108,5.3795a95.1469,95.1469,0,0,0,43.2361,8.9142c25.5681-.5535,50.1086-10.18,71.7073-23.38l.4213-.258,7.9692,13.1741s10.5269,28.862-1.6238,41.3045l-21.9792,35.489s-54.1065,27.2171-81.7025-.6186l-17.2936,2.0721-7.4722-19.0436c-4.1871-10.6714-9.8382-20.533-10.5465-32.1806a68.1622,68.1622,0,0,1,5.1911-29.56C635.9517,359.6345,636.3284,359.2132,636.9686,359.25Z" transform="translate(-33.6595)" fill="#fff"/>
        <path d="M637.46,414.1643l10.801,27.5276,17.2936-2.0722s46.5088-15.5384,52.8044-47.1213l1.4071-17.6091s1.8685,8.8566-17.3079,22.098-67.7526,10.157-67.7526,10.157Z" transform="translate(-33.6595)" fill="#c8acc5"/>
        <g>
          <path d="M591.4091,381.94s13.9559,38.4563,1.5506,64.1972h5.1383s10.2343-38.4563-3.3444-64.1972Z" transform="translate(-33.6595)" fill="#005c27"/>
          <path d="M647.447,366.2529s-45.517-19.0055-56.6582,16.384C590.7888,382.6369,628.7386,414.0942,647.447,366.2529Z" transform="translate(-33.6595)" fill="#009245"/>
          <path d="M548.0163,370.7753S580.8646,354.0282,593.27,381.94C593.27,381.94,563.2382,404.58,548.0163,370.7753Z" transform="translate(-33.6595)" fill="#006837"/>
        </g>
        <path d="M762.8912,350.2707l7.9692,13.1741s11.7714,27.4459-.5794,40.126l-23.0236,36.6675s-37.1049,17.6381-62.36,10.1973c0,0,23.3033.628,46.0044-20.1316,0,0,29.6452-36.9071,9.3309-68.0846Z" transform="translate(-33.6595)" fill="#c8acc5"/>
        <polygon points="730.321 350.545 734.075 347.168 752.198 361.495 748.954 400.216 734.911 405.153 726.751 359.475 730.321 350.545" fill="#f4f4f4"/>
        <polyline points="746.716 361.612 745.124 401.563 734.91 405.153 726.751 359.475 730.321 350.545 731.677 349.325" fill="#c6acc7"/>
        <polygon points="746.716 361.612 726.751 359.475 734.911 405.153 745.124 401.562 746.716 361.612" fill="#b5a1b7"/>
        <path d="M696.2814,319.1579c1.2736.4434,1.029,4.0013-.1027,6.73s-3.5863.3128-3.3144-2.1948,2.41-4.8857,3.4171-4.5352" transform="translate(-33.6595)" fill="#080415"/>
        <path d="M676.8371,317.9353c1.2737.4434,1.029,4.0014-.1026,6.73s-3.5863.3128-3.3145-2.1948,2.41-4.8858,3.4171-4.5353" transform="translate(-33.6595)" fill="#080415"/>
        <path d="M706.747,330.2745c.7984,1.4423-2.309,3.3635-5.55,3.9661s-3.5142-3.1193-1.2338-4.3816,6.153-.7248,6.7842.4155" transform="translate(-33.6595)" fill="#fabdb8"/>
        <path d="M661.8026,329.5987c-.7629,1.4615,2.3906,3.306,5.6458,3.829s3.4367-3.2044,1.1261-4.4105-6.1689-.5738-6.7719.5815" transform="translate(-33.6595)" fill="#fabdb8"/>
        <path d="M456.5469,248.0792c-11.7925,18.8648-17.0279,41.5755-9.6429,61.6,14.4468,39.1734,68.4805,60.4147,106.7973,51.0866,18.9406-4.6111,32.1433-16.2049,40.8141-33.8176a80.4561,80.4561,0,0,0,7.6816-25.9144c7.0237-58.7494-43.557-112.216-103.624-89.2934C482.2493,217.97,466.8806,231.548,456.5469,248.0792Z" transform="translate(-33.6595)" fill="#fff" opacity="0.13"/>
        <path d="M639.4331,296.1106c-10.4495,15.0654-15.0888,33.2022-8.5448,49.194,12.8016,31.2839,60.6819,48.2472,94.6351,40.7977,16.7836-3.6823,28.4828-12.9412,36.1662-27.0067A59.6146,59.6146,0,0,0,768.4964,338.4c6.2238-46.9173-38.5967-89.6157-91.8232-71.31C662.2085,272.0654,648.59,282.9088,639.4331,296.1106Z" transform="translate(-33.6595)" fill="#fff" opacity="0.13"/>
        <path d="M669.4617,278.5246s-18.2,7.3638-25.2408,27.0289S669.4617,278.5246,669.4617,278.5246Z" transform="translate(-33.6595)" fill="#fff"/>
        <path d="M641.33,314.352c0,.3275-7.42,3.7922-3.5152,5.7128C640.7022,321.4852,641.33,315.694,641.33,314.352Z" transform="translate(-33.6595)" fill="#fff"/>
        <path d="M567.9651,231.9539s17,14.1865,21.0512,40.61S567.9651,231.9539,567.9651,231.9539Z" transform="translate(-33.6595)" fill="#fff"/>
        <path d="M590.0071,284.3739c-.1452.44,8.2936,8.3879,2.1929,9.2388C587.6881,294.2419,589.4123,286.178,590.0071,284.3739Z" transform="translate(-33.6595)" fill="#fff"/>
      </g>
      <image width="129" height="104" transform="translate(520.8929 325)" xlink:href="idea5.png"/>
      <image width="118" height="97" transform="translate(477.8929 329)" xlink:href="idea6.png"/>
      <path d="M585.8963,429.8106a14.9863,14.9863,0,0,1,5.08,4.355s6.48-10.8953,16.361-.6138c0,0,5.0228-2.3138,8.3688-.5994l-14.9051,13.8819-15.5822-.6971Z" transform="translate(-33.6595)" fill="#664931"/>
      <path d="M548.0665,370.7753S580.0879,353.38,593.32,381.94C593.32,381.94,562.8306,403.3006,548.0665,370.7753Z" transform="translate(-33.6595)" fill="url(#linear-gradient-27)"/>
      <path d="M647.4973,366.2529s-47.1215-18.2291-56.6582,16.384C590.8391,382.6369,628.6921,415.5057,647.4973,366.2529Z" transform="translate(-33.6595)" fill="url(#linear-gradient-28)"/>
      <image width="79" height="79" transform="translate(539.8929 299)" xlink:href="idea7.png"/>
      <image width="78" height="78" transform="translate(539.8929 300)" xlink:href="idea8.png"/>
      <image width="81" height="81" transform="translate(507.8929 303)" xlink:href="idea9.png"/>
      <image width="81" height="81" transform="translate(507.8929 303)" xlink:href="idea10.png"/>
      <image width="82" height="82" transform="translate(527.8929 266)" xlink:href="idea11.png"/>
      <circle cx="569.1912" cy="306.7629" r="4.4871" fill="#91c447"/>
      <image width="82" height="82" transform="translate(527.8929 266)" xlink:href="idea12.png"/>
      <image width="82" height="82" transform="translate(527.8929 266)" xlink:href="idea13.png"/>
      <image width="111" height="111" transform="translate(493.8929 250)" xlink:href="idea14.png"/>
      <image width="111" height="111" transform="translate(542.8929 284)" xlink:href="idea15.png"/>
      <circle cx="569.0778" cy="306.6849" r="2.1849" fill="#faff94"/>
      <circle cx="548.662" cy="343.1114" r="2.1849" fill="#faff94"/>
      <circle cx="548.662" cy="343.1114" r="2.1849" fill="#faff94"/>
      <circle cx="579.0551" cy="338.9068" r="2.1849" fill="#faff94"/>
      <path d="M788.8147,428.8588S893.97,454.9365,677.261,477.2182l108.55-5.3173L864.0524,479.5l74.1929,4.7019,33.0915-2.0475L1018.5524,480l88.3667-11.7491,25.9392-9.9907L874.7058,429.4561Z" transform="translate(-33.6595)" fill="url(#linear-gradient-29)"/>
      <path d="M548.0665,370.7753s8.8093,15.7485,42.7726,11.8616C590.8391,382.6369,562.8306,404.5506,548.0665,370.7753Z" transform="translate(-33.6595)" fill="#032a1a"/>
      <path d="M647.4973,366.2529s-22.1215,25.5209-56.6582,16.384C590.8391,382.6369,628.6921,416.5057,647.4973,366.2529Z" transform="translate(-33.6595)" fill="#032a1a"/>
      <g>
        <path d="M968.401,558.2361l-23.826,6.4477-24.2144,6.5529s-35.556,22.4331-35.4229,56.2248c0,0-4.37,33.87,9.1116,97.9424,0,0,12.5694,82.3589,50.7454,40.8732l13.9907-20.984s7.3429-6.7148,5.7438-7.4536c0,0-1.6514-3.1546-17.1365,4.375,0,0-4.1888.3337-8.4257,9.498,0,0-8.6924,21.1423-20.7059.47,0,0-10.402-12.7954-7.487-80.3633,0,0,.0706-54.3239,17.872-74.125Z" transform="translate(-33.6595)" fill="url(#linear-gradient-30)"/>
        <path d="M929.0845,601.1565s46.3733,54.5725,18.0693,70.0481c0,0-16.6776,8.8121-15.7958,16.5126a30.5106,30.5106,0,0,1,1.75-14.5394c2.0212-5.1385,6.6969-8.5854,9.53-13.2717,3.6161-5.9809-.7211-14.2544-3.6211-19.9182a89.6352,89.6352,0,0,0-7.15-11.48c-1.6661-2.31-3.43-4.581-5.2642-6.8187-1.6274-1.9853-5.5094-4.914-6.1721-7.1287C920.4311,614.5609,917.6667,605.3542,929.0845,601.1565Z" transform="translate(-33.6595)" fill="url(#linear-gradient-31)"/>
        <path d="M942.6394,567.7111s-47.0781,28.2585-47.0781,71.2205c0,0-8.3625,121.2119,23.539,137.6848,0,0-23.418-1.4913-34.3188-95.3193-3.6605-24.9446-4.7911-52.6991,4.7277-76.968,5.1505-13.1315,17.1075-22.184,28.9006-32.2189C918.41,572.11,942.6394,563.5758,942.6394,567.7111Z" transform="translate(-33.6595)" fill="#483735"/>
        <path d="M891.6436,698.9526a53.8975,53.8975,0,0,0-31.2893,0s-8.2846,2.09-5.3747,19.5878c0,0,2.6113-1.7384,3.5531-8.6543,0,0,3.8436-15.4478,33.9142-5.9354C892.4469,703.9507,892.05,701.5467,891.6436,698.9526Z" transform="translate(-33.6595)" fill="url(#linear-gradient-32)"/>
        <path d="M886.7335,610.4809s23.1906-7.0171,32.0421,6.6235c0,0-4.3036,21.0208-4.5912,23.32,0,0-18.4806-11.3045-31.7813-3.2324C882.4031,637.1917,884.214,618.1675,886.7335,610.4809Z" transform="translate(-33.6595)" fill="#ac604f"/>
        <path d="M885.2766,687.7172s11.822-8.4869,25.0132-.1395l-.3466,9.0894s-16.78-4.4279-23.3348,0Z" transform="translate(-33.6595)" fill="#ac604f"/>
        <path d="M889.5092,602.7943s22.8041-2.0482,33.1939,4.6107" transform="translate(-33.6595)" fill="none" stroke="#ac604f" stroke-miterlimit="10" stroke-width="3"/>
        <path d="M903.3512,608.8482s-9.3756,18.9562-7.6073,25.5235c0,0,14.8775,1.83,18.44,6.0524l4.5912-23.32S916.2107,610.7374,903.3512,608.8482Z" transform="translate(-33.6595)" fill="#b97362"/>
        <path d="M894.6834,683.9036V694.713s10.7592-.0842,15.26,1.9541l.3466-9.0894S914.1548,686.0918,894.6834,683.9036Z" transform="translate(-33.6595)" fill="#b97362"/>
      </g>
      <path d="M1028.0119,567.75l-23.8735,47.279s5.5186-17.6935-.5337-44.6113l12.2812-12.7875,10.03-3.9457S1028.2152,563.9648,1028.0119,567.75Z" transform="translate(-33.6595)" fill="#483735"/>
      <path d="M250.8381,520.1554s14.1709-1.7514,14.2578,11.4144c.01,1.4246-4.542,5.3656-5.4181,6.4045q-6.3569,7.5373-12.63,15.1459c-7.4443,9.0526-17.8272,17.1067-20.5088,29.0985-.8746,3.9143,3.2422,4.2517,6.2764,4.5513l17.8167,1.76c6.3734.6294,12.919,1.3077,18.6206,4.2246,15.7095,8.0371,13.3481,33.21,6.2859,46.4215-5.6035,10.4823-15.5213,17.5628-19.3244,29.2776-.55-10.5458,4.8814-18.305,8.9073-27.426a49.2191,49.2191,0,0,0,3.2636-29.3356c-1.4106-7.0227-5.6235-10.4879-12.5394-11.7226-11.81-2.1084-23.6146-4.224-35.4432-6.2264a16.4924,16.4924,0,0,1-4.92-1.37c-5.838-3.0371-4.5273-10.5611-2.79-15.7915,1.7-5.117,4.5044-9.99,7.2481-14.6157C219.9422,561.9631,242.2109,524.4245,250.8381,520.1554Z" transform="translate(-33.6595)" fill="url(#linear-gradient-33)"/>
      <path d="M261.71,523.0541s5.6237,5.8922,3.3857,8.5256L228.6,577.4266s-8.19,11.2937,17.3286,10.8973c8.53-.1325,17.3419.0831,24.7792,4.9316,14.4422,9.4152,11.549,35.6776,3.6846,48.5118-5.5725,9.094-14.48,15.358-18.2059,25.7118a13.57,13.57,0,0,1,1.2707-5.62c5.1538-13.02,17.7017-21.6535,18.9887-35.9758.8752-9.7391-.8706-20.7994-8.6719-26.6948-9.7209-7.3461-23.7831-3.3663-35.4006-7.04-14.5413-4.5982-10.1742-16.9488-2.5113-25.6271Z" transform="translate(-33.6595)" fill="#483735"/>
      <path d="M229.3579,585.1506s4.22,1.8385,18.5243,3.1519l1.5852,3.0016-17.3941-.6795Z" transform="translate(-33.6595)" fill="#483735"/>
      <path d="M177.7826,579.9512s-23.69,40.7873,5.4988,67.9517c0,0,38.9589,34.4752,38.17,63.425,0,0,11.4424-32.39-22.0354-69.7159,0,0-19.263-25.2813-5.2343-47.8519Z" transform="translate(-33.6595)" fill="url(#linear-gradient-34)"/>
      <path d="M177.7826,579.9512l-3.1951,6.6779c.0343-.0717,5.3143,8.9462,5.567,9.652a62.226,62.226,0,0,1,3.123,15.3638c.6819,7.5262-.7754,15.0447,3.49,21.7259,3.5025,5.4862,8.507,9.8079,15.0629,11.0234,0,0-19.3525-27.874-7.6486-50.6341Z" transform="translate(-33.6595)" fill="#483735"/>
      <path d="M229.8286,496.83s-6.1367,26.4791,19.6253,26.2223C249.4539,523.0523,252.8955,501.5108,229.8286,496.83Z" transform="translate(-33.6595)" fill="url(#linear-gradient-35)"/>
      <path d="M273.734,501.1545s-26.924-3.7275-24.3486,21.9067C249.3854,523.0612,271.1493,524.5492,273.734,501.1545Z" transform="translate(-33.6595)" fill="url(#linear-gradient-36)"/>
      <path d="M483.3622,772.8773s-13.6239,7.1219-17.1439-7.0179C466.2183,765.8594,477.5221,760.9144,483.3622,772.8773Z" transform="translate(-33.6595)" fill="url(#linear-gradient-37)"/>
      <path d="M273.734,501.1545s-12.2656,15.7178-24.3486,21.9067C249.3854,523.0612,272.1657,524.559,273.734,501.1545Z" transform="translate(-33.6595)" fill="url(#radial-gradient-3)"/>
      <path d="M229.8286,496.83s17.64,15.5423,19.5568,26.2312C249.3854,523.0612,254.1048,500.16,229.8286,496.83Z" transform="translate(-33.6595)" fill="url(#radial-gradient-4)"/>
      <g>
        <path d="M1068.9655,525.4435s1.0226-11.0468,13.2746-7.3766c0,0,17.546,20.6067,9.9791,30.3939,0,0-10.313,12.56-12.3875,16.0451a65.89,65.89,0,0,0-9.4849,25.7127s-9.1348-16.8219,5.16-36.4493C1075.5072,553.7693,1083.9813,540.4957,1068.9655,525.4435Z" transform="translate(-33.6595)" fill="url(#linear-gradient-38)"/>
        <path d="M1074.7214,517.7563a9.7855,9.7855,0,0,1,7.5187.3106s20.7611,22.456,7.26,33.7406c0,0-18.88,20.6825-19.153,38.4111,0,0-.2726-23.7412,13.8328-40.95C1084.18,549.2688,1094.6024,536.741,1074.7214,517.7563Z" transform="translate(-33.6595)" fill="url(#linear-gradient-39)"/>
        <path d="M1099.85,517.6507s-13.6011-8.2242-19.7423,2.8217C1080.1079,520.4724,1088.7593,532.2839,1099.85,517.6507Z" transform="translate(-33.6595)" fill="url(#linear-gradient-40)"/>
        <path d="M1076.6482,503.1523s9.8782,6.5384,4.0239,17.8843C1080.6721,521.0366,1069.2543,515.9263,1076.6482,503.1523Z" transform="translate(-33.6595)" fill="url(#linear-gradient-41)"/>
        <path d="M1076.6482,503.1523l4.0239,17.8843S1069.2579,516.7015,1076.6482,503.1523Z" transform="translate(-33.6595)" fill="url(#linear-gradient-42)"/>
        <path d="M1099.85,517.6507l-19.1781,3.3859S1089.4257,532.4393,1099.85,517.6507Z" transform="translate(-33.6595)" fill="url(#linear-gradient-43)"/>
      </g>
      <path d="M1037.8417,552.3261s-8.2776-5.0053-12.0151,1.7173C1025.8266,554.0434,1031.0918,561.2318,1037.8417,552.3261Z" transform="translate(-33.6595)" fill="url(#linear-gradient-44)"/>
      <path d="M1023.721,543.5023a8.2246,8.2246,0,0,1,2.449,10.8844S1019.2211,551.2766,1023.721,543.5023Z" transform="translate(-33.6595)" fill="url(#linear-gradient-45)"/>
      <path d="M1023.721,543.5023l2.449,10.8844S1019.2233,551.7484,1023.721,543.5023Z" transform="translate(-33.6595)" fill="url(#linear-gradient-46)"/>
      <path d="M1037.8417,552.3261l-11.6717,2.0606S1031.4974,561.3264,1037.8417,552.3261Z" transform="translate(-33.6595)" fill="url(#linear-gradient-47)"/>
      <path d="M135.0808,251.3938s53.7327,92.05,27.7472,197.7537" transform="translate(-33.6595)" fill="none" stroke="#2b723b" stroke-miterlimit="10" stroke-width="7"/>
      <path d="M324.4513,178.4851s-53.7327,130.9283-27.7472,281.2766" transform="translate(-33.6595)" fill="none" stroke="#2b723b" stroke-miterlimit="10" stroke-width="7"/>
      <path d="M954.427,295.888s45.181,77.8444,23.3312,167.2351" transform="translate(-33.6595)" fill="none" stroke="#2b723b" stroke-miterlimit="10" stroke-width="7"/>
      <path d="M179.9033,189.9991s-63.2905,17.1956-44.0508,63.1792C135.8525,253.1783,191.1871,238.8173,179.9033,189.9991Z" transform="translate(-33.6595)" fill="url(#linear-gradient-48)"/>
      <path d="M70.8079,213.3173s64.97-8.9611,65.2729,40.8843C136.0808,254.2016,79.5416,262.6557,70.8079,213.3173Z" transform="translate(-33.6595)" fill="url(#linear-gradient-49)"/>
      <path d="M200.4211,260.0427s-35.7607-2.4986-43.6045,40.8218C156.8166,300.8645,194.0351,301.8416,200.4211,260.0427Z" transform="translate(-33.6595)" fill="#006837"/>
      <path d="M218.155,340.6213S180.2159,337.97,171.8944,383.93C171.8944,383.93,211.38,384.9664,218.155,340.6213Z" transform="translate(-33.6595)" fill="url(#linear-gradient-50)"/>
      <path d="M120.3312,340.6213S158.27,337.97,166.5919,383.93C166.5919,383.93,127.1062,384.9664,120.3312,340.6213Z" transform="translate(-33.6595)" fill="url(#linear-gradient-51)"/>
      <path d="M259.6271,468.1963s62.5752,2.2565,67.0882,0,4.8894-4.4131,4.8894-4.4131c.3763-8.9267-24.8221-12.5109-24.8221-12.5109-10.9073-12.7874-36.1052,2.6177-36.1052,2.6177-17.301-.0146-11.05,14.3063-11.05,14.3063" transform="translate(-33.6595)" fill="#523d32"/>
      <path d="M134.2989,453.5364s-5.9214-13.5674,10.4693-13.5538c0,0,4.8584-15.0458,15.2085-1.7675,0,0,30.7427-6.2126,32.7086,4.5544,0,0,10.1617-1.8717,9.8047,6.5859,0,0-.3562,2.0431-4.6314,4.181-1.7844.8923-13.1485,1.04-25.7861.9088-13.0088-.1348-27.3671-.5648-34.0146-.7814-2.3693-.0772-3.759-.1274-3.759-.1274" transform="translate(-33.6595)" fill="#523d32"/>
      <path d="M952.6272,465.9039s-14.3853-18.96,21.0543-12.5627c0,0,4.0018-7.1486,15.5767-.5844,0,0,3.021.43,6.6717,1.372,5.6421,1.4562,12.7884,4.1366,12.6108,8.3466,0,0-.2924,1.6758-3.7982,3.4285-1.2468.6236-8.1986.8036-16.64.7767-15.2934-.0488-35.4756-.7767-35.4756-.7767" transform="translate(-33.6595)" fill="#523d32"/>
      <path d="M251.5492,309.1s29.1586,2.6365,38.0959,62.6539" transform="translate(-33.6595)" fill="none" stroke="#2b723b" stroke-miterlimit="10" stroke-width="7"/>
      <path d="M327.8857,340.427s-35.8993,1.4831-38.2788,37.15" transform="translate(-33.6595)" fill="none" stroke="#2b723b" stroke-miterlimit="10" stroke-width="7"/>
      <path d="M278.4461,220.1988s36.5027,7.9455,21.5834,47.6384" transform="translate(-33.6595)" fill="none" stroke="#2b723b" stroke-miterlimit="10" stroke-width="7"/>
      <path d="M329.5524,248.5885s-17.1821,4.2-30.4244,23.1392" transform="translate(-33.6595)" fill="none" stroke="#2b723b" stroke-miterlimit="10" stroke-width="7"/>
      <path d="M367.3933,126.3872s-59.4418,7.69-47.1687,60.0044C320.2246,186.3916,365.0261,184.9251,367.3933,126.3872Z" transform="translate(-33.6595)" fill="url(#linear-gradient-52)"/>
      <path d="M286.5691,139.0626s-5.9269,35.3545,36.4382,47.329C323.0073,186.3916,327.56,149.44,286.5691,139.0626Z" transform="translate(-33.6595)" fill="url(#linear-gradient-53)"/>
      <path d="M240.93,217.7641s27.4805-24.17,47.24,5.29C288.17,223.0542,261.93,246.2641,240.93,217.7641Z" transform="translate(-33.6595)" fill="#006837"/>
      <path d="M323.1577,251.6867s11.6431-34.6958,43.5174-19.1276C366.6751,232.5591,355.6231,265.8022,323.1577,251.6867Z" transform="translate(-33.6595)" fill="url(#linear-gradient-54)"/>
      <path d="M213.8024,303.25s37.08-27.3361,53.35,14.5819C267.1525,317.8319,228.547,339.8056,213.8024,303.25Z" transform="translate(-33.6595)" fill="url(#linear-gradient-55)"/>
      <path d="M353.3024,337.5s-33.7966-19.0366-46.2733,9.6067C307.0291,347.1067,337.4986,366.75,353.3024,337.5Z" transform="translate(-33.6595)" fill="url(#linear-gradient-56)"/>
      <path d="M985.426,234.5s-47.1883,26.7827-29.406,64.2664C956.02,298.7664,1006.8,299.5,985.426,234.5Z" transform="translate(-33.6595)" fill="url(#linear-gradient-57)"/>
      <path d="M957.02,298.7664S926.59,315,906.0524,288.25C906.0524,288.25,942.9877,270.5327,957.02,298.7664Z" transform="translate(-33.6595)" fill="url(#linear-gradient-58)"/>
      <path d="M978.3605,349.9825s-2.5664-29.2978,22.6836-39.4825C1001.0441,310.5,1002.677,349.961,978.3605,349.9825Z" transform="translate(-33.6595)" fill="url(#linear-gradient-59)"/>
      <path d="M1011.3816,379.5055s-24.8285,3.98-24.9556,25C986.426,404.5055,1008.1231,407.0055,1011.3816,379.5055Z" transform="translate(-33.6595)" fill="url(#linear-gradient-60)"/>
      <path d="M948.5524,372.5s32.5846,5.0155,32.7513,31.5035C981.3037,404.0035,952.8287,407.1538,948.5524,372.5Z" transform="translate(-33.6595)" fill="url(#linear-gradient-61)"/>
      <path d="M764.3241,149.5274s-37.9754,29.2461-12.098,52.1811C752.2261,201.7085,779.89,185.51,764.3241,149.5274Z" transform="translate(-33.6595)" fill="url(#linear-gradient-62)"/>
      <path d="M771.2929,286.118s-2.9074-27.5634,34.2693-39.6379C805.5622,246.48,809.47,289.85,771.2929,286.118Z" transform="translate(-33.6595)" fill="url(#linear-gradient-63)"/>
      <path d="M716.8024,198.5s17.6756-14.833,37.5878,2.2085C754.39,200.7085,731.5524,216,716.8024,198.5Z" transform="translate(-33.6595)" fill="#006837"/>
      <path d="M778.6234,349.3254s2.8493-14.4075,31.6151-15.0193C810.2385,334.3061,799.1943,363.4007,778.6234,349.3254Z" transform="translate(-33.6595)" fill="#006837"/>
      <path d="M973.6815,453.3412s23.9716,2.52,14.4213,13.3394c0,0,19.9263,2.27,20.4379-4.2052,0,0,1.4233-6.7118-19.2825-9.7186C989.2582,452.7568,978.0606,445.9324,973.6815,453.3412Z" transform="translate(-33.6595)" fill="url(#linear-gradient-64)"/>
      <path d="M160.7191,438.2151s48.341,14.1622-10.4962,15.8069c0,0,41.4418,2.2175,47.6357-.4856,0,0,3.7427-1.6569,4.1886-3.2624,0,0,3.9377-8.4017-9.3619-7.5045C192.6853,442.77,193.8857,431.7636,160.7191,438.2151Z" transform="translate(-33.6595)" fill="url(#linear-gradient-65)"/>
      <path d="M270.6774,453.89s40.0415-4.3671,31.3749,15.2881c0,0,22.4926.8812,24.663-.9818,0,0,20.4641-8.985-19.9327-16.924C306.7826,451.2723,298.1358,437.78,270.6774,453.89Z" transform="translate(-33.6595)" fill="url(#linear-gradient-66)"/>
      <path d="M367.3933,126.3872l-47.1687,60.0044S366.2341,187.7744,367.3933,126.3872Z" transform="translate(-33.6595)" fill="#032a1a"/>
      <path d="M120.3312,340.6213,166.5919,383.93S124.61,386.2425,120.3312,340.6213Z" transform="translate(-33.6595)" fill="#032a1a"/>
      <path d="M213.8024,303.25l53.35,14.5819S230.5524,343,213.8024,303.25Z" transform="translate(-33.6595)" fill="#032a1a"/>
      <path d="M353.3024,337.5l-46.2733,9.6067S337.4986,370.2493,353.3024,337.5Z" transform="translate(-33.6595)" fill="#032a1a"/>
      <path d="M985.426,234.5l-29.4471,65.2038S1006.1227,299.9108,985.426,234.5Z" transform="translate(-33.6595)" fill="#032a1a"/>
      <path d="M948.5524,372.5l32.7513,31.5035S984.0523,380.5,948.5524,372.5Z" transform="translate(-33.6595)" fill="#032a1a"/>
      <text transform="translate(453.0571 701.4318) rotate(9.6262)" font-size="160.3241" fill="#ffff9c" font-family="aAtmospheric, a Atmospheric">u</text>
      <path d="M514.2773,584.6813l31.3769-2.7877-8.2962,48.9125q-1.0144,5.9815-2.0291,11.9631c-1.0118,5.9665-2.6771,11.972-2.9329,18.0523-.75,17.8251,13.7155,26.0619,29.5424,27.9434l23.0734,29.37s-53.905,6.3873-76.9249-31.0511c-7.42-12.0667-6.9484-26.5943-4.7083-40.0749,2.2309-13.4252,4.8633-26.7433,7.1415-40.1756C510.7728,605.3432,513.369,584.762,514.2773,584.6813Z" transform="translate(-33.6595)" fill="url(#linear-gradient-67)"/>
      <path d="M514.2773,584.6813,534.7142,568.86l21.9952-1.7488-7.125,45.3913c-1.6528,9.7441-3.1424,19.5182-4.7659,29.2677-1.3957,8.3814-4.5726,18.2476-.41,26.3264,3.8291,7.4315,11.65,9.5465,19.0837,11.5073,0,0,34.824,9.1942,41.0363-1.5877,0,0-7.36,25.2853-55.6211,7.4493,0,0-25.2551-6.1594-13.5786-42.6963l10.3253-60.8756Z" transform="translate(-33.6595)" fill="url(#linear-gradient-68)"/>
      <polygon points="523.05 567.111 511.995 581.894 480.618 584.681 501.055 568.86 523.05 567.111" fill="#ffff9c"/>
      <path d="M618.1878,597.4838,635.1751,582.94l25.406,4.3091-15.6376,92.1968s-10.8528,58.1708-85.0243,38.023c0,0,59.8638,11.4629,73.3243-36.8841l14.2385-78.1328Z" transform="translate(-33.6595)" fill="url(#linear-gradient-69)"/>
      <polygon points="584.528 597.484 613.823 602.452 626.922 587.25 601.516 582.94 584.528 597.484" fill="url(#linear-gradient-70)"/>
      <text transform="translate(284.7888 668.676)" font-size="160.3241" fill="#ffff9c" font-family="aAtmospheric, a Atmospheric">h</text>
      <polygon points="326.437 596.253 371.276 596.253 391.48 623.049 326.437 623.049 326.437 668.676 296.832 668.675 296.832 549.037 326.437 540.934 326.437 596.253" fill="url(#linear-gradient-71)"/>
      <polygon points="296.832 549.037 308.177 534.451 332.487 528.293 332.487 586.962 391.48 586.962 391.48 596.443 326.437 596.253 326.437 540.934 296.832 549.037" fill="#ffff9c"/>
      <polygon points="391.48 544.256 401.204 532.506 429.08 532.506 429.08 653.248 421.301 668.676 420.815 544.337 391.48 544.256" fill="url(#linear-gradient-72)"/>
      <polygon points="332.974 623.049 332.974 654.544 326.437 668.676 326.437 623.049 332.974 623.049" fill="url(#linear-gradient-73)"/>
      <polygon points="332.487 528.293 326.437 540.934 326.437 596.253 332.487 586.962 332.487 528.293" fill="url(#linear-gradient-74)"/>
      <polygon points="420.815 544.337 429.08 532.506 429.08 653.248 421.301 668.676 420.815 544.337" fill="url(#linear-gradient-75)"/>
      <text transform="translate(661.7622 682.7867) rotate(-6.8563)" font-size="160.3241" fill="#ffff9c" font-family="aAtmospheric, a Atmospheric">b</text>
      <polygon points="663.506 602.496 672.986 584.951 697.927 581.952 706.169 650.5 699.138 651.753 691.785 590.608 663.506 602.496" fill="url(#linear-gradient-76)"/>
      <path d="M697.1655,602.4962l28.2794-11.8886,1.49,12.39,42.9629-5.1659,15.8849,24.8607L730.43,629.3481l2.3676,22.4051,59.3756-7.1394L810.04,666.9509s-7.1982,3.9412-20.8389,4.5332L706.6542,681.41Z" transform="translate(-33.6595)" fill="url(#linear-gradient-77)"/>
      <polygon points="711.993 550.96 727.444 576.281 661.31 584.233 665.973 556.494 711.993 550.96" fill="url(#linear-gradient-78)"/>
      <polygon points="672.986 584.951 663.506 602.496 691.785 590.608 697.927 581.952 672.986 584.951" fill="url(#linear-gradient-79)"/>
      <path d="M699.6326,557.4935l11.788-16q28.005-3.3673,56.01-6.7348c10.9012-1.3106,20.9061-3.496,31.8132-.2156,23.6232,7.105,35.0658,30.0588,33.2695,53.665-.4544,5.9705-3.135,12.2874-8.5448,14.8541.7557-.3571,4.9854,3.2462,5.64,3.7667a42.35,42.35,0,0,1,5.3242,5.0224,34.071,34.071,0,0,1,7.1946,12.495,37.4466,37.4466,0,0,1-.1183,20.7747A64.0147,64.0147,0,0,1,834.37,662.03c-2.9925,4.7394-8.5786,6.9306-13.9624,7.6754a73.138,73.138,0,0,1-15.9334.6012c1.6721-1.5806,5.7867-2.2622,8.0427-3.3512a43.9668,43.9668,0,0,0,8.3686-5.2191,33.4965,33.4965,0,0,0,11.004-15.2612,36.5,36.5,0,0,0,1.3667-15.4976,25.4987,25.4987,0,0,0-1.6415-7.0666c-1.7909-4.3018-5.2169-7.5988-8.8195-10.4253-1.2471-.9784-10.3216-8.1351-11.5148-7.17,0,0,34.1157-27.6082-7.9769-53.67,0,0-8.6266-6.58-35.874-3.3042Z" transform="translate(-33.6595)" fill="url(#linear-gradient-80)"/>
      <path d="M738.5358,641.4458c-4.862-1.7267-8.8332.8307-13.5122,1.8656a61.3922,61.3922,0,0,0-15.8715,5.7488c-5.3642,2.843-10.9292,7.103-11.6884,13.5717-1.0514,8.9581,6.9012,19.1245,15.4687,20.6327a34.2894,34.2894,0,0,0,13.6636-.6112c1.8894-.4781,8.482-5.0611,9.5651-4.7917,0,0-40.5874-10.0965,3.6693-27.3623a26.8162,26.8162,0,0,0,5.7162-1.0381c.1254-3.4218-3.6352-6.6884-6.6528-7.8812Q738.714,641.509,738.5358,641.4458Z" transform="translate(-33.6595)" fill="url(#linear-gradient-81)"/>
      <path d="M1011.3816,379.5055l-24.9556,25S1007.2107,408.5111,1011.3816,379.5055Z" transform="translate(-33.6595)" fill="#032a1a"/>
      <path d="M70.8079,213.3173l65.2729,40.8843S139.5634,202.6347,70.8079,213.3173Z" transform="translate(-33.6595)" fill="#70f766"/>
      <path d="M323.1577,251.6867l43.5174-19.1276S339.43,214.3734,323.1577,251.6867Z" transform="translate(-33.6595)" fill="#70f766"/>
      <path d="M240.93,217.7641l47.24,5.29S270.3067,193.1949,240.93,217.7641Z" transform="translate(-33.6595)" fill="#70f766"/>
      <path d="M805.5622,246.48,771.2929,286.118S770.9052,257.2936,805.5622,246.48Z" transform="translate(-33.6595)" fill="#70f766"/>
      <path d="M764.3241,149.5274,754.39,200.7085S722.5047,186.7214,764.3241,149.5274Z" transform="translate(-33.6595)" fill="#70f766"/>
      <path d="M906.0112,289.1874l50.0088,9.579S928.8455,316.74,906.0112,289.1874Z" transform="translate(-33.6595)" fill="#70f766"/>
      <path d="M716.8024,199.5l37.5467,3.1459S728.3857,215,716.8024,199.5Z" transform="translate(-33.6595)" fill="#032a1a"/>
      <g>
        <path d="M123.6942,524.9469c2.53,20.0746,4.8288,45.2261-10.4525,61.11-6.0871,6.3272-13.6876,11.6779-16.301,20.4879,1.541-6.2641.248-12.6178,2.568-19.0094,2.3735-6.5389,6.3744-12.2766,9.4763-18.4618,3.5806-7.14,4.0743-13.5062,3.3629-21.424-.1315-1.4637-3.7956-17.733-5.7569-16.6952C106.5913,530.9544,121.1915,523.2294,123.6942,524.9469Z" transform="translate(-33.6595)" fill="url(#linear-gradient-82)"/>
        <path d="M106.591,530.9546s22.0438,5.2588,17.207,34.6668c0,0,6.8988-21.2274-.1038-40.6745C123.6942,524.9469,113.1353,524.8849,106.591,530.9546Z" transform="translate(-33.6595)" fill="url(#linear-gradient-83)"/>
        <path d="M102.8623,517.0721s15.2279-2.1082,13.7713,12.39C116.6336,529.4623,104.3242,530.3038,102.8623,517.0721Z" transform="translate(-33.6595)" fill="url(#linear-gradient-84)"/>
        <path d="M102.8623,517.0721s15.8852-4.0272,13.7713,12.39C116.6336,529.4623,115.205,520.7646,102.8623,517.0721Z" transform="translate(-33.6595)" fill="url(#linear-gradient-85)"/>
        <path d="M143.7218,511.6734s-26.1514-7.8412-27.5379,17.9994C116.1839,529.6728,137.5578,534.4972,143.7218,511.6734Z" transform="translate(-33.6595)" fill="url(#linear-gradient-86)"/>
        <path d="M143.2721,510.8133s-2.3011,22.1652-26.6385,18.649C116.6336,529.4623,135.5246,525.7469,143.2721,510.8133Z" transform="translate(-33.6595)" fill="url(#linear-gradient-87)"/>
      </g>
      <g>
        <image width="524" height="312" transform="translate(735.8929)" xlink:href="idea16.png"/>
        <circle cx="593.3636" cy="276.1625" r="8.4521" fill="none" stroke="#00a5dc" stroke-miterlimit="10"/>
        <polyline points="598.987 268.162 685.32 118.092 772.663 118.092" fill="none" stroke="#00a5dc" stroke-miterlimit="10"/>
        <polygon points="772.484 37.706 772.484 224.75 797.593 252.655 1059.547 252.655 1092.781 275.332 1223.226 275.332 1223.226 70.94 1179.156 37.706 772.484 37.706" fill="none" stroke="#00a5dc" stroke-miterlimit="10"/>
        <polygon points="1223.226 70.94 1048.487 70.94 1008.864 37.706 1179.156 37.706 1223.226 70.94" fill="#4daccf"/>
        <polygon points="772.484 37.291 772.484 224.335 797.593 252.24 1059.547 252.24 1092.781 274.917 1223.226 274.917 1223.226 70.525 1179.156 37.291 772.484 37.291" fill="#aed5e9" opacity="0.11"/>
        <polygon points="1051.001 275.332 1022.573 252.655 1011.564 252.655 1037.444 275.332 1051.001 275.332" fill="#139fc6"/>
        <polygon points="1075.927 274.942 1047.499 252.265 1036.49 252.265 1062.369 274.942 1075.927 274.942" fill="#139fc6"/>
        <polygon points="841.397 275.332 812.969 252.655 801.96 252.655 827.839 275.332 841.397 275.332" fill="#139fc6"/>
        <polygon points="866.689 275.332 838.26 252.655 827.252 252.655 853.131 275.332 866.689 275.332" fill="#139fc6"/>
        <polygon points="893.134 275.332 864.706 252.655 853.697 252.655 879.577 275.332 893.134 275.332" fill="#139fc6"/>
        <polygon points="919.084 275.332 890.656 252.655 879.647 252.655 905.526 275.332 919.084 275.332" fill="#139fc6"/>
        <polygon points="945.482 275.332 917.054 252.655 906.045 252.655 931.924 275.332 945.482 275.332" fill="#139fc6"/>
        <polygon points="972.485 275.332 944.057 252.655 933.048 252.655 958.927 275.332 972.485 275.332" fill="#139fc6"/>
        <polygon points="998.242 275.332 969.814 252.655 958.805 252.655 984.684 275.332 998.242 275.332" fill="#139fc6"/>
        <polygon points="1024.414 274.942 995.986 252.265 984.977 252.265 1010.856 274.942 1024.414 274.942" fill="#139fc6"/>
        <image width="247" height="224" transform="translate(561.8929 81)" xlink:href="idea17.png"/>
        <image width="91" height="91" transform="translate(547.8929 231)" xlink:href="idea18.png"/>
      </g>
      <g>
        <image width="417" height="184" transform="translate(807.8929 66)" xlink:href="idea19.png"/>
        <image width="417" height="184" transform="translate(807.8929 66)" xlink:href="idea20.png"/>
        <image width="417" height="184" transform="translate(807.8929 66)" xlink:href="idea21.png"/>
        <text id='idea' transform="translate(844.4769 193.2583)" font-size="102.6102" fill="#f1fafe" font-family="aAtmospheric, a Atmospheric">
          IDEA
        </text>
      </g>
      <polygon points="373.24 470.886 327.168 478.462 298.907 464.122 339.574 461.795 373.24 470.886" fill="#483735"/>
      <polygon points="310.019 449.757 298.907 463.986 321.114 471.118 338.407 462.013 325.078 449.757 310.019 449.757" fill="#483735"/>
      <polygon points="310.019 449.757 318.657 455.509 321.114 471.118 298.907 463.986 310.019 449.757" fill="#66504d"/>
      <polygon points="325.078 449.757 318.657 455.509 310.019 449.757 325.078 449.757" fill="#9f8380"/>
      <polygon points="604.643 464.903 623.226 471.06 603.726 476.333 583.643 473.75 604.643 464.903" fill="url(#radial-gradient-5)"/>
      <polygon points="590.393 458.698 583.643 473.75 601.046 473.75 604.643 464.903 590.393 458.698" fill="#66504d"/>
      <polygon points="590.393 458.698 601.046 473.75 583.643 473.75 590.393 458.698" fill="#806561"/>
      <polygon points="789.393 462.729 812.583 471.625 783.155 472.625 769.893 468.333 789.393 462.729" fill="#483735"/>
      <polygon points="769.893 468.333 767.726 458.333 775.226 455.167 789.393 462.729 781.226 469.167 769.893 468.333" fill="#51342d"/>
      <polyline points="767.726 458.333 778.56 460.5 781.226 469.167 769.893 468.333 768.014 459.66" fill="#704b43"/>
      <polygon points="822.147 439.855 835.214 444.184 821.502 447.892 807.381 446.076 822.147 439.855" fill="url(#radial-gradient-6)"/>
      <polygon points="812.127 435.492 807.381 446.076 819.618 446.076 822.147 439.855 812.127 435.492" fill="#66504d"/>
      <polygon points="812.127 435.492 819.618 446.076 807.381 446.076 812.127 435.492" fill="#806561"/>
      <polygon points="878.504 465.159 890.549 469.15 877.91 472.568 864.893 470.893 878.504 465.159" fill="#483735"/>
      <polygon points="869.268 461.137 864.893 470.893 876.173 470.893 878.504 465.159 869.268 461.137" fill="#51342d"/>
      <polygon points="869.268 461.137 876.173 470.893 864.893 470.893 869.268 461.137" fill="#704b43"/>
      <polygon points="231.673 440.909 243.718 444.9 231.079 448.317 218.062 446.643 231.673 440.909" fill="#483735"/>
      <polygon points="222.437 436.887 218.062 446.643 229.342 446.643 231.673 440.909 222.437 436.887" fill="#51342d"/>
      <polygon points="222.437 436.887 229.342 446.643 218.062 446.643 222.437 436.887" fill="#704b43"/>
      <polygon points="168.171 462.72 180.216 466.711 167.577 470.128 154.56 468.454 168.171 462.72" fill="#483735"/>
      <polygon points="158.935 458.698 154.56 468.454 165.84 468.454 168.171 462.72 158.935 458.698" fill="#51342d"/>
      <polygon points="158.935 458.698 165.84 468.454 154.56 468.454 158.935 458.698" fill="#704b43"/>
      <polygon points="497.82 468.239 481.937 470.85 472.195 465.907 486.214 465.105 497.82 468.239" fill="url(#radial-gradient-7)"/>
      <polygon points="476.026 460.955 472.195 465.86 479.85 468.319 485.812 465.18 481.217 460.955 476.026 460.955" fill="#66504d"/>
      <polygon points="476.026 460.955 479.003 462.938 479.85 468.319 472.195 465.86 476.026 460.955" fill="#806561"/>
      <polygon points="481.217 460.955 479.003 462.938 476.026 460.955 481.217 460.955" fill="#9f8380"/>
      <image width="565" height="233" transform="translate(274.8929 514)" opacity="0.81" xlink:href="idea22.png"/>
      <path d="M483.8358,565.7313s13.3148-17.0116,30.0879-5.3865c0,0-.3424,79.9419,30.8948,81.4254,0,0,4.9629,18.4942-.41,26.3264C544.4086,668.0966,483.7829,665.1786,483.8358,565.7313Z" transform="translate(-33.6595)" fill="url(#linear-gradient-88)"/>
      <path d="M483.8358,565.7313s-6.7293,88.3117,60.5728,102.3653c0,0-65.0962-31.0591-47.27-111.0709C497.1383,557.0257,484.0208,559.7582,483.8358,565.7313Z" transform="translate(-33.6595)" fill="url(#linear-gradient-89)"/>
      <path d="M578.0619,682.4247s3.3282-10.45,16.6-4.1786c0,0,44.3487,27.4252,2.1345,48.68,0,0-15.4949-.6626-21.7344-6.109C575.0624,720.8167,616.2575,707.9588,578.0619,682.4247Z" transform="translate(-33.6595)" fill="url(#linear-gradient-90)"/>
      <path d="M580.28,678.9467s43.7978,12.6023,11.0352,47.4476c0,0,53.1915-11.6724,3.3476-48.1482C594.6623,678.2461,585.1516,671.2052,580.28,678.9467Z" transform="translate(-33.6595)" fill="url(#linear-gradient-91)"/>
      <path d="M485.0172,592.6964s16.7382-15.6291,31.1987-1.0117l2.1465,12.3225s-21.07-4.5944-30.3089,4.5227Z" transform="translate(-33.6595)" fill="#ac604f"/>
      <path d="M494.1037,587.1148s.4676,15.2457,2.4753,16.8924l-8.5255,4.5227-3.0363-15.8335Z" transform="translate(-33.6595)" fill="#b97362"/>
      <path d="M533.4511,555.2624s-9.4938,17.5258-23.5195,4.8685C509.9316,560.1309,518.5069,546.6266,533.4511,555.2624Z" transform="translate(-33.6595)" fill="url(#linear-gradient-92)"/>
      <path d="M491.7791,545.1061s.1015,19.9318,18.44,15.39C510.2189,560.4958,509.03,544.5431,491.7791,545.1061Z" transform="translate(-33.6595)" fill="url(#linear-gradient-93)"/>
      <path d="M636.06,694.532s-9.4938,17.5258-23.5195,4.8686C612.5406,699.4006,621.1159,685.8963,636.06,694.532Z" transform="translate(-33.6595)" fill="url(#linear-gradient-94)"/>
      <path d="M493.707,625.291s10.2014-11.8281,29.2578-5.1982" transform="translate(-33.6595)" fill="none" stroke="#ac604f" stroke-miterlimit="10" stroke-width="3"/>
      <path d="M376.55,516.08s6.7043-14.43,32.2522-5.323c0,0-13.7917,106.926-83.804,71.78,0,0-9.9937-14.4092,6.9991-21.5315C331.9974,561.0055,380.6508,569.3178,376.55,516.08Z" transform="translate(-33.6595)" fill="url(#linear-gradient-95)"/>
      <path d="M389.6355,508.0133s19.8205-1.3527,19.1668,2.744c0,0-13.7943,108.4894-83.804,71.78C324.9983,582.537,392.6827,603.7437,389.6355,508.0133Z" transform="translate(-33.6595)" fill="url(#linear-gradient-96)"/>
      <path d="M388.6794,480.047s-20.0645,18.1206-8.4015,34.9336C380.2779,514.9806,402.2794,507.3024,388.6794,480.047Z" transform="translate(-33.6595)" fill="url(#linear-gradient-97)"/>
      <path d="M353.7933,510.6847s15.3662-12.83,27.63,3.6746C381.4234,514.3593,367.098,530.62,353.7933,510.6847Z" transform="translate(-33.6595)" fill="url(#linear-gradient-98)"/>
      <path d="M370.8964,546.2344c.8326-1.5728,5.231,12.823,25.0476,8.639l-8.7209,15.0214s-17.0994,2.4487-24.1016-15.3473C363.1215,554.5475,368.6454,550.4866,370.8964,546.2344Z" transform="translate(-33.6595)" fill="#ac604f"/>
      <path d="M395.944,554.8734s-6.3763,3.18-12.9019,0l-7.4745,13.6436s6.78,3.08,11.6555,1.3778Z" transform="translate(-33.6595)" fill="#b97362"/>
      <path d="M804.3062,481.8729s-39.5643,6.1019-30.628,47.0318c0,0,50.9175,31.7564,16.8859,51.1452,0,0-16.1705,8.5325-11.4152,16.1121,3.4692,5.53,28.1059.1048,32.3941-1.5647,20.1932-7.8623,21.8631-31.0521,19.4153-49.701-.4689-3.572-1.0857-7.2112-2.8351-10.3606-4.35-7.8314-13.7313-11.3576-18.8578-18.7219A39.1183,39.1183,0,0,1,804.3062,481.8729Z" transform="translate(-33.6595)" fill="url(#linear-gradient-99)"/>
      <path d="M773.6782,528.9047s-10.6773-11.3066,3.1793-29.105c0,0,87.58,89.9791,2.2914,96.3623,0,0-8.0422-4.3282,19.8143-23C798.9632,573.1617,816.2242,558.0915,773.6782,528.9047Z" transform="translate(-33.6595)" fill="url(#linear-gradient-100)"/>
      <path d="M855.6382,578.854s-3.3148-26.8167-24.5279-23.406C831.11,555.448,824.4285,579.4245,855.6382,578.854Z" transform="translate(-33.6595)" fill="url(#linear-gradient-101)"/>
      <path d="M850.61,532.6146s1.6523,20.071-19.66,24.18C830.95,556.795,825.7711,536.1689,850.61,532.6146Z" transform="translate(-33.6595)" fill="url(#linear-gradient-102)"/>
      <path d="M855.6382,578.854,830.95,556.795S824.9216,580.4783,855.6382,578.854Z" transform="translate(-33.6595)" fill="url(#linear-gradient-103)"/>
      <path d="M745.5466,649.4613s-52.4018,14.1114-9.3855,28.4c0,0-13.9519,13.7749-31.6385,1.0373C704.5226,678.899,687.65,650.7455,745.5466,649.4613Z" transform="translate(-33.6595)" fill="url(#linear-gradient-104)"/>
      <path d="M766.6573,653.5842s-15.8945,12.0272-23.4264-5.299C743.2309,648.2852,756.6253,639.5391,766.6573,653.5842Z" transform="translate(-33.6595)" fill="url(#linear-gradient-105)"/>
      <path d="M736.8632,626.5475s-9.9872,17.2493,8.1318,22.6C744.995,649.1471,752.0326,634.7814,736.8632,626.5475Z" transform="translate(-33.6595)" fill="url(#linear-gradient-106)"/>
      <path d="M677.3222,655.5841s8.315,14.5126,22.7144,5.1412C700.0366,660.7253,693.5329,643.8269,677.3222,655.5841Z" transform="translate(-33.6595)" fill="url(#linear-gradient-107)"/>
      <path d="M811.28,606.3162l12.6886-3.2538s22.5638,14.1886,19.5738,31.5631c0,0,1.2512,48.4961-47.1194,36.1853,0,0,41.0472-10.7936,37.0883-34.8022C833.5113,636.0086,833.9122,614.0563,811.28,606.3162Z" transform="translate(-33.6595)" fill="url(#linear-gradient-108)"/>
      <path d="M846.2424,629.473s-5.4488,30.6486-49.8194,41.3378,44.6171,8.7017,44.6171,8.7017l16.346-31.0567Z" transform="translate(-33.6595)" fill="#50263a"/>
    </g>
  </g>
</svg>
