<svg xmlns="http://www.w3.org/2000/svg" xmlns:xlink="http://www.w3.org/1999/xlink" width="822.2924" height="696.9628" viewBox="0 0 822.2924 696.9628">
  <defs>
    <clipPath id="clip-path" transform="translate(-1544.0233 -50.6087)">
      <rect width="2178.5581" height="1225.439" fill="none"/>
    </clipPath>
    <clipPath id="clip-path-3" transform="translate(-1544.0233 -50.6087)">
      <rect x="1855.1784" y="160.3124" width="80.323" height="73.9439" fill="none"/>
    </clipPath>
    <clipPath id="clip-path-4" transform="translate(-1544.0233 -50.6087)">
      <path d="M1699.7292,95.3119c-3.404,4.5387-21.5586,15.8853-30.055,27.01s-9.6583,27.4544-7.3889,37.6664,11.9548,16.237,11.9548,16.237l16.666,6.6208s31.5164-31.9352,34.92-46.6858,1.1347-22.6933-5.1219-36.4512-15.3021-19.1474-15.3021-19.1474c0,3.404-2.2693,10.212-5.6733,14.7506" fill="none"/>
    </clipPath>
    <linearGradient id="linear-gradient" x1="587.2146" y1="639.8843" x2="588.3492" y2="639.8843" gradientTransform="matrix(58.2866, 0, 0, -58.2866, -34109.5215, 37377.8067)" gradientUnits="userSpaceOnUse">
      <stop offset="0" stop-color="#76ad5c"/>
      <stop offset="0.2939" stop-color="#74a75c"/>
      <stop offset="0.7038" stop-color="#6d945b"/>
      <stop offset="1" stop-color="#67835a"/>
    </linearGradient>
    <clipPath id="clip-path-6" transform="translate(-1544.0233 -50.6087)">
      <path d="M1669.6742,172.956c-6.2282,1.62-13.0623,14.2638-15.3316,15.3985s-6.808,0-6.808,0c6.808,19.2893,20.424,17.02,32.9053,11.3467s11.3467-14.7507,11.3467-14.7507c-3.5437-9.7456-11.2378-12.5732-17.4058-12.5732a18.85,18.85,0,0,0-4.7066.5787" fill="none"/>
    </clipPath>
    <linearGradient id="linear-gradient-2" x1="578.0052" y1="646.1198" x2="579.1399" y2="646.1198" gradientTransform="matrix(37.6309, 0, 0, -37.6309, -20098.8111, 24504.1135)" gradientUnits="userSpaceOnUse">
      <stop offset="0" stop-color="#76ad5c"/>
      <stop offset="0.3014" stop-color="#74a95c"/>
      <stop offset="0.6233" stop-color="#709c5b"/>
      <stop offset="0.9536" stop-color="#68875a"/>
      <stop offset="1" stop-color="#67835a"/>
    </linearGradient>
    <clipPath id="clip-path-7" transform="translate(-1544.0233 -50.6087)">
      <path d="M1761.0624,124.57c-2.3861,1.685-4.8246,1.32-8.814.9566a57.5513,57.5513,0,0,0-15.0752.4209c-14.7507,2.2693-19.2893,20.424-19.2893,30.96,0,12.8047,2.2693,16.6955,8.51,19.3165s16.4526.7829,27.7187-4.89,20.5046-20.424,20.4239-37.97-4.62-23.5432-4.62-23.5432c-1.297,6.5663-4.3765,11.5883-8.8539,14.75" fill="none"/>
    </clipPath>
    <linearGradient id="linear-gradient-3" x1="585.7725" y1="643.222" x2="586.9072" y2="643.222" gradientTransform="matrix(63.8538, 0, 0, -63.8538, -35691.0096, 41216.5168)" gradientUnits="userSpaceOnUse">
      <stop offset="0" stop-color="#76ad5c"/>
      <stop offset="0.4223" stop-color="#75ab5c"/>
      <stop offset="0.6581" stop-color="#72a35c"/>
      <stop offset="0.8474" stop-color="#6d955b"/>
      <stop offset="1" stop-color="#67835a"/>
    </linearGradient>
    <clipPath id="clip-path-9" transform="translate(-1544.0233 -50.6087)">
      <rect x="1585.5364" y="50.6061" width="284.1317" height="286.2727" fill="none"/>
    </clipPath>
    <clipPath id="clip-path-10" transform="translate(-1544.0233 -50.6087)">
      <path d="M1835.8891,299.5517h15.7231l1.2969-20.4239s-1.1347,6.808-17.02,20.4239" fill="none"/>
    </clipPath>
    <linearGradient id="linear-gradient-4" x1="563.1768" y1="649.0619" x2="564.3114" y2="649.0619" gradientTransform="matrix(19.4437, 0, 0, -19.4437, -9117.9456, 12909.4978)" gradientUnits="userSpaceOnUse">
      <stop offset="0" stop-color="#dcd0dd"/>
      <stop offset="0.3628" stop-color="#daccda"/>
      <stop offset="0.7351" stop-color="#d5c0d1"/>
      <stop offset="1" stop-color="#cfb2c8"/>
    </linearGradient>
    <clipPath id="clip-path-11" transform="translate(-1544.0233 -50.6087)">
      <path d="M1909.1647,380.3535l-35.8316,22.4528-12.4813,23.828,4.4944,10.1745c13.5706-7.98,18.1989-22.6558,18.1989-22.6558l35.1746,20.424a76.0491,76.0491,0,0,0,14.7507-20.424l-39.7133-7.9427c9.0773-1.1346,26.0973-10.212,27.2319-24.9626s-17.1583-77.11-17.1583-77.11Z" fill="none"/>
    </clipPath>
    <linearGradient id="linear-gradient-5" x1="593.139" y1="642.5193" x2="594.2737" y2="642.5193" gradientTransform="matrix(0, 116.7348, 116.7348, 0, -73107.1892, -68945.3357)" gradientUnits="userSpaceOnUse">
      <stop offset="0" stop-color="#b19db2"/>
      <stop offset="0.3811" stop-color="#b7a0b7"/>
      <stop offset="0.8661" stop-color="#c6aac7"/>
      <stop offset="1" stop-color="#ccadcc"/>
    </linearGradient>
    <clipPath id="clip-path-13" transform="translate(-1544.0233 -50.6087)">
      <path d="M1863.1211,249.3019h12.1976l22.2418,26.9154,16.62,14.2571s10.212,31.7707,11.3467,39.7133,3.404,20.424,3.404,21.5587,1.1347,2.2693,2.2693,0,1.1347-29.5013-1.1346-36.3093-4.5387-12.4814-3.404-12.4814,10.212,21.5587,13.6159,35.1747,5.6734,21.5586,5.6734,21.5586v40.9081s9.0773-11.4068,11.3466-14.8108,10.212-17.02,11.3467-26.0973,1.1347-23.828,0-36.3093-6.808-49.9253-13.616-60.1373c0,0-21.8423-1.48-38.72-6.98s-16.7125-8.47-16.7125-8.47-25.9282-9.7467-31.2022-15.3021c-.0306-.0318-.06-.0646-.09-.0953Zm5.1831-16.9076.09-.2939s-2.2306-2.1865-2.34-2.1854a24.7933,24.7933,0,0,0,2.25,2.4793" fill="none"/>
    </clipPath>
    <linearGradient id="linear-gradient-6" x1="593.0964" y1="643.038" x2="594.231" y2="643.038" gradientTransform="matrix(0, 129.3081, 129.3081, 0, -81233.599, -76453.4849)" gradientUnits="userSpaceOnUse">
      <stop offset="0" stop-color="#b19db2"/>
      <stop offset="0.0038" stop-color="#b19db2"/>
      <stop offset="0.1829" stop-color="#bca5bd"/>
      <stop offset="0.4385" stop-color="#c4aac5"/>
      <stop offset="0.9928" stop-color="#c6acc7"/>
      <stop offset="1" stop-color="#c6acc7"/>
    </linearGradient>
  </defs>
  <g id="Layer_2" data-name="Layer 2">
    <g id="Layer_1-2" data-name="Layer 1">
      <g>
        <g clip-path="url(#clip-path)">
          <polygon points="264.634 136.611 263.499 124.13 319.098 109.704 391.473 174.055 380.37 209.23 277.115 157.035 264.634 136.611" fill="#f4f4f4"/>
          <polygon points="264.224 132.102 311.155 120.726 388.446 183.648 380.369 209.23 277.115 157.036 264.633 136.612 264.224 132.102" fill="#c6acc7"/>
          <g clip-path="url(#clip-path)">
            <g opacity="0.22">
              <g clip-path="url(#clip-path-3)">
                <polygon points="319.098 109.703 311.155 120.725 388.445 183.647 391.473 174.055 319.098 109.703" fill="#ddd"/>
              </g>
            </g>
            <path d="M1664.692,176.1508s-12.6187,1.5057-17.1574-9.0308-1.7825-13.9405-.8919-20.7485.3552-9.0365-1.6452-10.1916-7.6749-1.1551-7.6749-1.1551,2.2693-3.7273,10.212-4.1336,14.7507,4.1336,15.8853,7.5376,13.616,37.444,13.616,37.444Z" transform="translate(-1544.0233 -50.6087)" fill="#76ad5c"/>
            <path d="M1723.5572,115.7359s2.2693-9.0773,7.9427-13.616,12.4813-7.9426,14.7506-11.3466,3.404-4.5387,4.5387-9.0774a46.4211,46.4211,0,0,1,10.212,24.9627c1.1346,14.7506-13.616,22.6933-14.7507,22.6933s-20.9414,8.594-20.9414,8.594l-7.4252-8.594Z" transform="translate(-1544.0233 -50.6087)" fill="#67835a"/>
          </g>
          <g clip-path="url(#clip-path-4)">
            <rect x="115.9925" y="29.9526" width="69.2146" height="102.2845" fill="url(#linear-gradient)"/>
          </g>
          <g clip-path="url(#clip-path)">
            <path d="M1923.542,429.2953s16.7363,4.1473,19.0057,6.4166-6.808,4.5387-6.808,18.1547,3.404,22.6933,24.9626,24.9626,7.9427-47.656,7.9427-47.656l-5.6733-20.4239-7.9427-2.2694Z" transform="translate(-1544.0233 -50.6087)" fill="#f2fdff"/>
            <path d="M1923.542,429.2953l15.91,4.7793,16.7114-21.056a158.5762,158.5762,0,0,1,5.47,37.444c.2032,19.2893-3.4709,28.0523-3.4709,28.0523s11.86,3.0909,20.2481,0c0,0,5.309,2.7334,9.1182.3892,0,0,7.8609-39.7882,2.4315-65.8855L1953.3,386.9213l-23.6385,23.25Z" transform="translate(-1544.0233 -50.6087)" fill="#c7a8c7"/>
            <polygon points="311.155 120.726 277.115 157.035 380.37 209.23 388.445 183.648 311.155 120.726" fill="#b5a1b7"/>
            <polyline points="334.356 170.003 368.336 203.147 338.387 194.479" fill="#b5a1b7"/>
            <polyline points="338.387 194.479 313.05 183.648 300.376 168.794 334.355 170.003" fill="#b5a1b7"/>
            <path d="M1707.6719,152.0452c-8.812,5.0345-23.828,26.0973-24.9627,52.1946s22.6933,71.484,35.1747,89.6386,31.7706,39.7133,31.7706,39.7133l35.1746-3.404,35.1747-19.2893,23.828-52.1946-44.252-76.0226-51.06-32.9053-17.02-3.404s-15.8854,1.1346-23.828,5.6733" transform="translate(-1544.0233 -50.6087)" fill="#fdf47f"/>
            <path d="M1720.705,147.8446s28.95,4.2,58.4511,33.7018,49.9253,61.272,49.9253,82.8306-19.2893,47.656-37.444,56.7333-51.0757,1.9516-51.0757,1.9516,6.8238,8.26,9.0931,10.53l35.1746-3.404,35.1747-19.2893,24.9626-26.0973,18.1547-51.06-2.5122-2.0787s-24.72-27.4226-48.5478-50.116-34.0717-43.5756-91.3564-33.7018" transform="translate(-1544.0233 -50.6087)" fill="#d3b871"/>
          </g>
          <g clip-path="url(#clip-path-6)">
            <rect x="1641.646" y="161.5737" width="57.1637" height="56.8737" transform="translate(-1210.1219 1159.2041) rotate(-43.8389)" fill="url(#linear-gradient-2)"/>
          </g>
          <g clip-path="url(#clip-path-7)">
            <rect x="1707.3457" y="101.9132" width="77.8097" height="84.8417" transform="translate(-1478.5564 588.8915) rotate(-21.1402)" fill="url(#linear-gradient-3)"/>
          </g>
          <g clip-path="url(#clip-path)">
            <path d="M1715.6145,254.1651c-2.2693,1.1347-1.1346,9.0773,1.1347,11.3467s5.1467,2.2693,6.5447,0,.2633-5.6734-.8714-7.9427-4.5386-4.5386-6.808-3.404" transform="translate(-1544.0233 -50.6087)" fill="#080415"/>
            <path d="M1717.8839,247.3571h-6.2612s-2.8162-1.1346-1.6815-3.404,7.9427,3.404,7.9427,3.404" transform="translate(-1544.0233 -50.6087)" fill="#080415"/>
            <path d="M1739.4425,236.0105h3.404s2.2693-4.5387,2.2693-7.9427-6.8079,5.6733-5.6733,7.9427" transform="translate(-1544.0233 -50.6087)" fill="#080415"/>
            <path d="M1741.7119,241.6838c-2.8708,1.4354,0,7.9427,4.5386,12.4813s9.0773-1.1346,6.808-5.6733-9.0773-7.9427-11.3466-6.808" transform="translate(-1544.0233 -50.6087)" fill="#080415"/>
            <g opacity="0.22">
              <g clip-path="url(#clip-path-9)">
                <path d="M1748.7016,332.5845s-11.0416,8.95-49.2968,1.0076-97.2567-35.1747-110.8727-112.3319,20.424-122.5439,77.1573-155.4492,142.269-10.6987,180.0624,50.2487,19.4889,110.3689,19.4889,110.3689l-44.75,88.8273Z" transform="translate(-1544.0233 -50.6087)" fill="#fffffd"/>
              </g>
            </g>
            <path d="M1748.7016,332.5845s-2.4509,6.6809,2.0877,10.0849l-12.4813,49.9253s-19.2893,21.5586-26.0973,40.8479c0,0,9.0773,7.3754,38.5786,10.4957l37.444-19.573,6.808-34.04s13.616,13.616,28.3666,21.5587,47.656,29.5013,66.9453,38.5786c0,0,5.6733-1.1346,28.3666-15.8853l3.404-11.3466,11.3467-9.0774h1.1347s9.0773-11.3466,12.4813-14.7506,17.02-39.7133,17.02-39.7133l-5.6734-73.7533-3.404-22.6933s0-1.1347-6.808-10.212c0,0-28.3666,2.2693-53.3292-6.808s-27.232-14.7507-27.232-14.7507l-7.9427,15.8854-12.4813,18.1546s-11.3467,27.232-37.444,45.3866-49.5633,24.0834-61.09,21.6858" transform="translate(-1544.0233 -50.6087)" fill="#fff"/>
            <polygon points="221.517 309.08 228.325 326.1 226.271 383.133 244.21 373.756 251.018 339.716 221.517 309.08" fill="#c4aac5"/>
          </g>
          <g clip-path="url(#clip-path-10)">
            <rect x="1831.1284" y="276.4257" width="26.5412" height="25.8283" transform="translate(-1028.8948 1549.6717) rotate(-53.5178)" fill="url(#linear-gradient-4)"/>
          </g>
          <g clip-path="url(#clip-path-11)">
            <rect x="1821.5385" y="306.7318" width="151.245" height="127.4833" transform="translate(-884.2412 1804.9115) rotate(-61.2476)" fill="url(#linear-gradient-5)"/>
          </g>
          <g clip-path="url(#clip-path)">
            <path d="M1969.4517,347.0542a30.2487,30.2487,0,0,1,15.0785-2.1162c7.9426,1.1347,7.9426,3.404,7.9426,6.808s-2.2693,20.424,9.0774,31.7707,30.6359,3.404,30.6359,3.404l7.9427-20.424-11.3467-38.5787-14.7506-11.3466-21.5587-10.212-18.1546,3.404-7.1734,1.4126-1.8631,29.7907Z" transform="translate(-1544.0233 -50.6087)" fill="#f0feff"/>
            <path d="M1966.9552,314.2121s27.7867-2.1785,42.5373,8.0334l18.1547,21.5587,4.5387,43.1173s15.8853-4.5387,19.2893-13.616c0,0,2.2693-12.7673-1.702-22.8363s-9.6447-20.7678-9.6447-26.7656-4.5386-21.882-12.4813-29.8247-22.6933,0-31.7706,2.2693-31.0546.8272-31.0546.8272l-.7161,15.5438Z" transform="translate(-1544.0233 -50.6087)" fill="#c9adc6"/>
          </g>
          <g clip-path="url(#clip-path-13)">
            <rect x="1816.1622" y="228.7701" width="200.5763" height="172.9709" transform="translate(-785.305 1824.0777) rotate(-62.751)" fill="url(#linear-gradient-6)"/>
          </g>
          <g clip-path="url(#clip-path)">
            <path d="M1863.9765,402.208l22.9724-51.5966s3.404-59.0026-2.2693-77.1572-5.6733-26.0974-22.6933-21.5587c0,0,3.2825-5.1457,12.9873-4.8428s16.514,11.6508,24.4566,34.3441,10.212,113.4666,10.212,113.4666-11.9049,11.2842-45.6657,7.3446" transform="translate(-1544.0233 -50.6087)" fill="#c8acc5"/>
            <path d="M1608.956,212.1825a67.3955,67.3955,0,0,1,5.6733-13.616s-2.2693-48.7906,14.7506-69.2146v-5.5111l-3.4039-2.4316s-22.6934,20.424-24.9627,40.848-2.2693,35.1746-2.2693,35.1746,7.6181,12.4814,7.78,14.7507Z" transform="translate(-1544.0233 -50.6087)" fill="#fffffd"/>
            <path d="M1620.87,239.9818s-3.8092.6309-5.5929,3.4358,1.702,15.2862,2.7969,16.4208,9.0366,5.6734,14.71,3.404c0,0-1.1346-10.1529,0-11.3171,0,0-5.6733-12.5108-11.9139-11.9435" transform="translate(-1544.0233 -50.6087)" fill="#fffffd"/>
            <path d="M1624.277,494.7367s103.6962-92.5858,202.8838-102.71l51.8481,25.9443s36.0682,69.8822,42.831,90.1706,31.56,108.2047,31.56,108.2047-42.831,33.8139-74.3907,42.831c0,0,15.78-31.56,6.7628-56.3566s-42.831-29.3055-78.8993-18.0341-42.831,49.5938-38.3225,63.1194,31.56,36.0682,51.8481,31.56c0,0-83.4078,40.5768-114.9675,40.5768l-33.814-67.628s-42.831,33.814-72.1364,13.5256-40.5768-47.6618-13.5256-79.0593c27.0512-31.4,54.1023-8.857,54.1023-8.857s-15.78-40.5768-15.78-101.4419" transform="translate(-1544.0233 -50.6087)" fill="#ff6d87"/>
            <path d="M1833.62,393.729s-9.0774,3.404-9.0774,11.3467,9.0774,5.0958,9.0774,5.0958-3.404,10,4.5386,15.5007,18.1547,5.5008,27.232-2.4419,9.0773-14.7506,7.9427-20.424a95.2652,95.2652,0,0,1-23.828-3.404c-11.3467-3.404-15.8853-5.6733-15.8853-5.6733" transform="translate(-1544.0233 -50.6087)" fill="#f3fdff"/>
            <path d="M1863.9765,402.208s2.5484,8.5407-6.5289,16.4834a27.7623,27.7623,0,0,1-19.2893,6.98s12.1568,9.3417,24.8-.5219,11.509-16.6705,10.3743-22.3439c0,0-7.3663-.0624-9.3564-.598" transform="translate(-1544.0233 -50.6087)" fill="#c8acc5"/>
          </g>
        </g>
        <path d="M1929.2606,243.0406s113.7637,35.2436,185.9078-25.4532c25.28-21.269,61.9256-72.1242,31.7462-103.7349-16.3723-17.1483-41.5449-14.04-59.2374-.7178-21.99,16.5585-28.4955,44.2809-15.9378,69.045,17.3073,34.13,66.5528,46.9676,101.7,51.071,0,0,144.2874,5.8739,185.9087-45.034" transform="translate(-1544.0233 -50.6087)" fill="none" stroke="#887d86" stroke-miterlimit="10" stroke-width="18"/>
        <path d="M2155.6858,230.7212c5.5221.994,10.889,1.7682,15.9621,2.3605,0,0,5.0726.2065,13.59.2065" transform="translate(-1544.0233 -50.6087)" fill="none" stroke="#b6b8ba" stroke-miterlimit="10" stroke-width="18"/>
        <path d="M2104.0772,213.733a146.9935,146.9935,0,0,0,27.5874,11.573" transform="translate(-1544.0233 -50.6087)" fill="none" stroke="#b6b8ba" stroke-miterlimit="10" stroke-width="18"/>
        <path d="M2067.7414,173.41a60.7292,60.7292,0,0,0,3.3072,7.8175,62.347,62.347,0,0,0,10.77,15.0053" transform="translate(-1544.0233 -50.6087)" fill="none" stroke="#b6b8ba" stroke-miterlimit="10" stroke-width="18"/>
        <path d="M2082.7225,117.42a54.8545,54.8545,0,0,0-13.3087,19.3289" transform="translate(-1544.0233 -50.6087)" fill="none" stroke="#b6b8ba" stroke-miterlimit="10" stroke-width="18"/>
        <path d="M2138.4822,107.3476c-9.4275-5.63-20.4574-6.499-31.001-3.8962" transform="translate(-1544.0233 -50.6087)" fill="none" stroke="#575157" stroke-miterlimit="10" stroke-width="18"/>
        <path d="M2157.3387,151.23c1.6243-9.459.92-18.7807-3.2229-27.2728" transform="translate(-1544.0233 -50.6087)" fill="none" stroke="#575157" stroke-miterlimit="10" stroke-width="18"/>
        <path d="M2133.55,198.8375a138.8759,138.8759,0,0,0,14.5233-21.6781" transform="translate(-1544.0233 -50.6087)" fill="none" stroke="#575157" stroke-miterlimit="10" stroke-width="18"/>
        <path d="M2086.6655,236.1967a138.3969,138.3969,0,0,0,12.8341-7.7995" transform="translate(-1544.0233 -50.6087)" fill="none" stroke="#575157" stroke-miterlimit="10" stroke-width="18"/>
        <path d="M2031.4906,251.737a190.0219,190.0219,0,0,0,31.975-6.4482" transform="translate(-1544.0233 -50.6087)" fill="none" stroke="#575157" stroke-miterlimit="10" stroke-width="18"/>
        <path d="M1959.4913,250.2582a284.895,284.895,0,0,0,35.3186,2.9575" transform="translate(-1544.0233 -50.6087)" fill="none" stroke="#575157" stroke-miterlimit="10" stroke-width="18"/>
        <g>
          <path d="M1823.5245,391.1237s-83.8921,16.57-162.9625,71.5424c0,0,221.7615-21.7384,289.2014,152.7772,0,0-31.2708-166.1905-74.3908-198.3753l-13.6185,5.2591s-13.6161,7.1523-27.2321,2.4415-26.0973,6.6358-24.9626-4.7108" transform="translate(-1544.0233 -50.6087)" fill="#ad3b5c" opacity="0.28"/>
          <path d="M1826.8184,391.8561s-82.0388,8.555-202.8838,102.71c0,0,5.6547,58.8037,15.78,83.2872,0,0-21.505-19.6289-54.1023,8.8571,0,0-44.6469,55.3658,28.7014,85.0432,0,0-87.0178-6.6319-54.4908-89.0843,0,0,13.616-24.9626,46.9-27.232,0,0-18.9111-34.04-15.1289-70.3492,0,0,12.3224-38.8459,196.785-101.4971Z" transform="translate(-1544.0233 -50.6087)" fill="#d15472"/>
          <path d="M1591.5934,485.0879l32.3412,9.478s6.4111,64.8553,15.78,83.2872l-32.9921-22.416S1586.2983,519.1278,1591.5934,485.0879Z" transform="translate(-1544.0233 -50.6087)" fill="#ad3b5c"/>
          <path d="M1796.0154,589.0608s68.35-30.7275,89.4139,13.5892c0,0,11.0162,26.7921-6.7628,56.3567l-26.1-11.2834s3.226-55.4884-73.2749-44.386C1779.2916,603.3373,1786.4653,592.6865,1796.0154,589.0608Z" transform="translate(-1544.0233 -50.6087)" fill="#ad3b5c"/>
          <polygon points="127.251 601.635 161.065 669.263 123.214 656.874 101.788 616.157 127.251 601.635" fill="#ad3b5c"/>
        </g>
        <g>
          <image width="304" height="200" transform="translate(83 388.9628)" xlink:href="seek_right1.png"/>
          <image width="304" height="200" transform="translate(83 388.9628)" xlink:href="seek_right2.png"/>
          <image width="304" height="200" transform="translate(83 388.9628)" xlink:href="seek_right3.png"/>
          <text transform="matrix(0.9202, -0.3915, 0.3915, 0.9202, 131.3302, 546.4255)" font-size="35.3425" fill="#fff" font-family="aAtmospheric, a Atmospheric">INVESTOR</text>
        </g>
        <g>
          <image width="439" height="387" transform="translate(0 309.9628)" xlink:href="seek_right4.png"/>
          <image width="439" height="387" transform="translate(0 309.9628)" xlink:href="seek_right5.png"/>
          <path d="M1641.4681,582.8169c-6.2808-2.9557-15.8621-2.6122-22.46-1.7191-19.9962,2.707-39.3757,24.4647-36.2032,45.4437,2.2585,14.9346,16.6071,28.5551,30.9739,31.763,7.3888,1.65,15.0958,1.1509,22.4428-.4649,13.3416-2.9342,25.8975-11.1767,39.2131-15.2636l36.0042,66.567,75.6444-27.61s-69.2146-55.7674,9.8337-100.88c0,0,59.3809-25.4456,87.3693,4.0557,0,0,20.8022,19.6676,13.2378,57.49l46.8995-28.29S1904.4845,470.8365,1873.9616,428.3c0,0-28.2536,19.4918-50.5687-8.8749,0,0-6.925-10.2542-3.404-20.0457,0,0-150.6324,60.9041-185.707,99.0941l13.616,87.3693Z" transform="translate(-1544.0233 -50.6087)" fill="none" stroke="#fff" stroke-miterlimit="10" stroke-width="3"/>
        </g>
        <g>
          <image width="512" height="512" transform="matrix(0.1164, -0.0411, 0.0411, 0.1164, 134.0444, 576.0947)" opacity="0.5" xlink:href="seek_right6.png"/>
          <image width="512" height="512" transform="translate(141.281 579.7167) rotate(-19.4326) scale(0.1213)" xlink:href="seek_right7.png"/>
        </g>
      </g>
    </g>
  </g>
</svg>
