<svg xmlns="http://www.w3.org/2000/svg" xmlns:xlink="http://www.w3.org/1999/xlink" width="1931.5212" height="1080" viewBox="0 0 1931.5212 1080">
  <defs>
    <clipPath id="clip-path">
      <path d="M446.5212,570c-66,6-164,145-164,145v14.929l106,38.071,141-3,73-17,17-25c-6.837-33.207-102.378-153.22-168.321-153.209-1.574,0-3.14.069-4.679.209" fill="none"/>
    </clipPath>
    <linearGradient id="linear-gradient" x1="-82.6159" y1="1682.8847" x2="-81.6159" y2="1682.8847" gradientTransform="matrix(0, 193.5397, 193.5397, 0, -325254.0361, 16549.5002)" gradientUnits="userSpaceOnUse">
      <stop offset="0" stop-color="#d5a8a2"/>
      <stop offset="0.0463" stop-color="#d5a8a2"/>
      <stop offset="0.0763" stop-color="#d9afaa"/>
      <stop offset="0.1984" stop-color="#e6c7c3"/>
      <stop offset="0.3338" stop-color="#f0d9d7"/>
      <stop offset="0.4878" stop-color="#f7e6e5"/>
      <stop offset="0.6766" stop-color="#fbeeee"/>
      <stop offset="1" stop-color="#fcf0f0"/>
    </linearGradient>
    <clipPath id="clip-path-2">
      <path d="M376.3322,748.424l-.152-.042c-1.221,4.813-.855,3.645.152.042m0,0L396.5212,754l-14-28.25s-4.264,15.789-6.189,22.674M291.5212,725l84.659,23.382c.965-3.806,2.923-11.351,6.341-24.382,16-61,64-154,64-154-60,5-155,155-155,155" fill="none"/>
    </clipPath>
    <linearGradient id="linear-gradient-2" x1="-83.0937" y1="1682.9569" x2="-82.0937" y2="1682.9569" gradientTransform="matrix(0, 167.7859, 167.7859, 0, -282007.3451, 14522.0865)" gradientUnits="userSpaceOnUse">
      <stop offset="0" stop-color="#ba7e74"/>
      <stop offset="0.0179" stop-color="#bc8279"/>
      <stop offset="0.1217" stop-color="#c49690"/>
      <stop offset="0.2414" stop-color="#cba6a2"/>
      <stop offset="0.3845" stop-color="#d0b1af"/>
      <stop offset="0.5744" stop-color="#d2b7b6"/>
      <stop offset="1" stop-color="#d3b9b8"/>
    </linearGradient>
    <clipPath id="clip-path-3">
      <rect x="278.6442" y="506.963" width="349.559" height="257.037" fill="none"/>
    </clipPath>
    <linearGradient id="linear-gradient-3" x1="662.0389" y1="523.3069" x2="947.2921" y2="523.3069" gradientUnits="userSpaceOnUse">
      <stop offset="0" stop-color="#f7ff74"/>
      <stop offset="0.1349" stop-color="#f9fa5d"/>
      <stop offset="0.3983" stop-color="#fbf035"/>
      <stop offset="0.6393" stop-color="#fdea18"/>
      <stop offset="0.8478" stop-color="#ffe506"/>
      <stop offset="1" stop-color="#ffe400"/>
    </linearGradient>
  </defs>
  <g id="Layer_2" data-name="Layer 2">
    <g id="Layer_1-2" data-name="Layer 1">
      <g>
        <polyline points="53.521 0 53.521 1080 1887.719 1080" fill="none"/>
        <polyline points="1931.521 1080 11.521 1080 11.521 0" fill="none"/>
        <polyline points="1931.521 1080 11.521 1080 11.521 0" fill="none"/>
        <polyline points="1931.521 1080 11.521 1080 11.521 0" fill="none"/>
        <polyline points="1931.521 1080 11.521 1080 11.521 0" fill="none"/>
        <polyline points="1931.521 1080 11.521 1080 11.521 0" fill="none"/>
        <polyline points="1931.521 1080 11.521 1080 11.521 0" fill="none"/>
        <path d="M606.382,943.6211,640.521,1016l39-9,72-36-8-9,4-8s-5-21-14-25-18.2851-4-30.6431,0-23.4959,11.286-23.926,20.142c0,0-6.644-11.447-7.537-18.294L660.521,929l-20,14Z" fill="#fffdf1"/>
        <path d="M606.382,943.6211,640.521,1016l39-9,72-36s-2-9-4-17c0,0-21.7851,14-27.3931,17s-36.6069,9-42.6069,7-15-10-17-17c0,0,7-11,6-16s-10.396-10.333-10.396-10.333H636.396Z" fill="#ccb4c5"/>
        <path d="M417.967,954.4609,418.521,998l46-3,1,35-12,10-3,1s21,4,25,4c0,0,6-8,8-10s15-11,15-23-2-21-16-31-29-11-38-8a67.5218,67.5218,0,0,0-16,8l6.337-26.085L434.521,950Z" fill="#fffdf0"/>
        <path d="M365.2351,950.9883S362.5211,979,359.5211,991a195.0444,195.0444,0,0,1-8,24s-3,8-1,11,22,8,42,10,33,2,42,3,16,2,16,2,13,0,17-3,7-14,8-27,0-18-9-24-26-5-43-3V961c0-10-1-12-1-12Z" fill="#d1b8c9"/>
        <path d="M348.0886,635.9141S336.5216,616,328.5216,615s-98,39-98,39-64,132-55,184l60,29Z" fill="#fbfcf6"/>
        <path d="M348.0886,635.9141s-3.429-5.497-6.499-9.705c0,0-40.068,1.791-99.068,39.791,0,0-20.572,26.346-67.857,162.115a45.7976,45.7976,0,0,0,.857,9.885l60,29,65.11-133.664Z" fill="#dbc4d8"/>
        <polyline points="1931.521 1080 11.521 1080 11.521 0" fill="none"/>
        <g clip-path="url(#clip-path)">
          <rect x="282.5212" y="569.78" width="337" height="198.22" fill="url(#linear-gradient)"/>
        </g>
        <path d="M501.5212,640c-2,0-3,8.911,0,14.955s8,2.045,7-3.955-5-11-7-11" fill="#050704"/>
        <path d="M532.5212,628c-2,0-3,3-2,7s3,9,6,8,2-7.411,0-10.705-3-4.295-4-4.295" fill="#050704"/>
        <polyline points="1931.521 1080 11.521 1080 11.521 0" fill="none"/>
        <g clip-path="url(#clip-path-2)">
          <rect x="291.5212" y="570" width="155" height="184" fill="url(#linear-gradient-2)"/>
        </g>
        <path d="M483.5212,683c-6.705-2.012-12,6-9,10s12.857,4,16.429,0,2.571-7-7.429-10" fill="#fabdb8"/>
        <path d="M559.5212,656c-4.528,4.527-3,9.768,0,9.884s8-3.884,7-8.884-3-5-7-1" fill="#fabdb8"/>
        <g opacity="0.14">
          <g clip-path="url(#clip-path-3)">
            <path d="M282.455,723.7013s-23-60,22-125,104-84,148-83,113,26,143,75,38,90,24,141,.4939-1.84.4939-1.84l-12.7279,19.831-137.766,23.009-155-20Z" fill="#fff"/>
          </g>
        </g>
        <path d="M282.5212,715l-9,23-9,10s-24,37-31,89-8,64-6,80c0,0,2,4,13,9h119.286l115.714,17,72,7s28-3,30-1l5-11,6-4,34,6s39-2,92-24c0,0-5-37-14-62s-27-57-27-57l-54-74s-26,18-70,24-94,7-143,3-106-19-124-35" fill="#fffdf1"/>
        <path d="M282.5212,715s-7,0-8,4,1,9,1,9a159.4171,159.4171,0,0,0-11,20l6-5s-17,46-24,81-6,102-6,102,30,15,59,18,87,11,146,11,88-2,102-5c0,0-64-16-102-40,0,0-21-29-27-63s8-63,16-68,42-3,48-4l8-4-7.286-3s-45.714,1-78.714-1c0,0-12.346-16.232-13.673-18.616,0,0-36.408-4.026-60.868-12.205S282.5212,715,282.5212,715" fill="#d3becc"/>
        <path d="M425.92,790.4141c-5.399.586-11.399,1.586-11.399,1.586l-4,14,6.978,15.219L430.5211,813Z" fill="#fffef1"/>
        <polygon points="414.521 792 412.521 794 410.521 806 418.628 799 414.521 792" fill="#fffef1"/>
        <path d="M414.5212,792s-17,9-20,23-3,32,14,42,101,42,112,45c0,0,5-3,19-7s69-20,76-21,19-2,19-2-7-33-18-49a114.8391,114.8391,0,0,0-15,5c-7,3-26,16-38,21s-31,12-37,13-44-10-52-13-40-16-50-26-14-25-10-31" fill="#d1b8ca"/>
        <path d="M604.8545,782.7967l3.4335-15.4505,5.15-3.4334s6.8669-42.918,13.7338-68.6688,25.7508-82.4025,29.1842-87.5527l85.8359,18.8839s-17.1672,20.6007-17.1672,32.6177,15.45,30.9009,36.0511,39.4845,41.2013,0,49.7849-17.1671,5.15-37.7679,5.15-37.7679S917.2974,664.3431,922.4475,666.06l5.15,3.4334-5.15,37.7678,32.6177-8.5836L989.4,724.4282l-9.32,58.3685-59.3486,17.1672-32.6177,53.2182s-42.9179,0-103.0031-12.017a985.4205,985.4205,0,0,1-106.4366-27.4675l-63.5186-18.8839-10.3-5.15Z" fill="#ffbbb2"/>
        <path d="M917.8738,666.06s0,15.4505-1.938,24.034-8.099,32.6177-5.9866,40.3429c0,0,23.4287-23.1757,40.8708-21.4589s29.07,8.5835,31.0082,24.034-9.69,32.6177-21.3181,41.2013-36.8222,12.017-44.5743,8.5836a31.3377,31.3377,0,0,1-11.6281-8.5836s-1.938,22.3173-7.752,39.4845-17.4421,39.4845-17.4421,39.4845,104.6527,17.1672,122.0948,20.6007,127.9088,18.8839,127.9088,18.8839l19.38-65.2353,15.5041-73.819s7.7521-34.3343,1.938-46.3514c0,0-38.76-10.3-52.3263-10.3h-1.938s29.07-20.6006,29.07-30.9009,0-25.7508-23.2562-39.4846-48.45-12.017-63.9544-3.4334-21.3181,18.8839-17.4421,32.6177,19.38,34.3343,19.38,34.3343Z" fill="#b4efff"/>
        <path d="M667.5164,610.1474s-12.8771-186.1455.8566-201.596c0,0,187.1224-20.6006,262.658-22.3173,0,0,12.017,27.4675,6.8669,84.1192,0,0-8.5836-25.7508-37.7678-25.7508S860.6455,477.22,864.079,490.9539s15.45,36.0511,42.9179,39.4846,32.6177-13.7338,34.3344-22.3174c0,0,8.5836,44.6347,5.15,75.5357s-5.3957,26.4906-5.3957,26.4906-6.6214-2.4566-20.3551-4.1733-77.2524-1.7167-92.7028,5.15c0,0,10.3,6.8668,8.5836,17.1671s-22.3174,22.3174-37.7679,29.1843-44.6346,1.7167-48.0681-17.1672,3.4335-25.7508,8.5836-27.4675c0,0-77.2489,3.1948-91.8427-2.6936" fill="url(#linear-gradient-3)"/>
        <path d="M599.5212,767s11-2,13,0c0,0-2,8-2,11,0,0,8,2.143,9,3.571,0,0,4-8.571,12-9.571s11,1,12,5,0,5.429,0,5.429,5.714.571,9.857,9.571,4.143,19,1.143,29-11,14-18,16a34.54,34.54,0,0,1-12.1331,1.423L627.5212,824l-6-31-14,4.107-7-24.107Z" fill="#fdfbef"/>
        <path d="M600.5212,800.0713s-.91-11.655,4.545-12.863a8.4652,8.4652,0,0,1,8.455,2.792s12.5-5.038,16.75-3.02c4.25,2.02,6.25,6.806,5.25,13.412a5.4494,5.4494,0,0,1,3,2.608c1,2,1,9,1,9s2,0,3,3a21.8068,21.8068,0,0,1,0,14c-2,6-5,9-10,9s-9.52-3.115-9.52-3.115-4.48-8.885-5.48-9.885-7-11.929-17-24.929" fill="#e5cfde"/>
        <path d="M582.5212,938s10-28,17-40,10-11,16-5,6.0539,6,5.527,9-6.527,12-9.527,15-16,12-16,12l-2,4-5,1a59.2259,59.2259,0,0,1-6,4" fill="#ccb4c4"/>
        <path d="M595.5212,929s22-8,34-11,42-12,43-10,2,4-2,7-21.8571,7-31.929,14-16.071,11-16.071,11a126.3428,126.3428,0,0,1-19,4c-9,1-8.991,0-8.991,0s-5.009-7-6.009-10c0,0,1-2,7-5" fill="#ceb6c7"/>
        <path d="M766.1268,828.605s2.6218,6.0735-4.5883,11.3665-12.6944,5.2176-21.8785,3.7468-11.9983-6.0618-11.9983-6.0618l2.9027-12.6717,13.1239-6.3058,8.898,4.5636,4.3073,7.3788Z" fill="#faf8eb"/>
        <path d="M766.1268,828.605s-1.0375-3.4454-3.1776-4.0934-5.4654.9359-5.4654.9359-1.1508-9.9485-4.4453-11.4134-8.898-4.5635-15.7976-3.382-13.426,5.9223-14.4737,13.928,4.8945,13.0764,4.8945,13.0764,3.24-10.7,8.8166-13.6845,10.6734-2.8424,13.32.7626,2.336,7.7164,4.6449,9.35,11.0594-5.8071,11.6837-5.48" fill="#d3b6cc"/>
        <path d="M571.5212,600a84.9846,84.9846,0,0,1-5-13s-8-13-31-30-39-28-49-23,9,11,16,15,23,17,34,27,16,17,19,19,10,2,15,6Z" fill="#fefffb"/>
        <path d="M585.5212,620c-2.846-.948-4,5-3,10s3,12,7,15,5,2,7,4h1s-1-7,0-10-4-10-6-13-3-5-6-6" fill="#fefffb"/>
        <polyline points="1931.521 1080 11.521 1080 11.521 0" fill="none"/>
        <polyline points="11.521 0 11.521 1080 1931.521 1080" fill="none"/>
        <path d="M214.0059,856.2842C196.18,896.9648,146.9335,929.006,102.5891,910.491c-13.1193-5.4778-24.38-16.7136-27.1859-30.651-7.9417-39.4539,49.6623-57.04,69.1336-23.7894,8.8464,15.1067-3.0279,42.554-10.6028,56.437C110.2363,955.9193,45.2416,962.9.8544,958.6667" fill="none" stroke="#887d86" stroke-miterlimit="10" stroke-width="18"/>
        <path d="M65.0936,955.7339a201.389,201.389,0,0,1-35.276,4.4458" fill="none" stroke="#464146" stroke-miterlimit="10" stroke-width="18"/>
        <path d="M119.4219,930.9965a92.6154,92.6154,0,0,1-26.2128,16.5824" fill="none" stroke="#464146" stroke-miterlimit="10" stroke-width="18"/>
        <path d="M148.3343,870.0981c-.3571,8.1007-2.9471,17.0209-6.1119,25.0442" fill="none" stroke="#464146" stroke-miterlimit="10" stroke-width="18"/>
        <path d="M103.43,838.8926c10.2611-2.62,21.605-1.5073,30.731,4.2618" fill="none" stroke="#464146" stroke-miterlimit="10" stroke-width="18"/>
        <path d="M78.5285,889.1579a35.8207,35.8207,0,0,1-2.9369-8.6264A32.3017,32.3017,0,0,1,78.53,858.4009" fill="none" stroke="#c7c7b4" stroke-miterlimit="10" stroke-width="18"/>
        <path d="M127.1154,916.2074a69.2071,69.2071,0,0,1-24.547-5.34,51.0263,51.0263,0,0,1-9.0528-4.91" fill="none" stroke="#c7c7b4" stroke-miterlimit="10" stroke-width="18"/>
        <path d="M191.0507,890.1579a99.7784,99.7784,0,0,1-27.286,16.9245" fill="none" stroke="#c7c7b4" stroke-miterlimit="10" stroke-width="18"/>
        <path d="M931.7292,386.0835l-262.658,22.3174s-13.8612,20.7434-.8565,201.596l-22.3288-17.8141s-22.6666-169.3334,4.6667-202l258.6667-19.3334Z" fill="#9e921d"/>
        <polygon points="908.219 370.849 930.729 386.084 668.071 408.401 649.553 390.183 908.219 370.849" fill="#ffd833" opacity="0.54"/>
        <polygon points="1113.311 696.81 1134.822 676.376 1165.638 707.11 1113.311 696.81" fill="#52a2af"/>
        <polygon points="917.572 665.909 895.553 644.183 1041.255 668.285 1055.171 689.943 917.572 665.909" fill="#52a2af"/>
        <path d="M1139.767,651.8861s-10.757-34.9545-60.6524-34.4956c0,0-62.4906,7.33-36.86,51.8944l13.9159,21.6584-32.285-22.88s-27.3333-56.2136,50.6667-66.2136C1074.5526,601.8494,1137.648,602.59,1139.767,651.8861Z" fill="#95ebf9"/>
        <path d="M895.5526,644.1828l22.0194,21.7264-97.0064-20.5128s12.1168-8.3182,13.93-12.7869Z" fill="#c6716b"/>
        <path d="M774.2412,658.2044s14.5968,7.8218,41.9541-11.808c0,0,11.1056,62.8413-48.7686,55.2771,0,0-30.5408-8.7985-39.8741-33.0842C727.5526,668.5893,774.93,699.4631,774.2412,658.2044Z" fill="#8e4d4c"/>
        <path d="M657.0543,608.5408l-10.1684-15.358s-33.6666,20.6666-51.6666,168.6666l16,17S639.556,637.8988,657.0543,608.5408Z" fill="#8e4d4c"/>
        <path d="M668.0712,408.4009s-11.8612,58.7434-.8565,201.596c0,0,87.3474,6.5345,91.8426,2.6935,0,0-32.2488,54.08,40.79,43.12,0,0,33.22-13.7109,36.4625-27.669,0,0-51.5805,21.3309-46.1688-16.3136,0,0-99.91-45.801-66.5823-208.0561Z" fill="#9e921d" opacity="0.31"/>
        <path d="M658.0571,608.6343,746.6,626.8418s-51.1769,53.0679,24.6806,75.11c0,0-127.1492,42.5668-44.9542,126.478L658.5747,811.048s-1.3889-21.0231-14.9571-25.5323c0,0-5.2184-19.7085-25.0486-.8735l-8.35-2.6175S641.1858,618.501,658.0571,608.6343Z" fill="#b24270" opacity="0.46"/>
        <path d="M1053.1709,689.9433S915.3459,817.02,1056.3221,882.47l-179.51-29.438s25.387-45.8364,25.1942-78.9691c0,0,82.303,25.3644,74.8033-42.1322,0,0-15.33-46.7861-69.1619-1.6441,0,0,10.1028-45.9327,7.9246-64.377Z" fill="#006c77" opacity="0.38"/>
        <g>
          <image width="301" height="156" transform="translate(619.4967 659.4144)" xlink:href="seek_left1.png"/>
          <image width="301" height="156" transform="translate(619.4967 659.4144)" xlink:href="seek_left2.png"/>
          <text transform="matrix(0.9799, 0.1996, -0.1996, 0.9799, 660.4325, 726.2486)" font-size="34.4053" fill="#551c00" font-family="aAtmospheric, a Atmospheric">founder</text>
        </g>
        <g>
          <image width="239" height="116" transform="translate(645.4967 441.4144)" xlink:href="seek_left3.png"/>
          <image width="239" height="116" transform="translate(645.4967 441.4144)" xlink:href="seek_left4.png"/>
          <text transform="translate(683.8141 513.4082) rotate(-2.5522)" font-size="28.3661" fill="#4a3200" font-family="aAtmospheric, a Atmospheric">advisor</text>
        </g>
        <g>
          <image width="226" height="155" transform="translate(948.4967 707.4144)" xlink:href="seek_left5.png"/>
          <image width="226" height="155" transform="translate(948.4967 707.4144)" xlink:href="seek_left6.png"/>
          <text transform="translate(992.5346 766.3463) rotate(9.7599) scale(0.8619 1)" font-size="28.9058" fill="#003b3f" font-family="aAtmospheric, a Atmospheric">co-<tspan x="0" y="34.687">worker</tspan></text>
        </g>
        <path d="M673.8518,416.9668l248.67-19.2857c2.05-.1591,6.6459,22.18,7.0859,24.5589,1.2331,6.6663,2.6731,13.41,2.5551,20.2247-.016.9239.2712,4.1225-.3832,4.7981-.9736,1.0051-2.631-.3826-3.9109-.967a81.3588,81.3588,0,0,0-21.8816-6.5106c-9.1807-1.4091-18.9109-1.2492-27.273,3.2494-9.1821,4.94-15.1937,14.4246-18.3968,24.347-6.7979,21.0581-1.56,46.0082,14.4586,61.274s42.4721,19.0106,61.2358,7.2812a227.67,227.67,0,0,1,.9041,64.3041c-38.13-1.244-77.3452-8.2942-113.7274,3.1845,4.8692,11.7305,1.8423,26.0506-6.6233,35.5189s-21.7438,14.0632-34.3931,12.9185c-9.2555-.8376-19.0377-5.393-22.42-14.049-3.4514-8.8334.7121-18.6362,4.805-27.1913l-62.1326-2.638-15.5331-.6595c-1.3757-.0584-5.7933.5015-6.8082-.41-1.1717-1.0527-.9832-4.68-1.1914-6.1651q-2.1312-15.202-3.7018-30.4756a837.4607,837.4607,0,0,1-3.575-122.6433q.6786-15.3356,1.921-30.6394Z" fill="none" stroke="#4a3200" stroke-miterlimit="10" stroke-width="4" opacity="0.5"/>
        <g>
          <path d="M910.5209,784.0011c-3.537,21.4353-5.1634,42.7553-17.2589,61.4207,52.9832,8.9648,106.0971,17.2161,159.1454,25.79L1122.021,882.47s35-87.47,39-167.97l-60-12.1946c2.1322.4333,10.3254-9.5067,11.6213-10.8787,6.8232-7.2237,13.5491-15.5517,16.7467-25.099,6.178-18.447-9.6371-31.2055-25.2808-36.8222-18.2556-6.5544-41.17-6.73-54.0873,10.4945-.0007.001-13.4992,18.0011,13,56.5L926.9353,674.3509,917.572,710s44.948-20.2695,62.4484,15.8638c11.8927,24.5549-7.8913,58.2105-34.9077,58.1655Q927.8168,784,910.5209,784.0011Z" fill="none" stroke="#003b3f" stroke-miterlimit="10" stroke-width="3"/>
          <path d="M911.5209,786.0011c-3.537,21.4353-5.1634,42.7553-17.2589,61.4207,52.9832,8.9648,106.0971,17.2161,159.1454,25.79L1123.021,884.47s35-87.47,39-167.97l-60-12.1946c2.1322.4333,10.3254-9.5067,11.6213-10.8787,6.8232-7.2237,13.5491-15.5517,16.7467-25.099,6.178-18.447-9.6371-31.2055-25.2808-36.8222-18.2556-6.5544-41.17-6.73-54.0873,10.4945-.0007.001-13.4992,18.0011,13,56.5L927.9353,676.3509,918.572,712s44.948-20.2695,62.4484,15.8638c11.8927,24.5549-7.8913,58.2105-34.9077,58.1655Q928.8168,786,911.5209,786.0011Z" fill="none" stroke="#003b3f" stroke-miterlimit="10" stroke-width="3" opacity="0.5"/>
        </g>
        <g>
          <image width="512" height="512" transform="translate(918.8017 780.9672) rotate(8.8698) scale(0.1413)" opacity="0.5" xlink:href="seek_left7.png"/>
          <image width="512" height="512" transform="translate(924.6604 781.3463) rotate(8.8698) scale(0.1409)" xlink:href="seek_left8.png"/>
        </g>
        <g>
          <image width="512" height="512" transform="translate(641.1167 737.2287) rotate(3.2334) scale(0.1324)" opacity="0.5" xlink:href="seek_left9.png"/>
          <image width="512" height="512" transform="translate(645.9663 737.5567) rotate(3.2334) scale(0.1322)" xlink:href="seek_left10.png"/>
        </g>
        <g>
          <image width="512" height="512" transform="translate(692.325 532.5806) rotate(-1.4649) scale(0.1239)" opacity="0.5" xlink:href="seek_left11.png"/>
          <image width="512" height="512" transform="translate(696.4814 534.8089) rotate(-1.4649) scale(0.1263)" xlink:href="seek_left12.png"/>
        </g>
      </g>
    </g>
  </g>
</svg>
