<svg xmlns="http://www.w3.org/2000/svg" xmlns:xlink="http://www.w3.org/1999/xlink" width="504.2382" height="513.1554" viewBox="0 0 504.2382 513.1554">
  <defs>
    <linearGradient id="linear-gradient" x1="249.623" y1="381.1416" x2="244.9833" y2="503.3206" gradientUnits="userSpaceOnUse">
      <stop offset="0" stop-color="#fff"/>
      <stop offset="1" stop-color="#dcd7e2"/>
    </linearGradient>
    <linearGradient id="linear-gradient-2" x1="230.2772" y1="129.1792" x2="271.3172" y2="321.4192" xlink:href="#linear-gradient"/>
  </defs>
  <g id="Layer_2" data-name="Layer 2">
    <g id="Layer_2-2" data-name="Layer 2">
      <path d="M384.4464,416.98s196.9881-27.327,82.556-191.2894l-7.6857,18.7874s90.5209,129.8035-84.5431,157.9845Z" fill="#c5c0cc" stroke="#000" stroke-miterlimit="10" stroke-width="3"/>
      <circle cx="436.7042" cy="210.045" r="52.2578" fill="#9289a5" stroke="#000" stroke-miterlimit="10" stroke-width="3"/>
      <circle cx="53.7578" cy="210.045" r="52.2578" fill="#c0b9c9" stroke="#000" stroke-miterlimit="10" stroke-width="3"/>
      <circle cx="243.3638" cy="199.2238" r="170.8595" fill="#1b1723"/>
      <circle cx="243.3638" cy="199.2238" r="170.8595" fill="#1b1723"/>
      <circle cx="245.3057" cy="199.4414" r="178.3662" fill="none"/>
      <rect x="96.6219" y="387.4591" width="301.209" height="91.8632" rx="12" fill="#9289a5" stroke="#000" stroke-miterlimit="10" stroke-width="3"/>
      <g>
        <path d="M405.99,511.1554H84.6258A16.154,16.154,0,0,1,68.6822,492.153c4.9176-26.5447,19.9749-50.3108,41.7769-68.4675,17.62-14.6685,39.66-25.6824,64.32-31.5181a176.4913,176.4913,0,0,1,40.75-4.712h59.56a176.533,176.533,0,0,1,42.58,5.1532c54.1583,13.467,95.367,51.9649,104.2339,99.367A16.1963,16.1963,0,0,1,405.99,511.1554Z" stroke="#000" stroke-miterlimit="10" stroke-width="4" fill="url(#linear-gradient)"/>
        <path d="M317.6643,394.7727c-65.0322,23.9443-123.1971,6.8723-142.8858-.4444a176.6115,176.6115,0,0,1,40.7534-4.71h59.5525A176.41,176.41,0,0,1,317.6643,394.7727Z" fill="#dcd7e2"/>
      </g>
      <path d="M426.1542,119.2293A198.1289,198.1289,0,1,0,442.9489,199.23,197.8208,197.8208,0,0,0,426.1542,119.2293ZM245.231,358.2343A159.1872,159.1872,0,0,1,86.2146,199.23c0-87.6862,71.3421-159.0165,159.0164-159.0165,75.41,0,138.7465,52.7683,154.9838,123.3395a159.3049,159.3049,0,0,1,4.0327,35.677C404.2475,286.9041,332.9053,358.2343,245.231,358.2343Z" stroke="#000" stroke-miterlimit="10" stroke-width="3" fill="url(#linear-gradient-2)"/>
    </g>
  </g>
</svg>
